<svg width="188" height="205" viewBox="0 0 188 205" fill="none" xmlns="http://www.w3.org/2000/svg">
<g clip-path="url(#clip0)">
<path d="M64.7417 190.42C65.5527 190.898 65.5527 191.637 64.7417 192.115C63.9306 192.592 62.6186 192.592 61.8075 192.115C60.9965 191.637 60.9965 190.898 61.8075 190.42C62.6424 189.943 63.9306 189.943 64.7417 190.42Z" fill="#0C1033"/>
<path d="M72.3979 186.005C73.209 186.483 73.209 187.222 72.3979 187.7C71.5868 188.177 70.2748 188.177 69.4638 187.7C68.6527 187.222 68.6527 186.483 69.4638 186.005C70.2748 185.528 71.5868 185.528 72.3979 186.005Z" fill="#0C1033"/>
<path d="M57.1089 186.005C57.9199 186.483 57.9199 187.222 57.1089 187.7C56.2978 188.177 54.9858 188.177 54.1747 187.7C53.3636 187.222 53.3636 186.483 54.1747 186.005C54.9858 185.528 56.2978 185.528 57.1089 186.005Z" fill="#0C1033"/>
<path d="M64.7417 181.591C65.5527 182.069 65.5527 182.808 64.7417 183.286C63.9306 183.763 62.6186 183.763 61.8075 183.286C60.9965 182.808 60.9965 182.069 61.8075 181.591C62.6424 181.114 63.9544 181.114 64.7417 181.591Z" fill="#0C1033"/>
<path d="M49.4526 181.591C50.2637 182.069 50.2637 182.808 49.4526 183.286C48.6415 183.763 47.3295 183.763 46.5185 183.286C45.7074 182.808 45.7074 182.069 46.5185 181.591C47.3534 181.114 48.6654 181.114 49.4526 181.591Z" fill="#0C1033"/>
<path d="M57.1089 177.177C57.9199 177.654 57.9199 178.394 57.1089 178.871C56.2978 179.348 54.9858 179.348 54.1747 178.871C53.3636 178.394 53.3636 177.654 54.1747 177.177C54.9858 176.7 56.2978 176.7 57.1089 177.177Z" fill="#0C1033"/>
<path d="M41.8159 177.177C42.6269 177.654 42.6269 178.394 41.8159 178.871C41.0048 179.348 39.6928 179.348 38.8817 178.871C38.0707 178.394 38.0707 177.654 38.8817 177.177C39.6928 176.7 41.0048 176.7 41.8159 177.177Z" fill="#0C1033"/>
<path d="M49.4526 172.762C50.2637 173.239 50.2637 173.979 49.4526 174.456C48.6415 174.934 47.3295 174.934 46.5185 174.456C45.7074 173.979 45.7074 173.239 46.5185 172.762C47.3534 172.285 48.6654 172.285 49.4526 172.762Z" fill="#0C1033"/>
<path d="M34.1831 172.762C34.9941 173.239 34.9941 173.979 34.1831 174.456C33.372 174.934 32.06 174.934 31.2489 174.456C30.4379 173.979 30.4379 173.239 31.2489 172.762C32.06 172.285 33.372 172.285 34.1831 172.762Z" fill="#0C1033"/>
<path d="M41.8159 168.348C42.6269 168.825 42.6269 169.565 41.8159 170.042C41.0048 170.519 39.6928 170.519 38.8817 170.042C38.0707 169.565 38.0707 168.825 38.8817 168.348C39.6928 167.87 41.0048 167.87 41.8159 168.348Z" fill="#0C1033"/>
<path d="M26.4565 168.3C27.2676 168.777 27.2676 169.517 26.4565 169.994C25.6454 170.471 24.3334 170.471 23.5224 169.994C22.7113 169.517 22.7113 168.777 23.5224 168.3C24.3573 167.823 25.6454 167.823 26.4565 168.3Z" fill="#0C1033"/>
<path d="M34.1128 163.885C34.9238 164.363 34.9238 165.102 34.1128 165.579C33.3017 166.057 31.9897 166.057 31.1786 165.579C30.3675 165.102 30.3675 164.363 31.1786 163.885C31.9897 163.408 33.3017 163.408 34.1128 163.885Z" fill="#0C1033"/>
<path d="M18.8198 163.885C19.6309 164.363 19.6309 165.102 18.8198 165.579C18.0087 166.057 16.6967 166.057 15.8856 165.579C15.0746 165.102 15.0746 164.363 15.8856 163.885C16.6967 163.408 18.0087 163.408 18.8198 163.885Z" fill="#0C1033"/>
<path d="M25.0012 161.5C26.1473 161.5 27.0765 160.965 27.0765 160.306C27.0765 159.647 26.1473 159.113 25.0012 159.113C23.855 159.113 22.9258 159.647 22.9258 160.306C22.9258 160.965 23.855 161.5 25.0012 161.5Z" fill="#0C1033"/>
<path d="M11.1635 159.471C11.9746 159.948 11.9746 160.688 11.1635 161.165C10.3525 161.643 9.04046 161.643 8.22939 161.165C7.41833 160.688 7.41833 159.948 8.22939 159.471C9.06431 158.994 10.3763 158.994 11.1635 159.471Z" fill="#0C1033"/>
<path d="M18.8198 155.056C19.6309 155.533 19.6309 156.273 18.8198 156.75C18.0087 157.228 16.6967 157.228 15.8856 156.75C15.0746 156.273 15.0746 155.533 15.8856 155.056C16.6967 154.579 18.0087 154.579 18.8198 155.056Z" fill="#0C1033"/>
<path d="M3.53073 155.056C4.34179 155.533 4.34179 156.273 3.53073 156.75C2.71966 157.228 1.40764 157.228 0.59658 156.75C-0.214485 156.273 -0.214485 155.533 0.59658 155.056C1.40764 154.579 2.71966 154.579 3.53073 155.056Z" fill="#0C1033"/>
<path d="M11.1635 150.642C11.9746 151.119 11.9746 151.859 11.1635 152.336C10.3525 152.814 9.04046 152.814 8.22939 152.336C7.41833 151.859 7.41833 151.119 8.22939 150.642C9.06431 150.165 10.3763 150.165 11.1635 150.642Z" fill="#0C1033"/>
<path d="M3.53073 146.228C4.34179 146.705 4.34179 147.445 3.53073 147.922C2.71966 148.399 1.40764 148.399 0.59658 147.922C-0.214485 147.445 -0.214485 146.705 0.59658 146.228C1.40764 145.75 2.71966 145.75 3.53073 146.228Z" fill="#0C1033"/>
<path d="M103.269 202.948C104.08 203.425 104.08 204.165 103.269 204.642C102.458 205.119 101.146 205.119 100.335 204.642C99.5238 204.165 99.5238 203.425 100.335 202.948C101.146 202.495 102.458 202.495 103.269 202.948Z" fill="#0C1033"/>
<path d="M110.925 198.533C111.736 199.011 111.736 199.75 110.925 200.228C110.114 200.705 108.802 200.705 107.991 200.228C107.18 199.75 107.18 199.011 107.991 198.533C108.802 198.08 110.114 198.08 110.925 198.533Z" fill="#0C1033"/>
<path d="M118.558 194.119C119.369 194.596 119.369 195.336 118.558 195.813C117.747 196.29 116.435 196.29 115.624 195.813C114.813 195.336 114.813 194.596 115.624 194.119C116.435 193.665 117.747 193.665 118.558 194.119Z" fill="#0C1033"/>
<path d="M126.214 189.704C127.025 190.182 127.025 190.921 126.214 191.399C125.403 191.876 124.091 191.876 123.28 191.399C122.469 190.921 122.469 190.182 123.28 189.704C124.091 189.251 125.403 189.251 126.214 189.704Z" fill="#0C1033"/>
<path d="M133.851 185.29C134.662 185.767 134.662 186.507 133.851 186.984C133.04 187.461 131.728 187.461 130.917 186.984C130.106 186.507 130.106 185.767 130.917 185.29C131.728 184.836 133.04 184.836 133.851 185.29Z" fill="#0C1033"/>
<path d="M141.484 180.875C142.295 181.352 142.295 182.092 141.484 182.569C140.673 183.047 139.361 183.047 138.55 182.569C137.739 182.092 137.739 181.352 138.55 180.875C139.385 180.422 140.697 180.422 141.484 180.875Z" fill="#0C1033"/>
<path d="M149.14 176.461C149.951 176.938 149.951 177.678 149.14 178.155C148.329 178.632 147.017 178.632 146.206 178.155C145.395 177.678 145.395 176.938 146.206 176.461C147.017 176.007 148.329 176.007 149.14 176.461Z" fill="#0C1033"/>
<path d="M87.976 202.948C88.7871 203.425 88.7871 204.165 87.976 204.642C87.165 205.119 85.853 205.119 85.0419 204.642C84.2308 204.165 84.2308 203.425 85.0419 202.948C85.8768 202.495 87.165 202.495 87.976 202.948Z" fill="#0C1033"/>
<path d="M95.6362 198.533C96.4473 199.011 96.4473 199.75 95.6362 200.228C94.8251 200.705 93.5131 200.705 92.702 200.228C91.891 199.75 91.891 199.011 92.702 198.533C93.5131 198.08 94.8251 198.08 95.6362 198.533Z" fill="#0C1033"/>
<path d="M103.269 194.119C104.08 194.596 104.08 195.336 103.269 195.813C102.458 196.29 101.146 196.29 100.335 195.813C99.5238 195.336 99.5238 194.596 100.335 194.119C101.146 193.665 102.458 193.665 103.269 194.119Z" fill="#0C1033"/>
<path d="M110.925 189.704C111.736 190.182 111.736 190.921 110.925 191.399C110.114 191.876 108.802 191.876 107.991 191.399C107.18 190.921 107.18 190.182 107.991 189.704C108.802 189.251 110.114 189.251 110.925 189.704Z" fill="#0C1033"/>
<path d="M118.558 185.29C119.369 185.767 119.369 186.507 118.558 186.984C117.747 187.461 116.435 187.461 115.624 186.984C114.813 186.507 114.813 185.767 115.624 185.29C116.435 184.836 117.747 184.836 118.558 185.29Z" fill="#0C1033"/>
<path d="M126.214 180.875C127.025 181.352 127.025 182.092 126.214 182.569C125.403 183.047 124.091 183.047 123.28 182.569C122.469 182.092 122.469 181.352 123.28 180.875C124.091 180.422 125.403 180.422 126.214 180.875Z" fill="#0C1033"/>
<path d="M133.851 176.461C134.662 176.938 134.662 177.678 133.851 178.155C133.04 178.632 131.728 178.632 130.917 178.155C130.106 177.678 130.106 176.938 130.917 176.461C131.728 176.007 133.04 176.007 133.851 176.461Z" fill="#0C1033"/>
<path d="M141.484 172.046C142.295 172.523 142.295 173.263 141.484 173.74C140.673 174.218 139.361 174.218 138.55 173.74C137.739 173.263 137.739 172.523 138.55 172.046C139.385 171.593 140.697 171.593 141.484 172.046Z" fill="#0C1033"/>
<path d="M80.3432 198.533C81.1543 199.011 81.1543 199.75 80.3432 200.228C79.5322 200.705 78.2201 200.705 77.4091 200.228C76.598 199.75 76.598 199.011 77.4091 198.533C78.2201 198.08 79.5322 198.08 80.3432 198.533Z" fill="#0C1033"/>
<path d="M87.976 194.119C88.7871 194.596 88.7871 195.336 87.976 195.813C87.165 196.29 85.853 196.29 85.0419 195.813C84.2308 195.336 84.2308 194.596 85.0419 194.119C85.8768 193.665 87.165 193.665 87.976 194.119Z" fill="#0C1033"/>
<path d="M72.687 194.119C73.498 194.596 73.498 195.336 72.687 195.813C71.8759 196.29 70.5639 196.29 69.7528 195.813C68.9418 195.336 68.9418 194.596 69.7528 194.119C70.5877 193.665 71.8759 193.665 72.687 194.119Z" fill="#0C1033"/>
<path d="M80.3432 189.704C81.1543 190.182 81.1543 190.921 80.3432 191.399C79.5322 191.876 78.2201 191.876 77.4091 191.399C76.598 190.921 76.598 190.182 77.4091 189.704C78.2201 189.251 79.5322 189.251 80.3432 189.704Z" fill="#0C1033"/>
<path d="M153.864 172.118C154.675 171.641 155.987 171.641 156.798 172.118C157.609 172.572 157.609 173.335 156.798 173.812C155.987 174.29 154.675 174.29 153.864 173.812C153.077 173.335 153.077 172.572 153.864 172.118Z" fill="#0C1033"/>
<path d="M164.457 167.704C165.268 168.181 165.268 168.921 164.457 169.398C163.645 169.875 162.333 169.875 161.522 169.398C160.711 168.921 160.711 168.181 161.522 167.704C162.333 167.226 163.645 167.226 164.457 167.704Z" fill="#0C1033"/>
<path d="M172.089 163.289C172.9 163.766 172.9 164.506 172.089 164.983C171.278 165.46 169.966 165.46 169.155 164.983C168.344 164.506 168.344 163.766 169.155 163.289C169.99 162.811 171.278 162.811 172.089 163.289Z" fill="#0C1033"/>
<path d="M179.746 158.875C180.557 159.352 180.557 160.092 179.746 160.569C178.934 161.046 177.622 161.046 176.811 160.569C176 160.092 176 159.352 176.811 158.875C177.622 158.397 178.934 158.397 179.746 158.875Z" fill="#0C1033"/>
<path d="M187.378 154.46C188.189 154.937 188.189 155.677 187.378 156.154C186.567 156.631 185.255 156.631 184.444 156.154C183.633 155.677 183.633 154.937 184.444 154.46C185.255 153.983 186.567 153.983 187.378 154.46Z" fill="#0C1033"/>
<path d="M146.229 167.704C147.04 167.226 148.352 167.226 149.164 167.704C149.975 168.181 149.975 168.921 149.164 169.398C148.352 169.875 147.04 169.875 146.229 169.398C145.418 168.921 145.418 168.157 146.229 167.704Z" fill="#0C1033"/>
<path d="M156.796 163.289C157.607 163.766 157.607 164.506 156.796 164.983C155.985 165.46 154.673 165.46 153.862 164.983C153.051 164.506 153.051 163.766 153.862 163.289C154.697 162.811 155.985 162.811 156.796 163.289Z" fill="#0C1033"/>
<path d="M164.457 158.875C165.268 159.352 165.268 160.092 164.457 160.569C163.645 161.046 162.333 161.046 161.522 160.569C160.711 160.092 160.711 159.352 161.522 158.875C162.333 158.397 163.645 158.397 164.457 158.875Z" fill="#0C1033"/>
<path d="M172.089 154.46C172.9 154.937 172.9 155.677 172.089 156.154C171.278 156.631 169.966 156.631 169.155 156.154C168.344 155.677 168.344 154.937 169.155 154.46C169.99 153.983 171.278 153.983 172.089 154.46Z" fill="#0C1033"/>
<path d="M179.746 150.045C180.557 150.523 180.557 151.262 179.746 151.74C178.934 152.217 177.622 152.217 176.811 151.74C176 151.262 176 150.523 176.811 150.045C177.622 149.568 178.934 149.568 179.746 150.045Z" fill="#0C1033"/>
<path d="M187.378 145.631C188.189 146.108 188.189 146.848 187.378 147.325C186.567 147.802 185.255 147.802 184.444 147.325C183.633 146.848 183.633 146.108 184.444 145.631C185.255 145.154 186.567 145.154 187.378 145.631Z" fill="#0C1033"/>
<path d="M94.1562 99.601V114.515L179.557 65.1917V50.2778L94.1562 99.601Z" fill="#1F5A7B"/>
<path d="M8.78125 50.2778V65.1917L94.1577 114.515V99.601L8.78125 50.2778Z" fill="#1F5A7B"/>
<path d="M179.558 50.2773L94.1577 99.6004L8.78125 50.2773L94.1577 0.978027L179.558 50.2773Z" fill="white"/>
<path d="M94.1561 100.579L93.7267 100.34L7.08594 50.2776L94.1561 0L94.5855 0.238622L181.226 50.2776L94.1561 100.579ZM10.4733 50.2776L94.1561 98.5985L177.839 50.2776L94.1561 1.9567L10.4733 50.2776Z" fill="#0C1033"/>
<path d="M94.1562 114.3V129.214L179.557 79.9144V65.0005L94.1562 114.3Z" fill="#0C1033"/>
<path d="M8.78125 65.0005V79.9144L94.1577 129.214V114.3L8.78125 65.0005Z" fill="#1F5A7B"/>
<path d="M94.1579 115.373L8.32812 65.8116L9.25846 64.189L94.1579 113.226L179.081 64.189L180.011 65.8116L94.1579 115.373Z" fill="#0C1033"/>
<path d="M94.1562 129.238V144.152L179.533 94.8523V79.9385L94.1562 129.238Z" fill="#1F5A7B"/>
<path d="M8.78125 79.9385V94.8523L94.1577 144.152V129.238L8.78125 79.9385Z" fill="#1F5A7B"/>
<path d="M94.1579 130.311L8.32812 80.7496L9.25846 79.127L94.1579 128.164L179.081 79.127L180.011 80.7496L94.1579 130.311Z" fill="#0C1033"/>
<path d="M94.1562 144.247V159.161L179.533 109.838V94.9238L94.1562 144.247Z" fill="#0C1033"/>
<path d="M8.78125 94.9238V109.838L94.1577 159.161V144.247L8.78125 94.9238Z" fill="#1F5A7B"/>
<path d="M94.1579 145.321L8.32812 95.735L9.25846 94.1362L94.1579 143.173L179.081 94.1362L180.011 95.735L94.1579 145.321Z" fill="#0C1033"/>
<path d="M94.1562 159.185V174.099L179.533 124.776V109.862L94.1562 159.185Z" fill="#1F5A7B"/>
<path d="M8.78125 109.862V124.776L94.1577 174.099V159.185L8.78125 109.862Z" fill="#1F5A7B"/>
<path d="M94.1579 160.259L8.32812 110.673L9.25846 109.05L94.1579 158.111L179.081 109.05L180.011 110.673L94.1579 160.259Z" fill="#0C1033"/>
<path d="M94.1562 174.433V189.347L179.557 140.048V125.134L94.1562 174.433Z" fill="#0C1033"/>
<path d="M8.78125 125.134V140.048L94.1577 189.347V174.433L8.78125 125.134Z" fill="#1F5A7B"/>
<path d="M94.1579 175.507L8.32812 125.921L9.25846 124.322L94.1579 173.359L179.081 124.322L180.011 125.921L94.1579 175.507Z" fill="#0C1033"/>
<path d="M94.1578 190.42L67.2734 174.886L68.2038 173.287L94.1578 188.273L178.604 139.498V50.8264L93.7046 1.78962L94.6349 0.166992L180.488 49.7526V140.572L94.1578 190.42Z" fill="#0C1033"/>
<path d="M94.1546 190.563L7.39453 140.477L9.25521 139.379L94.1546 188.416L179.078 139.379L180.008 141.002L94.1546 190.563Z" fill="#0C1033"/>
<path d="M9.23135 50.1104H7.39453V140.476H9.23135V50.1104Z" fill="#0C1033"/>
</g>
<defs>
<clipPath id="clip0">
<rect width="188" height="205" fill="white"/>
</clipPath>
</defs>
</svg>
