<svg width="58" height="16" viewBox="0 0 58 16" fill="none" xmlns="http://www.w3.org/2000/svg">
<path d="M15.0781 0H17.7461V16H15.0781V0Z" fill="#0C1033"/>
<path d="M27.0268 10.9296C27.0268 13.4085 24.9388 13.6338 24.2428 13.6338C22.6188 13.6338 22.3868 12.169 22.3868 11.3803V5.18311H19.7188V11.2676C19.7188 12.7324 20.1827 14.0845 21.1107 14.8732C21.9227 15.662 22.9668 16 24.2428 16C25.1708 16 26.3308 15.7747 27.0268 15.0986V16H29.6948V5.18311H27.0268V10.9296Z" fill="#0C1033"/>
<path d="M34.9173 1.2395H32.2493V5.18316H30.2773V7.66204H32.2493V16.0001H34.9173V7.66204H36.8893V5.18316H34.9173V1.2395Z" fill="#0C1033"/>
<path d="M45.2396 12.7324C44.6596 13.1831 43.8476 13.5211 43.0356 13.5211C41.1796 13.5211 39.9036 12.169 39.9036 10.3662C39.9036 8.5634 41.1796 7.32396 43.0356 7.32396C43.8476 7.32396 44.6596 7.54931 45.2396 8.11269L45.5876 8.45072L47.4436 6.76058L46.9796 6.42255C45.9356 5.52114 44.5436 4.95776 43.0356 4.95776C39.7876 4.95776 37.3516 7.32396 37.3516 10.4789C37.3516 13.6338 39.7876 16 43.0356 16C44.5436 16 45.9356 15.4366 46.9796 14.5352L47.4436 14.1972L45.5876 12.3944L45.2396 12.7324Z" fill="#0C1033"/>
<path d="M56.8387 6.08451C56.0267 5.29577 55.2147 4.95775 53.9387 4.95775C53.0107 4.95775 52.0827 5.1831 51.3867 5.85916V0H48.7188V16H51.3867V10.0282C51.3867 7.5493 53.1267 7.32394 53.8227 7.32394C55.4467 7.32394 55.3307 8.78873 55.3307 9.57747V15.8873H57.9987V9.69014C57.9987 8.22535 57.6507 6.87324 56.8387 6.08451Z" fill="#0C1033"/>
<path d="M42.9185 12.2817C43.9435 12.2817 44.7745 11.4745 44.7745 10.4788C44.7745 9.48317 43.9435 8.67603 42.9185 8.67603C41.8935 8.67603 41.0625 9.48317 41.0625 10.4788C41.0625 11.4745 41.8935 12.2817 42.9185 12.2817Z" fill="#0C1033"/>
<path d="M11.368 12.0562C10.44 12.9576 9.048 13.521 7.54 13.521C4.64 13.521 2.552 11.2675 2.552 8.22525C2.552 5.183 4.64 2.92948 7.656 2.92948C9.048 2.92948 10.44 3.49286 11.484 4.50694L11.832 4.84497L13.572 3.15483L13.224 2.8168C11.716 1.35202 9.744 0.563283 7.656 0.563283C3.248 0.450607 0 3.83089 0 8.22525C0 12.6196 3.248 15.9999 7.54 15.9999C9.628 15.9999 11.716 15.2112 13.108 13.7464L13.456 13.4083L11.716 11.7182L11.368 12.0562Z" fill="#0C1033"/>
</svg>
