<svg width="11" height="11" viewBox="0 0 11 11" fill="none" xmlns="http://www.w3.org/2000/svg">
<mask id="mask0" mask-type="alpha" maskUnits="userSpaceOnUse" x="0" y="0" width="11" height="11">
<path d="M5.50946 10.7124C8.39701 10.7124 10.7378 8.37874 10.7378 5.49995C10.7378 2.62117 8.39701 0.287476 5.50946 0.287476C2.6219 0.287476 0.281067 2.62117 0.281067 5.49995C0.281067 8.37874 2.6219 10.7124 5.50946 10.7124Z" fill="url(#paint0_linear)"/>
</mask>
<g mask="url(#mask0)">
<path d="M5.50946 10.7124C8.39701 10.7124 10.7378 8.37874 10.7378 5.49995C10.7378 2.62117 8.39701 0.287476 5.50946 0.287476C2.6219 0.287476 0.281067 2.62117 0.281067 5.49995C0.281067 8.37874 2.6219 10.7124 5.50946 10.7124Z" fill="url(#paint1_linear)"/>
</g>
<defs>
<linearGradient id="paint0_linear" x1="33.3157" y1="75.8664" x2="-38.0859" y2="-105.937" gradientUnits="userSpaceOnUse">
<stop/>
<stop offset="1" stop-color="white"/>
</linearGradient>
<linearGradient id="paint1_linear" x1="33.3157" y1="75.8664" x2="-38.0859" y2="-105.937" gradientUnits="userSpaceOnUse">
<stop stop-color="#97C3F9"/>
<stop offset="1" stop-color="#93C1F9"/>
</linearGradient>
</defs>
</svg>
