<svg width="49" height="30" viewBox="0 0 49 30" fill="none" xmlns="http://www.w3.org/2000/svg">
<g clip-path="url(#clip0)">
<path d="M25.6464 8.38125C24.2741 9.75351 24.2741 11.9801 25.6464 13.3529C27.0186 14.7252 29.2458 14.7252 30.6181 13.3529C31.9886 11.9824 31.9886 9.75234 30.6181 8.38125C29.2452 7.00898 27.0186 7.00898 25.6464 8.38125ZM26.8892 9.62402C27.5747 8.93848 28.6897 8.93848 29.3747 9.62402C30.0602 10.3096 30.0602 11.4246 29.3747 12.1096C28.6892 12.7951 27.5741 12.7951 26.8892 12.1096C26.2036 11.4246 26.2036 10.3096 26.8892 9.62402Z" fill="#1F5A7B"/>
<path d="M9.25794 29.7423C9.48294 29.9673 9.81282 30.054 10.1204 29.9667C10.1925 29.9462 11.9017 29.4605 13.8101 28.796C17.8126 27.4033 18.565 26.6509 18.8122 26.4042C20.5115 24.705 20.5249 21.9494 18.8544 20.232L20.8378 22.2154C21.0804 22.4574 21.4425 22.5382 21.7665 22.4175C23.5267 21.7607 25.0413 21.2568 26.4177 20.7435L29.8794 26.2566C30.0652 26.5525 30.4115 26.7142 30.7636 26.6579C31.1122 26.6023 31.3941 26.3439 31.479 26.0011L33.9001 16.2745C34.0484 16.1339 34.1972 15.9892 34.3466 15.8392C36.8503 13.3355 38.1669 9.78646 38.6995 6.27259C39.1542 3.27376 38.9591 0.946418 38.9503 0.848567C38.9134 0.423762 38.5765 0.086848 38.1511 0.049348C38.0533 0.040559 35.7259 -0.153972 32.7271 0.300129C29.212 0.832747 25.6636 2.14993 23.1605 4.65306C23.0111 4.80247 22.8663 4.95072 22.7263 5.09837L13.0056 7.52884C12.664 7.61439 12.4062 7.89564 12.3505 8.24368C12.2954 8.59173 12.4531 8.93919 12.7513 9.12611L18.2574 12.5814C18.0159 13.2288 16.9331 16.2956 16.5827 17.2337C16.4626 17.556 16.5411 17.9193 16.7849 18.1624L18.7683 20.1458C17.0509 18.4753 14.2952 18.4882 12.596 20.188C12.3488 20.4353 11.5964 21.1876 10.2042 25.1902C9.53977 27.098 9.05403 28.8077 9.03352 28.8792C8.94622 29.1863 9.03235 29.5167 9.25794 29.7423ZM20.8536 7.37884C20.045 8.53724 19.4445 9.69154 18.9171 10.9202L15.4325 8.73353L20.8536 7.37884ZM36.5427 8.09134L30.9095 2.45814C33.5562 1.789 36.0306 1.73919 37.2353 1.76614C37.2816 3.79642 37.0642 6.04407 36.5427 8.09134ZM28.0818 20.082C29.3093 19.5558 30.4624 18.9558 31.6197 18.1478L30.2708 23.5677L28.0818 20.082ZM18.4261 17.3175C20.2777 12.2679 20.8876 9.41263 24.4044 5.89583C25.7304 4.56986 27.354 3.66341 29.0117 3.04583L35.9521 9.98626C35.3439 11.614 34.4421 13.2581 33.1044 14.5958C29.6023 18.098 26.7745 18.7068 21.6827 20.5742L18.4261 17.3175ZM11.1962 27.804C11.3825 27.2087 11.614 26.4956 11.8695 25.7609C13.005 22.4984 13.6267 21.647 13.8411 21.4326C14.8689 20.4048 16.5406 20.4054 17.5677 21.4326C18.5949 22.4597 18.5949 24.1314 17.5677 25.1591C17.3533 25.3736 16.5007 25.9958 13.2318 27.1331C12.4988 27.388 11.7892 27.6183 11.1962 27.804Z" fill="#0C1033"/>
</g>
<defs>
<clipPath id="clip0">
<rect width="30" height="30" fill="white" transform="translate(9)"/>
</clipPath>
</defs>
</svg>
