<svg width="42" height="28" viewBox="0 0 42 28" fill="none" xmlns="http://www.w3.org/2000/svg">
<path d="M38.2266 10.1818C37.8853 10.1818 37.4604 10.2353 36.9961 10.332V6.36364C36.9961 5.66109 36.4448 5.09091 35.7656 5.09091H31.929C32.0225 4.61067 32.0742 4.17115 32.0742 3.81818C32.0742 1.71309 30.418 0 28.3828 0C26.3476 0 24.6914 1.71309 24.6914 3.81818C24.6914 4.17115 24.7431 4.61067 24.8366 5.09091H17.1642C17.2577 4.61067 17.3094 4.17115 17.3094 3.81818C17.3094 1.71309 15.6532 0 13.618 0C11.5828 0 9.9266 1.71309 9.9266 3.81818C9.9266 4.17115 9.97828 4.61067 10.0718 5.09091H6.23438C5.55516 5.09091 5.00391 5.66109 5.00391 6.36364V10.332C4.53961 10.2353 4.11469 10.1818 3.77344 10.1818C1.73414 10.1818 0 11.8873 0 14C0 16.1093 1.73004 17.8182 3.77344 17.8182C4.11469 17.8182 4.53961 17.7647 5.00391 17.668V21.6364C5.00391 22.3389 5.55516 22.9091 6.23438 22.9091H10.071C9.97746 23.3893 9.92578 23.8288 9.92578 24.1818C9.92578 26.2869 11.582 28 13.6172 28C15.6524 28 17.3086 26.2869 17.3086 24.1818C17.3086 23.8288 17.2569 23.3893 17.1634 22.9091H24.8358C24.7423 23.3893 24.6906 23.8288 24.6906 24.1818C24.6906 26.2869 26.3468 28 28.382 28C30.4172 28 32.0734 26.2869 32.0734 24.1818C32.0734 23.8288 32.0217 23.3893 31.9282 22.9091H35.7656C36.4448 22.9091 36.9961 22.3389 36.9961 21.6364V17.668C37.4604 17.7647 37.8853 17.8182 38.2266 17.8182C40.2659 17.8182 42 16.1127 42 14C42 11.8907 40.2691 10.1818 38.2266 10.1818ZM15.5449 20.3636C14.6959 20.3636 14.1012 21.2342 14.3858 22.0623C14.7033 22.9863 14.8477 23.8085 14.8477 24.1818C14.8477 24.8835 14.2956 25.4545 13.6172 25.4545C12.9388 25.4545 12.3867 24.8835 12.3867 24.1818C12.3867 23.8085 12.5311 22.9863 12.8486 22.0623C13.134 21.2316 12.536 20.3636 11.6895 20.3636H7.46484V15.9939C7.46484 15.1183 6.62566 14.4998 5.82258 14.795C4.92926 15.1234 4.13438 15.2727 3.77344 15.2727C3.07453 15.2727 2.46094 14.6779 2.46094 14C2.46094 13.3221 3.07453 12.7273 3.77344 12.7273C4.13438 12.7273 4.92926 12.8766 5.82258 13.205C6.61992 13.4985 7.46484 12.8876 7.46484 12.0061V7.63636H11.6895C12.5385 7.63636 13.1332 6.76582 12.8486 5.9377C12.5311 5.0137 12.3867 4.19152 12.3867 3.81818C12.3867 3.11648 12.9388 2.54545 13.6172 2.54545C14.2956 2.54545 14.8477 3.11648 14.8477 3.81818C14.8477 4.19152 14.7033 5.0137 14.3858 5.9377C14.1004 6.76752 14.6984 7.63636 15.5449 7.63636H19.7695V11.9967C19.7695 12.4099 19.9639 12.7977 20.2904 13.0361C20.6169 13.2745 21.0353 13.3339 21.4118 13.1956C22.2485 12.8885 23.0762 12.7273 23.4609 12.7273C24.1393 12.7273 24.6914 13.2983 24.6914 14C24.6914 14.7017 24.1393 15.2727 23.4609 15.2727C23.0762 15.2727 22.2493 15.1115 21.4118 14.8044C21.0345 14.6661 20.6169 14.7255 20.2904 14.9639C19.9639 15.2023 19.7695 15.5901 19.7695 16.0033V20.3636H15.5449ZM38.2266 15.2727C37.8656 15.2727 37.0707 15.1234 36.1774 14.795C35.3793 14.5015 34.5352 15.1132 34.5352 15.9939V20.3636H30.3105C29.4615 20.3636 28.8668 21.2342 29.1514 22.0623C29.4689 22.9863 29.6133 23.8085 29.6133 24.1818C29.6133 24.8835 29.0612 25.4545 28.3828 25.4545C27.7044 25.4545 27.1523 24.8835 27.1523 24.1818C27.1523 23.8085 27.2967 22.9863 27.6142 22.0623C27.8996 21.2316 27.3016 20.3636 26.4551 20.3636H22.2305V17.6731C22.6907 17.7673 23.1156 17.8182 23.4609 17.8182C25.4961 17.8182 27.1523 16.1051 27.1523 14C27.1523 11.8949 25.4961 10.1818 23.4609 10.1818C23.1156 10.1818 22.6907 10.2336 22.2305 10.3269V7.63636H26.4551C27.3041 7.63636 27.8988 6.76582 27.6142 5.9377C27.2967 5.0137 27.1523 4.19152 27.1523 3.81818C27.1523 3.11648 27.7044 2.54545 28.3828 2.54545C29.0612 2.54545 29.6133 3.11648 29.6133 3.81818C29.6133 4.19152 29.4689 5.0137 29.1514 5.9377C28.866 6.76752 29.464 7.63636 30.3105 7.63636H34.5352V12.0061C34.5352 12.8817 35.3743 13.5002 36.1774 13.205C37.0707 12.8766 37.8656 12.7273 38.2266 12.7273C38.9255 12.7273 39.5391 13.3221 39.5391 14C39.5391 14.6779 38.9255 15.2727 38.2266 15.2727Z" fill="#1F5A7B"/>
<path d="M38.2266 15.2727C37.8656 15.2727 37.0707 15.1233 36.1774 14.795C35.3793 14.5014 34.5352 15.1132 34.5352 15.9939V20.3636H30.3105C29.4615 20.3636 28.8668 21.2341 29.1514 22.0623C29.4689 22.9863 29.6133 23.8084 29.6133 24.1818C29.6133 24.8835 29.0612 25.4545 28.3828 25.4545C27.7044 25.4545 27.1523 24.8835 27.1523 24.1818C27.1523 23.8084 27.2967 22.9863 27.6142 22.0623C27.8996 21.2316 27.3016 20.3636 26.4551 20.3636H22.2305V17.673C22.6907 17.7672 23.1156 17.8181 23.4609 17.8181C25.4961 17.8181 27.1523 16.105 27.1523 14C27.1523 11.8949 25.4961 10.1818 23.4609 10.1818C23.1156 10.1818 22.6907 10.2335 22.2305 10.3269V7.63632H26.4551C27.3041 7.63632 27.8988 6.76577 27.6142 5.93765C27.2967 5.01365 27.1523 4.19147 27.1523 3.81814C27.1523 3.11644 27.7044 2.54541 28.3828 2.54541C29.0612 2.54541 29.6133 3.11644 29.6133 3.81814C29.6133 4.19147 29.4689 5.01365 29.1514 5.93765C28.866 6.76747 29.464 7.63632 30.3105 7.63632H34.5352V12.006C34.5352 12.8817 35.3743 13.5002 36.1774 13.2049C37.0707 12.8766 37.8656 12.7272 38.2266 12.7272C38.9255 12.7272 39.5391 13.322 39.5391 14C39.5391 14.6779 38.9255 15.2727 38.2266 15.2727Z" fill="#0C1033"/>
</svg>
