<svg width="49" height="30" viewBox="0 0 49 30" fill="none" xmlns="http://www.w3.org/2000/svg">
<g clip-path="url(#clip0)">
<path d="M39 20.2734C39 25.6172 34.6184 30 29.2734 30C23.9426 30 19.6055 25.6365 19.6055 20.2734C19.6055 19.9617 19.6207 19.6541 19.65 19.35C19.3436 19.3793 19.0354 19.3945 18.7266 19.3945C13.3635 19.3945 9 15.0574 9 9.72656C9 4.38281 13.3816 0 18.7266 0C24.0574 0 28.3945 4.36348 28.3945 9.72656C28.3945 10.0354 28.3793 10.3436 28.35 10.65C28.6541 10.6213 28.9617 10.6055 29.2734 10.6055C34.6365 10.6055 39 14.9426 39 20.2734ZM20.0016 17.5336C20.407 16.1643 21.1078 14.9209 22.0307 13.8773C22.0137 13.8609 21.9961 13.8445 21.9803 13.8264C21.1518 12.8965 19.9658 12.3633 18.7266 12.3633C17.4873 12.3633 16.3014 12.8965 15.4734 13.827C15.1506 14.1896 14.5951 14.2219 14.2324 13.899C13.8697 13.5762 13.8375 13.0207 14.1604 12.658C15.3217 11.3537 16.9863 10.6055 18.7266 10.6055C20.4668 10.6055 22.1314 11.3537 23.2928 12.6574C23.2975 12.6621 23.301 12.6674 23.3051 12.6727C24.2549 11.9256 25.3471 11.3525 26.5342 11.001C26.6016 10.5814 26.6367 10.1549 26.6367 9.72656C26.6367 5.33262 23.0883 1.75781 18.7266 1.75781C14.3326 1.75781 10.7578 5.33262 10.7578 9.72656C10.7578 14.0883 14.3326 17.6367 18.7266 17.6367C19.1549 17.6367 19.5814 17.6016 20.0016 17.5336ZM37.2422 20.2734C37.2422 15.9117 33.6674 12.3633 29.2734 12.3633C24.9117 12.3633 21.3633 15.9117 21.3633 20.2734C21.3633 24.6674 24.9117 28.2422 29.2734 28.2422C33.6674 28.2422 37.2422 24.6674 37.2422 20.2734Z" fill="#1F5A7B"/>
<path d="M34.9407 21.5244C35.1054 21.7576 35.1464 22.0564 35.0509 22.3254C34.179 24.7781 31.8569 26.4258 29.2724 26.4258C26.6878 26.4258 24.3657 24.7781 23.4939 22.3254C23.3983 22.0564 23.4394 21.7576 23.604 21.5244C23.7687 21.2912 24.0364 21.1523 24.3224 21.1523H34.223C34.5083 21.1523 34.7761 21.2912 34.9407 21.5244ZM32.7651 22.9102H25.7796C26.5941 23.9953 27.8802 24.668 29.2724 24.668C30.6646 24.668 31.9507 23.9953 32.7651 22.9102Z" fill="#0C1033"/>
<path d="M24.8789 18.5156C24.8789 18.0311 25.2732 17.6367 25.7578 17.6367C26.2424 17.6367 26.6367 18.0311 26.6367 18.5156C26.6367 19.0008 27.0305 19.3945 27.5156 19.3945C28.0008 19.3945 28.3945 19.0008 28.3945 18.5156C28.3945 17.0619 27.2115 15.8789 25.7578 15.8789C24.3041 15.8789 23.1211 17.0619 23.1211 18.5156C23.1211 19.0008 23.5148 19.3945 24 19.3945C24.4852 19.3945 24.8789 19.0008 24.8789 18.5156Z" fill="#0C1033"/>
<path d="M32.7891 15.8789C31.3354 15.8789 30.1523 17.0619 30.1523 18.5156C30.1523 19.0008 30.5461 19.3945 31.0312 19.3945C31.5164 19.3945 31.9102 19.0008 31.9102 18.5156C31.9102 18.0311 32.3045 17.6367 32.7891 17.6367C33.2736 17.6367 33.668 18.0311 33.668 18.5156C33.668 19.0008 34.0617 19.3945 34.5469 19.3945C35.032 19.3945 35.4258 19.0008 35.4258 18.5156C35.4258 17.0619 34.2428 15.8789 32.7891 15.8789Z" fill="#0C1033"/>
<path d="M17.8477 7.08984C17.8477 6.60469 17.4539 6.21094 16.9688 6.21094C16.4836 6.21094 16.0898 6.60469 16.0898 7.08984C16.0898 7.57441 15.6955 7.96875 15.2109 7.96875C14.7264 7.96875 14.332 7.57441 14.332 7.08984C14.332 6.60469 13.9383 6.21094 13.4531 6.21094C12.968 6.21094 12.5742 6.60469 12.5742 7.08984C12.5742 8.54355 13.7572 9.72656 15.2109 9.72656C16.6646 9.72656 17.8477 8.54355 17.8477 7.08984Z" fill="#0C1033"/>
<path d="M22.2422 9.72656C23.6959 9.72656 24.8789 8.54355 24.8789 7.08984C24.8789 6.60469 24.4852 6.21094 24 6.21094C23.5148 6.21094 23.1211 6.60469 23.1211 7.08984C23.1211 7.57441 22.7268 7.96875 22.2422 7.96875C21.7576 7.96875 21.3633 7.57441 21.3633 7.08984C21.3633 6.60469 20.9695 6.21094 20.4844 6.21094C19.9992 6.21094 19.6055 6.60469 19.6055 7.08984C19.6055 8.54355 20.7885 9.72656 22.2422 9.72656Z" fill="#0C1033"/>
</g>
<defs>
<clipPath id="clip0">
<rect width="49" height="30" fill="white"/>
</clipPath>
</defs>
</svg>
