<svg width="49" height="30" viewBox="0 0 49 30" fill="none" xmlns="http://www.w3.org/2000/svg">
<g clip-path="url(#clip0)">
<path d="M18.7305 9.63036V13.1447C18.7305 13.6296 19.1192 14.0233 19.5982 14.0233H21.3335V16.659H19.5982C19.1192 16.659 18.7305 17.0526 18.7305 17.5376V21.0519C18.7305 21.5368 19.1192 21.9305 19.5982 21.9305H28.275C28.7539 21.9305 29.1427 21.5368 29.1427 21.0519V17.5376C29.1427 17.0526 28.7539 16.659 28.275 16.659H26.5396V7.87321C26.5396 7.38823 26.1509 6.99463 25.6719 6.99463H22.0531C21.6852 6.99463 21.3578 7.2295 21.2352 7.58035C20.9905 8.28087 20.3328 8.75178 19.5982 8.75178C19.1192 8.75178 18.7305 9.14539 18.7305 9.63036ZM20.4658 10.3971C21.363 10.1616 22.1376 9.56886 22.6044 8.75178H24.8043V17.5376C24.8043 18.0225 25.193 18.4161 25.6719 18.4161H27.4073V20.1733H20.4658V18.4161H22.2012C22.6802 18.4161 23.0689 18.0225 23.0689 17.5376V13.1447C23.0689 12.6597 22.6802 12.2661 22.2012 12.2661H20.4658V10.3971Z" fill="#0C1033"/>
<path d="M38.0989 17.2155C38.0174 17.1938 36.5498 16.8125 35.003 17.1189C35.1396 16.4465 35.2148 15.7694 35.2298 15.0946C36.0992 14.7075 37.5858 13.8658 38.2875 12.4196C39.2923 10.3491 38.3274 7.87857 38.2858 7.77431C38.1169 7.35083 37.6553 7.12884 37.2237 7.26415C37.126 7.2946 35.0696 7.95705 33.9086 9.54084C33.5719 8.90767 33.1728 8.29911 32.7112 7.72394C33.0768 6.88167 33.5905 5.28617 33.1092 3.73577C32.4254 1.53523 30.0439 0.420602 29.9427 0.373745C29.5401 0.188657 29.064 0.340359 28.8384 0.725176C28.7818 0.82182 27.4594 3.11608 28.1426 5.31663C28.7471 7.2618 30.6774 8.35827 31.1876 8.61891C36.4827 14.8668 32.0697 24.5663 23.9366 24.5663C15.781 24.5663 11.3494 14.817 16.736 8.56034C17.3578 8.23234 19.1233 7.16282 19.7064 5.326C20.4034 3.12955 19.0949 0.827091 19.0388 0.729862C18.8156 0.343287 18.3406 0.188657 17.9369 0.371402C17.8357 0.417088 15.4472 1.51707 14.7502 3.71293C14.251 5.28676 14.7808 6.91506 15.1424 7.74736C14.69 8.31317 14.2949 8.91295 13.9606 9.53908C12.7904 7.96232 10.7183 7.3807 10.6194 7.35376C10.196 7.23837 9.75405 7.46095 9.58977 7.87212C9.54812 7.97638 8.58153 10.4464 9.58457 12.5175C10.2833 13.9607 11.7601 14.7555 12.6388 15.1181C12.6562 15.7934 12.7331 16.4681 12.869 17.1335C11.3269 16.8213 9.86165 17.1921 9.78066 17.2132C9.32947 17.3309 9.05065 17.7883 9.14841 18.2493C9.17271 18.3629 9.76331 21.0438 11.704 22.2281C12.552 22.7453 13.5065 22.8941 14.3233 22.8941C14.8855 22.8941 15.3824 22.8238 15.7347 22.7547C16.1321 23.1852 16.5596 23.5811 17.0131 23.9402C16.6059 24.0667 16.2004 24.25 15.8215 24.5112C13.938 25.8098 13.5724 28.4402 13.558 28.5521C13.4996 28.9961 13.7801 29.4131 14.2093 29.5209C14.2625 29.5344 14.911 29.6919 15.781 29.6919C16.673 29.6919 17.7981 29.5262 18.7513 28.8684C19.9013 28.0753 20.4856 26.7856 20.769 25.876C21.7767 26.1688 22.8399 26.3229 23.936 26.3229C25.0172 26.3229 26.0665 26.1729 27.0614 25.8877C27.3495 26.7961 27.9488 28.1146 29.1311 28.9094C30.0625 29.5355 31.1488 29.6984 32.0269 29.6984C32.9391 29.6984 33.6269 29.5226 33.6813 29.5086C34.1093 29.3961 34.3853 28.975 34.3216 28.5322C34.306 28.4209 33.9098 25.7945 32.0113 24.5188C31.6335 24.2646 31.2298 24.0872 30.8249 23.9659C31.2986 23.594 31.744 23.1811 32.1565 22.7318C32.5192 22.8044 33.012 22.8753 33.5656 22.8753C34.3708 22.8753 35.3038 22.7265 36.1461 22.2199C38.0943 21.0479 38.6994 18.3694 38.7242 18.2558C38.8249 17.7942 38.549 17.3356 38.0989 17.2155ZM17.7749 27.4164C17.0709 27.9014 16.1535 27.9652 15.4906 27.9289C15.7 27.2905 16.0945 26.4494 16.7985 25.9644C17.5019 25.4794 18.4193 25.4156 19.0816 25.4519C18.8705 26.0903 18.4754 26.9332 17.7749 27.4164ZM16.4022 4.25121C16.6625 3.43061 17.3474 2.80975 17.8923 2.42552C18.1139 3.06044 18.314 3.97123 18.0543 4.78831C17.794 5.6089 17.1085 6.23035 16.5636 6.61458C16.3415 5.98083 16.1419 5.0718 16.4022 4.25121ZM11.1423 11.7449C10.764 10.9641 10.8369 10.0264 10.9682 9.36571C11.5947 9.66384 12.4225 10.1851 12.8031 10.9712C12.9228 11.2189 13.005 11.5012 13.0472 11.8111C12.9165 12.2779 12.8164 12.7535 12.7476 13.235C12.1188 12.8994 11.4593 12.3991 11.1423 11.7449ZM12.5995 20.724C11.8689 20.2782 11.405 19.4336 11.1389 18.7806C11.8255 18.7308 12.7643 18.7729 13.4955 19.2193C13.4978 19.2204 13.5001 19.2222 13.5024 19.2239C13.5441 19.3259 13.5869 19.4278 13.6314 19.5291C13.8802 20.0949 14.1677 20.6314 14.4899 21.1369C13.89 21.1568 13.182 21.0795 12.5995 20.724ZM32.3815 27.9301C31.718 27.9734 30.7983 27.9213 30.0914 27.4463C29.3822 26.9695 28.9784 26.1337 28.7615 25.4982C29.425 25.4548 30.3447 25.507 31.0516 25.982C31.7602 26.4587 32.1646 27.2946 32.3815 27.9301ZM35.0701 10.9694C35.4554 10.1752 36.2809 9.62401 36.9125 9.29835C37.0392 9.95728 37.1023 10.8769 36.7297 11.6442C36.4093 12.3054 35.7452 12.8302 35.1112 13.1928C35.0435 12.733 34.9469 12.2773 34.8226 11.8281C34.8642 11.5112 34.9475 11.2224 35.0701 10.9694ZM29.7981 4.79007C29.5424 3.96772 29.7478 3.05985 29.974 2.42728C30.5165 2.81502 31.1985 3.44057 31.4536 4.26292C31.7087 5.08527 31.504 5.99313 31.2778 6.62571C30.7352 6.23797 30.0538 5.61242 29.7981 4.79007ZM35.2599 20.7082C34.6814 21.0561 33.9861 21.1328 33.3944 21.1111C33.7085 20.615 33.9896 20.0885 34.2331 19.5344C34.2823 19.4219 34.3297 19.3089 34.3754 19.1958C35.1083 18.756 36.0443 18.7196 36.7292 18.7729C36.459 19.426 35.9899 20.2689 35.2599 20.7082Z" fill="#1F5A7B"/>
</g>
<defs>
<clipPath id="clip0">
<rect width="49" height="30" fill="white"/>
</clipPath>
</defs>
</svg>
