<svg width="49" height="30" viewBox="0 0 49 30" fill="none" xmlns="http://www.w3.org/2000/svg">
<g clip-path="url(#clip0)">
<path d="M18.026 7.38504C21.4093 4.74363 26.7247 4.6364 30.242 7.61355C31.6593 8.81356 32.6007 10.3897 32.8913 12.0526C33.2547 14.1309 32.7 16.2028 31.3287 17.8874C27.5773 22.494 28.0533 26.1526 28.0013 26.4239C28.0013 27.3866 27.5873 28.2872 26.8353 28.9581C26.082 29.6296 25.0753 29.9999 24.0007 29.9999C21.7953 29.9999 20.0007 28.4226 20.0007 26.4843C19.9547 26.2341 20.408 22.2181 16.822 18.0649C15.6307 16.6845 15.0007 15.0374 15.0007 13.3007C15.0007 11.0419 16.1033 8.88563 18.026 7.38504ZM24.0007 28.2421C25.1 28.2421 25.9647 27.4745 25.9993 26.4843H22.0007C22.0007 27.4534 22.898 28.2421 24.0007 28.2421ZM18.4153 17.002C20.416 19.3194 21.612 21.9655 21.92 24.7265H26.0913C26.422 22.0704 27.6533 19.3792 29.702 16.8638C30.768 15.5554 31.198 13.9411 30.9147 12.3192C30.4287 9.54012 27.5993 7.14773 23.9913 7.14773C20.0807 7.14773 17.0007 9.95379 17.0007 13.3007C17.0007 14.6501 17.49 15.9304 18.4153 17.002Z" fill="#1F5A7B"/>
<path d="M24 3.63281C23.448 3.63281 23 3.23906 23 2.75391V0.878906C23 0.39375 23.448 0 24 0C24.552 0 25 0.39375 25 0.878906V2.75391C25 3.23906 24.552 3.63281 24 3.63281Z" fill="#0C1033"/>
<path d="M13.1054 8.78862L11.3734 7.90971C10.8954 7.66714 10.7314 7.12925 11.0074 6.70913C11.2834 6.28843 11.8954 6.14487 12.3734 6.38745L14.1054 7.26636C14.5834 7.50893 14.7474 8.04682 14.4714 8.46694C14.1941 8.8894 13.5821 9.03003 13.1054 8.78862Z" fill="#0C1033"/>
<path d="M34.893 17.8131L36.625 18.692C37.103 18.9346 37.267 19.4725 36.991 19.8926C36.7136 20.3151 36.101 20.4557 35.625 20.2143L33.893 19.3354C33.415 19.0928 33.251 18.5549 33.527 18.1348C33.803 17.7147 34.4143 17.5705 34.893 17.8131Z" fill="#0C1033"/>
<path d="M18.5 4.92844C18.024 5.16984 17.4113 5.02922 17.134 4.60676L16.134 3.08449C15.858 2.66437 16.022 2.12648 16.5 1.88391C16.978 1.64133 17.59 1.78547 17.866 2.20558L18.866 3.72785C19.142 4.14797 18.978 4.68527 18.5 4.92844Z" fill="#0C1033"/>
<path d="M30.866 4.60627C30.5886 5.02873 29.976 5.16935 29.5 4.92795C29.022 4.68537 28.858 4.14748 29.134 3.72736L30.134 2.2051C30.41 1.78498 31.022 1.64084 31.5 1.88342C31.978 2.12599 32.142 2.66389 31.866 3.084L30.866 4.60627Z" fill="#0C1033"/>
<path d="M11.3774 18.692L13.1094 17.8131C13.5874 17.5705 14.1994 17.7147 14.4754 18.1348C14.7514 18.5549 14.5874 19.0928 14.1094 19.3354L12.3774 20.2143C11.9014 20.4557 11.2887 20.3151 11.0114 19.8926C10.7347 19.4725 10.8987 18.9346 11.3774 18.692Z" fill="#0C1033"/>
<path d="M33.893 7.26623L35.625 6.38732C36.1036 6.14475 36.715 6.28889 36.991 6.709C37.267 7.12912 37.103 7.66701 36.625 7.90959L34.893 8.78849C34.417 9.0299 33.8043 8.88927 33.527 8.46681C33.2503 8.0467 33.4143 7.50881 33.893 7.26623Z" fill="#0C1033"/>
<path d="M10 12.4219H12C12.552 12.4219 13 12.8156 13 13.3008C13 13.7859 12.552 14.1797 12 14.1797H10C9.448 14.1797 9 13.7859 9 13.3008C9 12.8156 9.448 12.4219 10 12.4219Z" fill="#0C1033"/>
<path d="M35 13.3008C35 12.8156 35.448 12.4219 36 12.4219H38C38.552 12.4219 39 12.8156 39 13.3008C39 13.7859 38.552 14.1797 38 14.1797H36C35.448 14.1797 35 13.7859 35 13.3008Z" fill="#0C1033"/>
<path d="M22.7077 12.6789L24.0003 13.8156L25.293 12.6795C25.6837 12.3361 26.3163 12.3361 26.707 12.6795C27.0977 13.0229 27.0977 13.5789 26.707 13.9223L25.0003 15.4223V18.574C25.0003 19.0592 24.5523 19.4529 24.0003 19.4529C23.4483 19.4529 23.0003 19.0592 23.0003 18.574V15.4223L21.293 13.9217C20.9023 13.5783 20.9023 13.0223 21.293 12.6789C21.6837 12.3355 22.317 12.3355 22.7077 12.6789Z" fill="#0C1033"/>
</g>
<defs>
<clipPath id="clip0">
<rect width="49" height="30" fill="white"/>
</clipPath>
</defs>
</svg>
