<svg width="30" height="28" viewBox="0 0 30 28" fill="none" xmlns="http://www.w3.org/2000/svg">
<path d="M29.1211 7H21.1523V6.125C21.1523 5.642 20.7586 5.25 20.2734 5.25H19.3945V4.375C19.3945 1.96292 17.4234 0 15 0C12.5766 0 10.6055 1.96292 10.6055 4.375V5.25H9.72656C9.24141 5.25 8.84766 5.642 8.84766 6.125V7H0.878906C0.39375 7 0 7.392 0 7.875V27.125C0 27.608 0.39375 28 0.878906 28H29.1211C29.6063 28 30 27.608 30 27.125V7.875C30 7.392 29.6063 7 29.1211 7ZM10.6055 7H11.4844C11.9695 7 12.3633 6.608 12.3633 6.125V4.375C12.3633 2.92775 13.5463 1.75 15 1.75C16.4537 1.75 17.6367 2.92775 17.6367 4.375V6.125C17.6367 6.608 18.0305 7 18.5156 7H19.3945V8.75H10.6055V7ZM28.2422 26.25H1.75781V8.75H8.84766V9.625C8.84766 10.108 9.24141 10.5 9.72656 10.5H20.2734C20.7586 10.5 21.1523 10.108 21.1523 9.625V8.75H28.2422V26.25Z" fill="#0C1033"/>
<path d="M21.5437 13.8529L21.7652 13.9999H16.7578C15.3041 13.9999 14.1211 15.1776 14.1211 16.6249V20.1249C14.1211 20.6073 13.7268 20.9999 13.2422 20.9999H8.69648C8.33379 19.9814 7.35703 19.2499 6.21094 19.2499C4.75723 19.2499 3.57422 20.4276 3.57422 21.8749C3.57422 23.3221 4.75723 24.4999 6.21094 24.4999C7.35703 24.4999 8.33379 23.7684 8.69648 22.7499H13.2422C14.6959 22.7499 15.8789 21.5721 15.8789 20.1249V16.6249C15.8789 16.1425 16.2732 15.7499 16.7578 15.7499H21.7652L21.5437 15.8969C21.14 16.1652 21.0305 16.7083 21.3 17.1102C21.5707 17.5145 22.1168 17.6195 22.5188 17.3529L25.1555 15.6029C25.3998 15.4407 25.5469 15.1671 25.5469 14.8749C25.5469 14.5826 25.3998 14.309 25.1555 14.1469L22.5188 12.3969C22.115 12.1291 21.5689 12.2376 21.3 12.6395C21.0305 13.0415 21.14 13.5851 21.5437 13.8529ZM6.21094 22.7499C5.72637 22.7499 5.33203 22.3573 5.33203 21.8749C5.33203 21.3925 5.72637 20.9999 6.21094 20.9999C6.69551 20.9999 7.08984 21.3925 7.08984 21.8749C7.08984 22.3573 6.69551 22.7499 6.21094 22.7499Z" fill="#1F5A7B"/>
<path d="M24.4105 19.5059C24.0671 19.1641 23.5105 19.1641 23.1677 19.5059L22.031 20.6376L20.8948 19.5065C20.5515 19.1646 19.9948 19.1646 19.6521 19.5065C19.3093 19.8483 19.3087 20.4025 19.6521 20.7437L20.7882 21.8748L19.6521 23.0059C19.3087 23.3477 19.3087 23.9019 19.6521 24.2431C19.9954 24.585 20.5521 24.585 20.8948 24.2431L22.031 23.112L23.1671 24.2431C23.5105 24.585 24.0671 24.585 24.4099 24.2431C24.7532 23.9013 24.7532 23.3471 24.4099 23.0059L23.2737 21.8748L24.4099 20.7437C24.7532 20.4019 24.7532 19.8477 24.4105 19.5059Z" fill="#1F5A7B"/>
<path d="M7.34685 17.2441C7.69021 17.586 8.24627 17.586 8.58962 17.2441L9.72634 16.1125L10.8625 17.2435C11.2058 17.5854 11.7619 17.5854 12.1052 17.2435C12.4486 16.9017 12.4486 16.3475 12.1052 16.0063L10.9691 14.8752L12.1052 13.7441C12.4486 13.4023 12.4486 12.8487 12.1052 12.5069C11.7619 12.165 11.2058 12.165 10.8625 12.5069L9.72634 13.6379L8.59021 12.5069C8.24685 12.165 7.6908 12.165 7.34744 12.5069C7.00408 12.8487 7.00408 13.4023 7.34744 13.7441L8.48357 14.8752L7.34744 16.0063C7.00408 16.3481 7.00408 16.9023 7.34685 17.2441Z" fill="#1F5A7B"/>
<path d="M15 5.25C15.4854 5.25 15.8789 4.85825 15.8789 4.375C15.8789 3.89175 15.4854 3.5 15 3.5C14.5146 3.5 14.1211 3.89175 14.1211 4.375C14.1211 4.85825 14.5146 5.25 15 5.25Z" fill="#0C1033"/>
</svg>
