<svg width="43" height="26" viewBox="0 0 43 26" fill="none" xmlns="http://www.w3.org/2000/svg">
<path d="M2.97923 4.92529V8.84286V12.4959V12.7604V16.678V20.5955H41.8233V16.678V12.7604V12.4959V8.84286V4.92529H2.97923Z" fill="#FFC400"/>
<path d="M41.8233 18.6865H2.97923V24.5128H41.8233V18.6865Z" fill="#C60B1E"/>
<path d="M41.8233 1.39307H2.97923V7.21934H41.8233V1.39307Z" fill="#C60B1E"/>
<path d="M39.0971 0H6.48317C6.40801 0 6.33284 0.00298937 6.25912 0.00747341V1.50664C6.33284 1.49917 6.40801 1.49468 6.48317 1.49468H39.0971C40.4515 1.49468 41.5545 2.63513 41.5545 4.03564V21.9644C41.5545 23.3649 40.4515 24.5053 39.0971 24.5053H6.48317C6.40801 24.5053 6.33284 24.5008 6.25912 24.4934V25.9925C6.33284 25.997 6.40801 26 6.48317 26H39.0971C41.2495 26 43 24.1899 43 21.9644V4.03564C43 1.81006 41.248 0 39.0971 0Z" fill="white"/>
<path d="M5.82546 26H38.4394C38.5145 26 38.5897 25.997 38.6634 25.9925V24.4934C38.5897 24.5008 38.5145 24.5053 38.4394 24.5053H5.82546C4.471 24.5053 3.36807 23.3649 3.36807 21.9644V4.03564C3.36807 2.63513 4.471 1.49468 5.82546 1.49468H38.4394C38.5145 1.49468 38.5897 1.49917 38.6634 1.50664V0.00747341C38.5883 0.00298937 38.5131 0 38.4379 0H5.82546C3.67308 0 1.92255 1.81006 1.92255 4.03564V21.9644C1.92255 24.1899 3.67308 26 5.82546 26Z" fill="white"/>
</svg>
