<svg width="20" height="30" viewBox="0 0 20 30" fill="none" xmlns="http://www.w3.org/2000/svg">
<path d="M0.543025 16.1706L15.6926 29.5207C16.043 29.8298 16.5108 30 17.0095 30C17.5082 30 17.976 29.8298 18.3264 29.5207L19.442 28.5378C20.168 27.8973 20.168 26.8564 19.442 26.2169L6.72054 15.0062L19.4561 3.78314C19.8065 3.47412 20 3.06217 20 2.6229C20 2.18315 19.8065 1.7712 19.4561 1.46194L18.3405 0.479263C17.9898 0.170241 17.5223 2.16603e-07 17.0236 2.60204e-07C16.5249 3.03806e-07 16.0571 0.170241 15.7067 0.479264L0.543025 13.8416C0.191804 14.1516 -0.0011057 14.5655 2.50384e-06 15.0055C-0.00110563 15.4472 0.191804 15.8608 0.543025 16.1706Z" fill="#1F5A7B"/>
</svg>
