<svg width="32" height="32" viewBox="0 0 32 32" fill="none" xmlns="http://www.w3.org/2000/svg">
<path d="M32 28.8013C32 30.5689 30.5557 32 28.7745 32H3.2255C1.44431 32 0 30.5671 0 28.8013V3.19871C0 1.43289 1.44431 0 3.2255 0H28.7745C30.5576 0 32 1.43289 32 3.19871V28.8013Z" fill="#0C1033"/>
<path d="M10.2878 7.82481C10.2878 9.00018 9.41958 9.95299 7.99221 9.95299C6.64945 9.95299 5.78125 9.00018 5.78125 7.82481C5.78125 6.62184 6.67704 5.69662 8.04923 5.69662C9.41958 5.69662 10.2602 6.62 10.2878 7.82481ZM5.89345 25.3193V11.6305H10.148V25.3193H5.89345Z" fill="white"/>
<path d="M12.6937 15.9972C12.6937 14.2903 12.6385 12.8629 12.5815 11.6305H16.2768L16.4736 13.5343H16.5583C17.1174 12.6385 18.4896 11.3233 20.7852 11.3233C23.5848 11.3233 25.6835 13.1995 25.6835 17.2296V25.3193H21.429V17.7336C21.429 15.9697 20.8128 14.7667 19.2732 14.7667C18.0978 14.7667 17.3989 15.5779 17.0898 16.3614C16.9776 16.641 16.9501 17.0328 16.9501 17.4246V25.3193H12.6937V15.9972Z" fill="white"/>
</svg>
