<svg width="220" height="143" viewBox="0 0 220 143" fill="none" xmlns="http://www.w3.org/2000/svg">
<g clip-path="url(#clip0)">
<path d="M26.7179 117.811C27.3518 118.183 27.3518 118.76 26.7179 119.133C26.084 119.505 25.0585 119.505 24.4246 119.133C23.7907 118.76 23.7907 118.183 24.4246 117.811C25.0585 117.439 26.084 117.439 26.7179 117.811Z" fill="#0C1033"/>
<path d="M32.6827 114.367C33.3166 114.739 33.3166 115.316 32.6827 115.688C32.0488 116.061 31.0234 116.061 30.3895 115.688C29.7556 115.316 29.7556 114.739 30.3895 114.367C31.0234 113.994 32.0488 113.994 32.6827 114.367Z" fill="#0C1033"/>
<path d="M38.6515 110.922C39.2854 111.295 39.2854 111.872 38.6515 112.244C38.0176 112.617 36.9921 112.617 36.3582 112.244C35.7243 111.872 35.7243 111.295 36.3582 110.922C37.0108 110.55 38.0362 110.55 38.6515 110.922Z" fill="#0C1033"/>
<path d="M44.6358 107.478C45.2697 107.85 45.2697 108.427 44.6358 108.8C44.0019 109.172 42.9765 109.172 42.3426 108.8C41.7087 108.427 41.7087 107.85 42.3426 107.478C42.9765 107.106 44.0019 107.106 44.6358 107.478Z" fill="#0C1033"/>
<path d="M50.6007 104.034C51.2346 104.406 51.2346 104.984 50.6007 105.356C49.9668 105.728 48.9414 105.728 48.3075 105.356C47.6736 104.984 47.6736 104.406 48.3075 104.034C48.96 103.662 49.9854 103.662 50.6007 104.034Z" fill="#0C1033"/>
<path d="M55.4502 102.172C56.346 102.172 57.0722 101.756 57.0722 101.241C57.0722 100.727 56.346 100.311 55.4502 100.311C54.5543 100.311 53.8281 100.727 53.8281 101.241C53.8281 101.756 54.5543 102.172 55.4502 102.172Z" fill="#0C1033"/>
<path d="M62.5538 97.1455C63.1877 97.5178 63.1877 98.095 62.5538 98.4673C61.9199 98.8397 60.8945 98.8397 60.2606 98.4673C59.6267 98.095 59.6267 97.5178 60.2606 97.1455C60.9131 96.7731 61.9199 96.7731 62.5538 97.1455Z" fill="#0C1033"/>
<path d="M18.4403 114.367C19.0742 113.994 20.0996 113.994 20.7335 114.367C21.3674 114.739 21.3674 115.316 20.7335 115.688C20.0996 116.061 19.0742 116.061 18.4403 115.688C17.8064 115.335 17.8064 114.739 18.4403 114.367Z" fill="#0C1033"/>
<path d="M26.7179 110.922C27.3518 111.295 27.3518 111.872 26.7179 112.244C26.084 112.617 25.0585 112.617 24.4246 112.244C23.7907 111.872 23.7907 111.295 24.4246 110.922C25.0585 110.55 26.084 110.55 26.7179 110.922Z" fill="#0C1033"/>
<path d="M32.6827 107.478C33.3166 107.85 33.3166 108.427 32.6827 108.8C32.0488 109.172 31.0234 109.172 30.3895 108.8C29.7556 108.427 29.7556 107.85 30.3895 107.478C31.0234 107.106 32.0488 107.106 32.6827 107.478Z" fill="#0C1033"/>
<path d="M38.6515 104.034C39.2854 104.406 39.2854 104.984 38.6515 105.356C38.0176 105.728 36.9921 105.728 36.3582 105.356C35.7243 104.984 35.7243 104.406 36.3582 104.034C37.0108 103.662 38.0362 103.662 38.6515 104.034Z" fill="#0C1033"/>
<path d="M44.6358 100.59C45.2697 100.962 45.2697 101.539 44.6358 101.912C44.0019 102.284 42.9765 102.284 42.3426 101.912C41.7087 101.539 41.7087 100.962 42.3426 100.59C42.9765 100.217 44.0019 100.217 44.6358 100.59Z" fill="#0C1033"/>
<path d="M50.6007 97.1455C51.2346 97.5178 51.2346 98.095 50.6007 98.4673C49.9668 98.8397 48.9414 98.8397 48.3075 98.4673C47.6736 98.095 47.6736 97.5178 48.3075 97.1455C48.96 96.7731 49.9854 96.7731 50.6007 97.1455Z" fill="#0C1033"/>
<path d="M12.4754 110.922C13.1093 110.55 14.1347 110.55 14.7686 110.922C15.4025 111.276 15.4025 111.872 14.7686 112.244C14.1347 112.617 13.1093 112.617 12.4754 112.244C11.8415 111.89 11.8415 111.295 12.4754 110.922Z" fill="#0C1033"/>
<path d="M20.7335 107.478C21.3674 107.85 21.3674 108.427 20.7335 108.8C20.0996 109.172 19.0742 109.172 18.4403 108.8C17.8064 108.427 17.8064 107.85 18.4403 107.478C19.0742 107.106 20.0996 107.106 20.7335 107.478Z" fill="#0C1033"/>
<path d="M26.7179 104.034C27.3518 104.406 27.3518 104.984 26.7179 105.356C26.084 105.728 25.0585 105.728 24.4246 105.356C23.7907 104.984 23.7907 104.406 24.4246 104.034C25.0585 103.662 26.084 103.662 26.7179 104.034Z" fill="#0C1033"/>
<path d="M32.6827 100.59C33.3166 100.962 33.3166 101.539 32.6827 101.912C32.0488 102.284 31.0234 102.284 30.3895 101.912C29.7556 101.539 29.7556 100.962 30.3895 100.59C31.0234 100.217 32.0488 100.217 32.6827 100.59Z" fill="#0C1033"/>
<path d="M38.6515 97.1455C39.2854 97.5178 39.2854 98.095 38.6515 98.4673C38.0176 98.8397 36.9921 98.8397 36.3582 98.4673C35.7243 98.095 35.7243 97.5178 36.3582 97.1455C37.0108 96.7731 38.0362 96.7731 38.6515 97.1455Z" fill="#0C1033"/>
<path d="M6.48799 107.478C7.12189 107.106 8.14731 107.106 8.78121 107.478C9.41511 107.85 9.41511 108.427 8.78121 108.8C8.14731 109.172 7.12189 109.172 6.48799 108.8C5.87274 108.427 5.85409 107.85 6.48799 107.478Z" fill="#0C1033"/>
<path d="M14.7686 104.034C15.4025 104.406 15.4025 104.984 14.7686 105.356C14.1347 105.728 13.1093 105.728 12.4754 105.356C11.8415 104.984 11.8415 104.406 12.4754 104.034C13.1093 103.662 14.1347 103.662 14.7686 104.034Z" fill="#0C1033"/>
<path d="M20.7335 100.59C21.3674 100.962 21.3674 101.539 20.7335 101.912C20.0996 102.284 19.0742 102.284 18.4403 101.912C17.8064 101.539 17.8064 100.962 18.4403 100.59C19.0742 100.217 20.0996 100.217 20.7335 100.59Z" fill="#0C1033"/>
<path d="M26.7179 97.1455C27.3518 97.5178 27.3518 98.095 26.7179 98.4673C26.084 98.8397 25.0585 98.8397 24.4246 98.4673C23.7907 98.095 23.7907 97.5178 24.4246 97.1455C25.0585 96.7731 26.084 96.7731 26.7179 97.1455Z" fill="#0C1033"/>
<path d="M0.522299 104.034C1.1562 103.662 2.18162 103.662 2.81552 104.034C3.44942 104.406 3.44942 104.984 2.81552 105.356C2.18162 105.728 1.1562 105.728 0.522299 105.356C-0.1116 104.984 -0.1116 104.406 0.522299 104.034Z" fill="#0C1033"/>
<path d="M8.78427 100.59C9.41817 100.962 9.41817 101.539 8.78427 101.912C8.15037 102.284 7.12495 102.284 6.49105 101.912C5.85715 101.539 5.85715 100.962 6.49105 100.59C7.12495 100.217 8.15037 100.217 8.78427 100.59Z" fill="#0C1033"/>
<path d="M14.7686 97.1455C15.4025 97.5178 15.4025 98.095 14.7686 98.4673C14.1347 98.8397 13.1093 98.8397 12.4754 98.4673C11.8415 98.095 11.8415 97.5178 12.4754 97.1455C13.1093 96.7731 14.1347 96.7731 14.7686 97.1455Z" fill="#0C1033"/>
<path d="M2.76083 97.1084C3.39473 97.4807 3.39473 98.0578 2.76083 98.4302C2.12693 98.8025 1.10151 98.8025 0.467611 98.4302C-0.166287 98.0578 -0.166287 97.4807 0.467611 97.1084C1.10151 96.736 2.12693 96.736 2.76083 97.1084Z" fill="#0C1033"/>
<path d="M8.72567 93.664C9.35957 94.0364 9.35957 94.6135 8.72567 94.9859C8.09178 95.3582 7.06635 95.3582 6.43245 94.9859C5.79856 94.6135 5.79856 94.0364 6.43245 93.664C7.085 93.2917 8.11042 93.2917 8.72567 93.664Z" fill="#0C1033"/>
<path d="M80.7686 141.399C81.4025 141.771 81.4025 142.349 80.7686 142.721C80.1347 143.093 79.1093 143.093 78.4754 142.721C77.8415 142.349 77.8415 141.771 78.4754 141.399C79.1093 141.045 80.1347 141.045 80.7686 141.399Z" fill="#0C1033"/>
<path d="M86.7335 137.955C87.3674 138.327 87.3674 138.904 86.7335 139.277C86.0996 139.649 85.0742 139.649 84.4403 139.277C83.8064 138.904 83.8064 138.327 84.4403 137.955C85.0928 137.601 86.1182 137.601 86.7335 137.955Z" fill="#0C1033"/>
<path d="M92.7179 134.51C93.3518 134.883 93.3518 135.46 92.7179 135.832C92.084 136.205 91.0585 136.205 90.4246 135.832C89.7907 135.46 89.7907 134.883 90.4246 134.51C91.0585 134.157 92.084 134.157 92.7179 134.51Z" fill="#0C1033"/>
<path d="M98.6827 131.066C99.3166 131.438 99.3166 132.016 98.6827 132.388C98.0488 132.76 97.0234 132.76 96.3895 132.388C95.7556 132.016 95.7556 131.438 96.3895 131.066C97.042 130.712 98.0488 130.712 98.6827 131.066Z" fill="#0C1033"/>
<path d="M104.671 127.622C105.305 127.995 105.305 128.572 104.671 128.944C104.037 129.316 103.012 129.316 102.378 128.944C101.744 128.572 101.744 127.995 102.378 127.622C103.012 127.269 104.037 127.269 104.671 127.622Z" fill="#0C1033"/>
<path d="M110.636 124.178C111.27 124.55 111.27 125.127 110.636 125.5C110.002 125.872 108.977 125.872 108.343 125.5C107.709 125.127 107.709 124.55 108.343 124.178C108.977 123.824 110.002 123.824 110.636 124.178Z" fill="#0C1033"/>
<path d="M115.466 122.335C116.362 122.335 117.088 121.918 117.088 121.404C117.088 120.89 116.362 120.473 115.466 120.473C114.57 120.473 113.844 120.89 113.844 121.404C113.844 121.918 114.57 122.335 115.466 122.335Z" fill="#0C1033"/>
<path d="M121.45 118.891C122.346 118.891 123.072 118.474 123.072 117.96C123.072 117.446 122.346 117.029 121.45 117.029C120.554 117.029 119.828 117.446 119.828 117.96C119.828 118.474 120.554 118.891 121.45 118.891Z" fill="#0C1033"/>
<path d="M128.569 113.845C129.203 114.218 129.203 114.795 128.569 115.167C127.936 115.54 126.91 115.54 126.276 115.167C125.642 114.795 125.642 114.218 126.276 113.845C126.91 113.492 127.936 113.492 128.569 113.845Z" fill="#0C1033"/>
<path d="M134.538 110.401C135.172 110.773 135.172 111.351 134.538 111.723C133.904 112.095 132.879 112.095 132.245 111.723C131.611 111.351 131.611 110.773 132.245 110.401C132.879 110.047 133.904 110.047 134.538 110.401Z" fill="#0C1033"/>
<path d="M140.503 106.957C141.137 107.329 141.137 107.906 140.503 108.279C139.869 108.651 138.844 108.651 138.21 108.279C137.576 107.906 137.576 107.329 138.21 106.957C138.844 106.585 139.888 106.603 140.503 106.957Z" fill="#0C1033"/>
<path d="M146.487 103.512C147.121 103.885 147.121 104.462 146.487 104.834C145.854 105.207 144.828 105.207 144.194 104.834C143.56 104.462 143.56 103.885 144.194 103.512C144.828 103.159 145.854 103.159 146.487 103.512Z" fill="#0C1033"/>
<path d="M152.452 100.069C153.086 100.441 153.086 101.018 152.452 101.39C151.818 101.763 150.793 101.763 150.159 101.39C149.525 101.018 149.525 100.441 150.159 100.069C150.812 99.7148 151.837 99.7148 152.452 100.069Z" fill="#0C1033"/>
<path d="M158.441 96.6242C159.074 96.9965 159.074 97.5737 158.441 97.946C157.807 98.3184 156.781 98.3184 156.147 97.946C155.513 97.5737 155.513 96.9965 156.147 96.6242C156.781 96.2705 157.807 96.2705 158.441 96.6242Z" fill="#0C1033"/>
<path d="M163.267 94.7812C164.162 94.7812 164.889 94.3644 164.889 93.8503C164.889 93.3362 164.162 92.9194 163.267 92.9194C162.371 92.9194 161.645 93.3362 161.645 93.8503C161.645 94.3644 162.371 94.7812 163.267 94.7812Z" fill="#0C1033"/>
<path d="M170.39 89.736C171.024 90.1083 171.024 90.6855 170.39 91.0578C169.756 91.4302 168.73 91.4302 168.097 91.0578C167.463 90.6855 167.463 90.1083 168.097 89.736C168.73 89.3823 169.756 89.3823 170.39 89.736Z" fill="#0C1033"/>
<path d="M66.5223 141.417C67.1562 141.045 68.1816 141.045 68.8155 141.417C69.4494 141.79 69.4494 142.367 68.8155 142.739C68.1816 143.112 67.1562 143.112 66.5223 142.739C65.8884 142.367 65.8884 141.771 66.5223 141.417Z" fill="#0C1033"/>
<path d="M74.7843 137.955C75.4182 138.327 75.4182 138.904 74.7843 139.277C74.1504 139.649 73.1249 139.649 72.491 139.277C71.8572 138.904 71.8572 138.327 72.491 137.955C73.1436 137.601 74.169 137.601 74.7843 137.955Z" fill="#0C1033"/>
<path d="M80.7686 134.51C81.4025 134.883 81.4025 135.46 80.7686 135.832C80.1347 136.205 79.1093 136.205 78.4754 135.832C77.8415 135.46 77.8415 134.883 78.4754 134.51C79.1093 134.157 80.1347 134.157 80.7686 134.51Z" fill="#0C1033"/>
<path d="M86.7335 131.066C87.3674 131.438 87.3674 132.016 86.7335 132.388C86.0996 132.76 85.0742 132.76 84.4403 132.388C83.8064 132.016 83.8064 131.438 84.4403 131.066C85.0928 130.712 86.1182 130.712 86.7335 131.066Z" fill="#0C1033"/>
<path d="M92.7179 127.622C93.3518 127.995 93.3518 128.572 92.7179 128.944C92.084 129.316 91.0585 129.316 90.4246 128.944C89.7907 128.572 89.7907 127.995 90.4246 127.622C91.0585 127.269 92.084 127.269 92.7179 127.622Z" fill="#0C1033"/>
<path d="M98.6827 124.178C99.3166 124.55 99.3166 125.127 98.6827 125.5C98.0488 125.872 97.0234 125.872 96.3895 125.5C95.7556 125.127 95.7556 124.55 96.3895 124.178C97.042 123.824 98.0488 123.824 98.6827 124.178Z" fill="#0C1033"/>
<path d="M104.671 120.734C105.305 121.106 105.305 121.683 104.671 122.055C104.037 122.428 103.012 122.428 102.378 122.055C101.744 121.683 101.744 121.106 102.378 120.734C103.012 120.38 104.037 120.38 104.671 120.734Z" fill="#0C1033"/>
<path d="M110.636 117.29C111.27 117.662 111.27 118.239 110.636 118.612C110.002 118.984 108.977 118.984 108.343 118.612C107.709 118.239 107.709 117.662 108.343 117.29C108.977 116.936 110.002 116.936 110.636 117.29Z" fill="#0C1033"/>
<path d="M116.62 113.845C117.254 114.218 117.254 114.795 116.62 115.167C115.986 115.54 114.961 115.54 114.327 115.167C113.693 114.795 113.693 114.218 114.327 113.845C114.961 113.492 115.986 113.492 116.62 113.845Z" fill="#0C1033"/>
<path d="M122.585 110.401C123.219 110.773 123.219 111.351 122.585 111.723C121.951 112.095 120.926 112.095 120.292 111.723C119.658 111.351 119.658 110.773 120.292 110.401C120.926 110.047 121.951 110.047 122.585 110.401Z" fill="#0C1033"/>
<path d="M128.569 106.957C129.203 107.329 129.203 107.906 128.569 108.279C127.936 108.651 126.91 108.651 126.276 108.279C125.642 107.906 125.642 107.329 126.276 106.957C126.91 106.603 127.936 106.603 128.569 106.957Z" fill="#0C1033"/>
<path d="M134.538 103.512C135.172 103.885 135.172 104.462 134.538 104.834C133.904 105.207 132.879 105.207 132.245 104.834C131.611 104.462 131.611 103.885 132.245 103.512C132.879 103.159 133.904 103.159 134.538 103.512Z" fill="#0C1033"/>
<path d="M140.503 100.069C141.137 100.441 141.137 101.018 140.503 101.39C139.869 101.763 138.844 101.763 138.21 101.39C137.576 101.018 137.576 100.441 138.21 100.069C138.862 99.7148 139.888 99.7148 140.503 100.069Z" fill="#0C1033"/>
<path d="M146.487 96.6242C147.121 96.9965 147.121 97.5737 146.487 97.946C145.854 98.3184 144.828 98.3184 144.194 97.946C143.56 97.5737 143.56 96.9965 144.194 96.6242C144.828 96.2705 145.854 96.2705 146.487 96.6242Z" fill="#0C1033"/>
<path d="M152.452 93.1803C153.086 93.5527 153.086 94.1298 152.452 94.5022C151.818 94.8745 150.793 94.8745 150.159 94.5022C149.525 94.1298 149.525 93.5527 150.159 93.1803C150.812 92.8266 151.837 92.8266 152.452 93.1803Z" fill="#0C1033"/>
<path d="M158.441 89.736C159.074 90.1083 159.074 90.6855 158.441 91.0578C157.807 91.4302 156.781 91.4302 156.147 91.0578C155.513 90.6855 155.513 90.1083 156.147 89.736C156.781 89.3823 157.807 89.3823 158.441 89.736Z" fill="#0C1033"/>
<path d="M164.405 86.2917C165.039 86.664 165.039 87.2411 164.405 87.6135C163.771 87.9858 162.746 87.9858 162.112 87.6135C161.478 87.2411 161.478 86.664 162.112 86.2917C162.765 85.9379 163.771 85.9379 164.405 86.2917Z" fill="#0C1033"/>
<path d="M60.5575 137.974C61.1914 137.601 62.2168 137.601 62.8507 137.974C63.4846 138.327 63.4846 138.923 62.8507 139.295C62.2168 139.668 61.1914 139.668 60.5575 139.295C59.9236 138.923 59.9236 138.327 60.5575 137.974Z" fill="#0C1033"/>
<path d="M68.8155 134.51C69.4494 134.883 69.4494 135.46 68.8155 135.832C68.1816 136.205 67.1562 136.205 66.5223 135.832C65.8884 135.46 65.8884 134.883 66.5223 134.51C67.1562 134.157 68.1816 134.157 68.8155 134.51Z" fill="#0C1033"/>
<path d="M74.7843 131.066C75.4182 131.438 75.4182 132.016 74.7843 132.388C74.1504 132.76 73.1249 132.76 72.491 132.388C71.8572 132.016 71.8572 131.438 72.491 131.066C73.1436 130.712 74.169 130.712 74.7843 131.066Z" fill="#0C1033"/>
<path d="M80.7686 127.622C81.4025 127.995 81.4025 128.572 80.7686 128.944C80.1347 129.316 79.1093 129.316 78.4754 128.944C77.8415 128.572 77.8415 127.995 78.4754 127.622C79.1093 127.269 80.1347 127.269 80.7686 127.622Z" fill="#0C1033"/>
<path d="M86.7335 124.178C87.3674 124.55 87.3674 125.127 86.7335 125.5C86.0996 125.872 85.0742 125.872 84.4403 125.5C83.8064 125.127 83.8064 124.55 84.4403 124.178C85.0928 123.824 86.1182 123.824 86.7335 124.178Z" fill="#0C1033"/>
<path d="M92.7179 120.734C93.3518 121.106 93.3518 121.683 92.7179 122.055C92.084 122.428 91.0585 122.428 90.4246 122.055C89.7907 121.683 89.7907 121.106 90.4246 120.734C91.0585 120.38 92.084 120.38 92.7179 120.734Z" fill="#0C1033"/>
<path d="M98.6827 117.29C99.3166 117.662 99.3166 118.239 98.6827 118.612C98.0488 118.984 97.0234 118.984 96.3895 118.612C95.7556 118.239 95.7556 117.662 96.3895 117.29C97.042 116.936 98.0488 116.936 98.6827 117.29Z" fill="#0C1033"/>
<path d="M104.671 113.845C105.305 114.218 105.305 114.795 104.671 115.167C104.037 115.54 103.012 115.54 102.378 115.167C101.744 114.795 101.744 114.218 102.378 113.845C103.012 113.492 104.037 113.492 104.671 113.845Z" fill="#0C1033"/>
<path d="M110.636 110.401C111.27 110.773 111.27 111.351 110.636 111.723C110.002 112.095 108.977 112.095 108.343 111.723C107.709 111.351 107.709 110.773 108.343 110.401C108.977 110.047 110.002 110.047 110.636 110.401Z" fill="#0C1033"/>
<path d="M116.62 106.957C117.254 107.329 117.254 107.906 116.62 108.279C115.986 108.651 114.961 108.651 114.327 108.279C113.693 107.906 113.693 107.329 114.327 106.957C114.961 106.603 115.986 106.603 116.62 106.957Z" fill="#0C1033"/>
<path d="M122.585 103.512C123.219 103.885 123.219 104.462 122.585 104.834C121.951 105.207 120.926 105.207 120.292 104.834C119.658 104.462 119.658 103.885 120.292 103.512C120.926 103.159 121.951 103.159 122.585 103.512Z" fill="#0C1033"/>
<path d="M128.569 100.069C129.203 100.441 129.203 101.018 128.569 101.39C127.936 101.763 126.91 101.763 126.276 101.39C125.642 101.018 125.642 100.441 126.276 100.069C126.91 99.7148 127.936 99.7148 128.569 100.069Z" fill="#0C1033"/>
<path d="M134.538 96.6242C135.172 96.9965 135.172 97.5737 134.538 97.946C133.904 98.3184 132.879 98.3184 132.245 97.946C131.611 97.5737 131.611 96.9965 132.245 96.6242C132.879 96.2705 133.904 96.2705 134.538 96.6242Z" fill="#0C1033"/>
<path d="M140.503 93.1803C141.137 93.5527 141.137 94.1298 140.503 94.5022C139.869 94.8745 138.844 94.8745 138.21 94.5022C137.576 94.1298 137.576 93.5527 138.21 93.1803C138.862 92.8266 139.888 92.8266 140.503 93.1803Z" fill="#0C1033"/>
<path d="M146.487 89.736C147.121 90.1083 147.121 90.6855 146.487 91.0578C145.854 91.4302 144.828 91.4302 144.194 91.0578C143.56 90.6855 143.56 90.1083 144.194 89.736C144.828 89.3823 145.854 89.3823 146.487 89.736Z" fill="#0C1033"/>
<path d="M152.452 86.2917C153.086 86.664 153.086 87.2411 152.452 87.6135C151.818 87.9858 150.793 87.9858 150.159 87.6135C149.525 87.2411 149.525 86.664 150.159 86.2917C150.812 85.9379 151.837 85.9379 152.452 86.2917Z" fill="#0C1033"/>
<path d="M158.441 82.8473C159.074 83.2197 159.074 83.7968 158.441 84.1692C157.807 84.5415 156.781 84.5415 156.147 84.1692C155.513 83.7968 155.513 83.2197 156.147 82.8473C156.781 82.4936 157.807 82.4936 158.441 82.8473Z" fill="#0C1033"/>
<path d="M54.5731 134.529C55.207 134.157 56.2324 134.157 56.8663 134.529C57.5002 134.902 57.5002 135.479 56.8663 135.851C56.2324 136.223 55.207 136.223 54.5731 135.851C53.9392 135.479 53.9392 134.883 54.5731 134.529Z" fill="#0C1033"/>
<path d="M62.8507 131.066C63.4846 131.438 63.4846 132.016 62.8507 132.388C62.2168 132.76 61.1914 132.76 60.5575 132.388C59.9236 132.016 59.9236 131.438 60.5575 131.066C61.1914 130.712 62.2168 130.712 62.8507 131.066Z" fill="#0C1033"/>
<path d="M68.8155 127.622C69.4494 127.995 69.4494 128.572 68.8155 128.944C68.1816 129.316 67.1562 129.316 66.5223 128.944C65.8884 128.572 65.8884 127.995 66.5223 127.622C67.1562 127.269 68.1816 127.269 68.8155 127.622Z" fill="#0C1033"/>
<path d="M74.7843 124.178C75.4182 124.55 75.4182 125.127 74.7843 125.5C74.1504 125.872 73.1249 125.872 72.491 125.5C71.8572 125.127 71.8572 124.55 72.491 124.178C73.1436 123.824 74.169 123.824 74.7843 124.178Z" fill="#0C1033"/>
<path d="M80.7686 120.734C81.4025 121.106 81.4025 121.683 80.7686 122.055C80.1347 122.428 79.1093 122.428 78.4754 122.055C77.8415 121.683 77.8415 121.106 78.4754 120.734C79.1093 120.38 80.1347 120.38 80.7686 120.734Z" fill="#0C1033"/>
<path d="M86.7335 117.29C87.3674 117.662 87.3674 118.239 86.7335 118.612C86.0996 118.984 85.0742 118.984 84.4403 118.612C83.8064 118.239 83.8064 117.662 84.4403 117.29C85.0928 116.936 86.1182 116.936 86.7335 117.29Z" fill="#0C1033"/>
<path d="M92.7179 113.845C93.3518 114.218 93.3518 114.795 92.7179 115.167C92.084 115.54 91.0585 115.54 90.4246 115.167C89.7907 114.795 89.7907 114.218 90.4246 113.845C91.0585 113.492 92.084 113.492 92.7179 113.845Z" fill="#0C1033"/>
<path d="M98.6827 110.401C99.3166 110.773 99.3166 111.351 98.6827 111.723C98.0488 112.095 97.0234 112.095 96.3895 111.723C95.7556 111.351 95.7556 110.773 96.3895 110.401C97.042 110.047 98.0488 110.047 98.6827 110.401Z" fill="#0C1033"/>
<path d="M104.671 106.957C105.305 107.329 105.305 107.906 104.671 108.279C104.037 108.651 103.012 108.651 102.378 108.279C101.744 107.906 101.744 107.329 102.378 106.957C103.012 106.603 104.037 106.603 104.671 106.957Z" fill="#0C1033"/>
<path d="M110.636 103.512C111.27 103.885 111.27 104.462 110.636 104.834C110.002 105.207 108.977 105.207 108.343 104.834C107.709 104.462 107.709 103.885 108.343 103.512C108.995 103.159 110.002 103.159 110.636 103.512Z" fill="#0C1033"/>
<path d="M116.62 100.069C117.254 100.441 117.254 101.018 116.62 101.39C115.986 101.763 114.961 101.763 114.327 101.39C113.693 101.018 113.693 100.441 114.327 100.069C114.961 99.7148 115.986 99.7148 116.62 100.069Z" fill="#0C1033"/>
<path d="M122.585 96.6242C123.219 96.9965 123.219 97.5737 122.585 97.946C121.951 98.3184 120.926 98.3184 120.292 97.946C119.658 97.5737 119.658 96.9965 120.292 96.6242C120.926 96.2705 121.951 96.2705 122.585 96.6242Z" fill="#0C1033"/>
<path d="M128.569 93.1803C129.203 93.5527 129.203 94.1298 128.569 94.5022C127.936 94.8745 126.91 94.8745 126.276 94.5022C125.642 94.1298 125.642 93.5527 126.276 93.1803C126.91 92.8266 127.936 92.8266 128.569 93.1803Z" fill="#0C1033"/>
<path d="M134.538 89.736C135.172 90.1083 135.172 90.6855 134.538 91.0578C133.904 91.4302 132.879 91.4302 132.245 91.0578C131.611 90.6855 131.611 90.1083 132.245 89.736C132.879 89.3823 133.904 89.3823 134.538 89.736Z" fill="#0C1033"/>
<path d="M140.503 86.2917C141.137 86.664 141.137 87.2411 140.503 87.6135C139.869 87.9858 138.844 87.9858 138.21 87.6135C137.576 87.2411 137.576 86.664 138.21 86.2917C138.862 85.9379 139.888 85.9379 140.503 86.2917Z" fill="#0C1033"/>
<path d="M146.487 82.8473C147.121 83.2197 147.121 83.7968 146.487 84.1692C145.854 84.5415 144.828 84.5415 144.194 84.1692C143.56 83.7968 143.56 83.2197 144.194 82.8473C144.828 82.4936 145.854 82.4936 146.487 82.8473Z" fill="#0C1033"/>
<path d="M152.452 79.403C153.086 79.7753 153.086 80.3525 152.452 80.7248C151.818 81.0972 150.793 81.0972 150.159 80.7248C149.525 80.3525 149.525 79.7753 150.159 79.403C150.812 79.0493 151.837 79.0493 152.452 79.403Z" fill="#0C1033"/>
<path d="M48.5496 131.048C49.1835 130.675 50.209 130.675 50.8429 131.048C51.4768 131.402 51.4768 131.997 50.8429 132.37C50.209 132.742 49.1835 132.742 48.5496 132.37C47.9157 131.997 47.9157 131.402 48.5496 131.048Z" fill="#0C1033"/>
<path d="M56.8116 127.585C57.4455 127.957 57.4455 128.535 56.8116 128.907C56.1777 129.279 55.1523 129.279 54.5184 128.907C53.8845 128.535 53.8845 127.957 54.5184 127.585C55.1709 127.231 56.1964 127.231 56.8116 127.585Z" fill="#0C1033"/>
<path d="M62.796 124.141C63.4299 124.513 63.4299 125.09 62.796 125.463C62.1621 125.835 61.1367 125.835 60.5028 125.463C59.8689 125.09 59.8689 124.513 60.5028 124.141C61.1367 123.787 62.1621 123.787 62.796 124.141Z" fill="#0C1033"/>
<path d="M67.622 122.298C68.5179 122.298 69.2441 121.881 69.2441 121.367C69.2441 120.853 68.5179 120.436 67.622 120.436C66.7262 120.436 66 120.853 66 121.367C66 121.881 66.7262 122.298 67.622 122.298Z" fill="#0C1033"/>
<path d="M74.7452 117.252C75.3791 117.624 75.3791 118.202 74.7452 118.574C74.1113 118.946 73.0859 118.946 72.452 118.574C71.8181 118.202 71.8181 117.624 72.452 117.252C73.0859 116.898 74.1113 116.898 74.7452 117.252Z" fill="#0C1033"/>
<path d="M80.71 113.808C81.3439 114.18 81.3439 114.757 80.71 115.13C80.0761 115.502 79.0507 115.502 78.4168 115.13C77.7829 114.757 77.7829 114.18 78.4168 113.808C79.0507 113.454 80.0761 113.454 80.71 113.808Z" fill="#0C1033"/>
<path d="M86.6983 110.364C87.3322 110.736 87.3322 111.313 86.6983 111.686C86.0644 112.058 85.039 112.058 84.4051 111.686C83.7712 111.313 83.7712 110.736 84.4051 110.364C85.039 110.01 86.0644 110.01 86.6983 110.364Z" fill="#0C1033"/>
<path d="M92.6632 106.92C93.2971 107.292 93.2971 107.869 92.6632 108.241C92.0293 108.614 91.0039 108.614 90.37 108.241C89.7361 107.869 89.7361 107.292 90.37 106.92C91.0039 106.566 92.0293 106.566 92.6632 106.92Z" fill="#0C1033"/>
<path d="M98.6475 103.475C99.2814 103.848 99.2814 104.425 98.6475 104.797C98.0136 105.169 96.9882 105.169 96.3543 104.797C95.7204 104.425 95.7204 103.848 96.3543 103.475C96.9882 103.122 98.0136 103.122 98.6475 103.475Z" fill="#0C1033"/>
<path d="M104.612 100.031C105.246 100.404 105.246 100.981 104.612 101.353C103.978 101.726 102.953 101.726 102.319 101.353C101.685 100.981 101.685 100.404 102.319 100.031C102.953 99.6777 103.978 99.6777 104.612 100.031Z" fill="#0C1033"/>
<path d="M109.442 98.1884C110.338 98.1884 111.064 97.7716 111.064 97.2575C111.064 96.7434 110.338 96.3267 109.442 96.3267C108.547 96.3267 107.82 96.7434 107.82 97.2575C107.82 97.7716 108.547 98.1884 109.442 98.1884Z" fill="#0C1033"/>
<path d="M116.566 93.1427C117.199 93.5151 117.199 94.0922 116.566 94.4646C115.932 94.8369 114.906 94.8369 114.272 94.4646C113.638 94.0922 113.638 93.5151 114.272 93.1427C114.906 92.789 115.932 92.789 116.566 93.1427Z" fill="#0C1033"/>
<path d="M121.392 91.2997C122.287 91.2997 123.014 90.883 123.014 90.3689C123.014 89.8548 122.287 89.438 121.392 89.438C120.496 89.438 119.77 89.8548 119.77 90.3689C119.77 90.883 120.496 91.2997 121.392 91.2997Z" fill="#0C1033"/>
<path d="M128.515 86.2541C129.149 86.6264 129.149 87.2036 128.515 87.5759C127.881 87.9483 126.855 87.9483 126.222 87.5759C125.588 87.2036 125.588 86.6264 126.222 86.2541C126.855 85.9003 127.881 85.9003 128.515 86.2541Z" fill="#0C1033"/>
<path d="M132.206 82.81C132.84 82.4377 133.865 82.4377 134.499 82.81C135.133 83.1824 135.133 83.7595 134.499 84.1319C133.865 84.5042 132.84 84.5042 132.206 84.1319C131.572 83.7781 131.572 83.1824 132.206 82.81C132.84 82.4563 131.572 83.1824 132.206 82.81Z" fill="#0C1033"/>
<path d="M140.464 79.3659C141.098 79.7382 141.098 80.3154 140.464 80.6877C139.83 81.0601 138.805 81.0601 138.171 80.6877C137.537 80.3154 137.537 79.7382 138.171 79.3659C138.805 79.0122 139.83 79.0122 140.464 79.3659Z" fill="#0C1033"/>
<path d="M146.433 75.9215C147.067 76.2939 147.067 76.871 146.433 77.2434C145.799 77.6157 144.773 77.6157 144.139 77.2434C143.506 76.871 143.506 76.2939 144.139 75.9215C144.773 75.5678 145.799 75.5678 146.433 75.9215Z" fill="#0C1033"/>
<path d="M42.5669 127.603C43.2008 127.231 44.2262 127.231 44.8601 127.603C45.494 127.976 45.494 128.553 44.8601 128.925C44.2262 129.298 43.2008 129.298 42.5669 128.925C41.9517 128.553 41.9517 127.957 42.5669 127.603Z" fill="#0C1033"/>
<path d="M50.8429 124.141C51.4768 124.513 51.4768 125.09 50.8429 125.463C50.209 125.835 49.1835 125.835 48.5496 125.463C47.9157 125.09 47.9157 124.513 48.5496 124.141C49.1835 123.787 50.209 123.787 50.8429 124.141Z" fill="#0C1033"/>
<path d="M56.8116 120.696C57.4455 121.069 57.4455 121.646 56.8116 122.018C56.1777 122.391 55.1523 122.391 54.5184 122.018C53.8845 121.646 53.8845 121.069 54.5184 120.696C55.1709 120.343 56.1964 120.343 56.8116 120.696Z" fill="#0C1033"/>
<path d="M62.796 117.252C63.4299 117.624 63.4299 118.202 62.796 118.574C62.1621 118.946 61.1367 118.946 60.5028 118.574C59.8689 118.202 59.8689 117.624 60.5028 117.252C61.1367 116.898 62.1621 116.898 62.796 117.252Z" fill="#0C1033"/>
<path d="M68.7608 113.808C69.3947 114.18 69.3947 114.757 68.7608 115.13C68.1269 115.502 67.1015 115.502 66.4676 115.13C65.8337 114.757 65.8337 114.18 66.4676 113.808C67.1202 113.454 68.1269 113.454 68.7608 113.808Z" fill="#0C1033"/>
<path d="M74.7452 110.364C75.3791 110.736 75.3791 111.313 74.7452 111.686C74.1113 112.058 73.0859 112.058 72.452 111.686C71.8181 111.313 71.8181 110.736 72.452 110.364C73.0859 110.01 74.1113 110.01 74.7452 110.364Z" fill="#0C1033"/>
<path d="M80.71 106.92C81.3439 107.292 81.3439 107.869 80.71 108.241C80.0761 108.614 79.0507 108.614 78.4168 108.241C77.7829 107.869 77.7829 107.292 78.4168 106.92C79.0507 106.566 80.0761 106.566 80.71 106.92Z" fill="#0C1033"/>
<path d="M86.6983 103.475C87.3322 103.848 87.3322 104.425 86.6983 104.797C86.0644 105.169 85.039 105.169 84.4051 104.797C83.7712 104.425 83.7712 103.848 84.4051 103.475C85.039 103.122 86.0644 103.122 86.6983 103.475Z" fill="#0C1033"/>
<path d="M92.6632 100.031C93.2971 100.404 93.2971 100.981 92.6632 101.353C92.0293 101.726 91.0039 101.726 90.37 101.353C89.7361 100.981 89.7361 100.404 90.37 100.031C91.0039 99.6777 92.0293 99.6777 92.6632 100.031Z" fill="#0C1033"/>
<path d="M98.6475 96.5871C99.2814 96.9594 99.2814 97.5366 98.6475 97.9089C98.0136 98.2813 96.9882 98.2813 96.3543 97.9089C95.7204 97.5366 95.7204 96.9594 96.3543 96.5871C96.9882 96.2333 98.0136 96.2333 98.6475 96.5871Z" fill="#0C1033"/>
<path d="M104.613 93.1426C105.246 93.5149 105.246 94.0921 104.613 94.4644C103.979 94.8368 102.953 94.8368 102.319 94.4644C101.704 94.1107 103.979 92.7889 104.613 93.1426Z" fill="#0C1033"/>
<path d="M36.6004 124.159C37.2343 123.787 38.2597 123.787 38.8936 124.159C39.5275 124.513 39.5275 125.109 38.8936 125.481C38.2597 125.853 37.2343 125.853 36.6004 125.481C35.9665 125.109 35.9665 124.513 36.6004 124.159Z" fill="#0C1033"/>
<path d="M44.8585 120.696C45.4924 121.069 45.4924 121.646 44.8585 122.018C44.2246 122.391 43.1992 122.391 42.5653 122.018C41.9314 121.646 41.9314 121.069 42.5653 120.696C43.2178 120.343 44.2432 120.343 44.8585 120.696Z" fill="#0C1033"/>
<path d="M50.8429 117.252C51.4768 117.624 51.4768 118.202 50.8429 118.574C50.209 118.946 49.1835 118.946 48.5496 118.574C47.9157 118.202 47.9157 117.624 48.5496 117.252C49.1835 116.898 50.209 116.898 50.8429 117.252Z" fill="#0C1033"/>
<path d="M56.8116 113.808C57.4455 114.18 57.4455 114.757 56.8116 115.13C56.1777 115.502 55.1523 115.502 54.5184 115.13C53.8845 114.757 53.8845 114.18 54.5184 113.808C55.1709 113.454 56.1964 113.454 56.8116 113.808Z" fill="#0C1033"/>
<path d="M62.796 110.364C63.4299 110.736 63.4299 111.313 62.796 111.686C62.1621 112.058 61.1367 112.058 60.5028 111.686C59.8689 111.313 59.8689 110.736 60.5028 110.364C61.1367 110.01 62.1621 110.01 62.796 110.364Z" fill="#0C1033"/>
<path d="M68.7608 106.92C69.3947 107.292 69.3947 107.869 68.7608 108.241C68.1269 108.614 67.1015 108.614 66.4676 108.241C65.8337 107.869 65.8337 107.292 66.4676 106.92C67.1202 106.566 68.1269 106.566 68.7608 106.92Z" fill="#0C1033"/>
<path d="M74.7452 103.475C75.3791 103.848 75.3791 104.425 74.7452 104.797C74.1113 105.169 73.0859 105.169 72.452 104.797C71.8181 104.425 71.8181 103.848 72.452 103.475C73.0859 103.122 74.1113 103.122 74.7452 103.475Z" fill="#0C1033"/>
<path d="M80.71 100.031C81.3439 100.404 81.3439 100.981 80.71 101.353C80.0761 101.726 79.0507 101.726 78.4168 101.353C77.7829 100.981 77.7829 100.404 78.4168 100.031C79.0507 99.6777 80.0761 99.6777 80.71 100.031Z" fill="#0C1033"/>
<path d="M86.6983 96.5871C87.3322 96.9594 87.3322 97.5366 86.6983 97.9089C86.0644 98.2813 85.039 98.2813 84.4051 97.9089C83.7712 97.5366 83.7712 96.9594 84.4051 96.5871C85.039 96.2333 86.0644 96.2333 86.6983 96.5871Z" fill="#0C1033"/>
<path d="M30.6356 120.715C31.2695 120.343 32.2949 120.343 32.9288 120.715C33.5627 121.088 33.5627 121.665 32.9288 122.037C32.2949 122.409 31.2695 122.409 30.6356 122.037C30.0017 121.665 30.0017 121.069 30.6356 120.715Z" fill="#0C1033"/>
<path d="M38.8936 117.252C39.5275 117.624 39.5275 118.202 38.8936 118.574C38.2597 118.946 37.2343 118.946 36.6004 118.574C35.9665 118.202 35.9665 117.624 36.6004 117.252C37.2343 116.898 38.2597 116.898 38.8936 117.252Z" fill="#0C1033"/>
<path d="M44.8585 113.808C45.4924 114.18 45.4924 114.757 44.8585 115.13C44.2246 115.502 43.1992 115.502 42.5653 115.13C41.9314 114.757 41.9314 114.18 42.5653 113.808C43.2178 113.454 44.2432 113.454 44.8585 113.808Z" fill="#0C1033"/>
<path d="M50.8429 110.364C51.4768 110.736 51.4768 111.313 50.8429 111.686C50.209 112.058 49.1835 112.058 48.5496 111.686C47.9157 111.313 47.9157 110.736 48.5496 110.364C49.1835 110.01 50.209 110.01 50.8429 110.364Z" fill="#0C1033"/>
<path d="M56.8116 106.92C57.4455 107.292 57.4455 107.869 56.8116 108.241C56.1777 108.614 55.1523 108.614 54.5184 108.241C53.8845 107.869 53.8845 107.292 54.5184 106.92C55.1709 106.566 56.1964 106.566 56.8116 106.92Z" fill="#0C1033"/>
<path d="M62.796 103.475C63.4299 103.848 63.4299 104.425 62.796 104.797C62.1621 105.169 61.1367 105.169 60.5028 104.797C59.8689 104.425 59.8689 103.848 60.5028 103.475C61.1367 103.122 62.1621 103.122 62.796 103.475Z" fill="#0C1033"/>
<path d="M68.7608 100.031C69.3947 100.404 69.3947 100.981 68.7608 101.353C68.1269 101.726 67.1015 101.726 66.4676 101.353C65.8337 100.981 65.8337 100.404 66.4676 100.031C67.1202 99.6777 68.1269 99.6777 68.7608 100.031Z" fill="#0C1033"/>
<path d="M74.7452 96.5871C75.3791 96.9594 75.3791 97.5366 74.7452 97.9089C74.1113 98.2813 73.0859 98.2813 72.452 97.9089C71.8181 97.5366 71.8181 96.9594 72.452 96.5871C73.0859 96.2333 74.1113 96.2333 74.7452 96.5871Z" fill="#0C1033"/>
<path d="M174.12 86.3291C174.754 85.9567 175.779 85.9567 176.413 86.3291C177.047 86.7014 177.047 87.2785 176.413 87.6509C175.779 88.0232 174.754 88.0232 174.12 87.6509C173.486 87.2785 173.486 86.7014 174.12 86.3291Z" fill="#0C1033"/>
<path d="M182.378 82.8847C183.012 83.2571 183.012 83.8342 182.378 84.2066C181.744 84.5789 180.719 84.5789 180.085 84.2066C179.451 83.8342 179.451 83.2571 180.085 82.8847C180.737 82.5124 181.744 82.5124 182.378 82.8847Z" fill="#0C1033"/>
<path d="M188.362 79.4404C188.996 79.8127 188.996 80.3899 188.362 80.7622C187.729 81.1346 186.703 81.1346 186.069 80.7622C185.435 80.3899 185.435 79.8127 186.069 79.4404C186.703 79.068 187.729 79.068 188.362 79.4404Z" fill="#0C1033"/>
<path d="M194.327 75.9961C194.961 76.3684 194.961 76.9455 194.327 77.3179C193.693 77.6902 192.668 77.6902 192.034 77.3179C191.4 76.9455 191.4 76.3684 192.034 75.9961C192.668 75.6237 193.693 75.6237 194.327 75.9961Z" fill="#0C1033"/>
<path d="M168.133 82.8847C168.767 82.5124 169.793 82.5124 170.427 82.8847C171.06 83.2385 171.06 83.8342 170.427 84.2066C169.793 84.5789 168.767 84.5789 168.133 84.2066C167.518 83.8342 167.518 83.2571 168.133 82.8847Z" fill="#0C1033"/>
<path d="M175.274 81.0229C176.17 81.0229 176.896 80.6061 176.896 80.092C176.896 79.5779 176.17 79.1611 175.274 79.1611C174.379 79.1611 173.652 79.5779 173.652 80.092C173.652 80.6061 174.379 81.0229 175.274 81.0229Z" fill="#0C1033"/>
<path d="M182.378 75.9961C183.012 76.3684 183.012 76.9455 182.378 77.3179C181.744 77.6902 180.719 77.6902 180.085 77.3179C179.451 76.9455 179.451 76.3684 180.085 75.9961C180.737 75.6237 181.744 75.6237 182.378 75.9961Z" fill="#0C1033"/>
<path d="M188.362 72.5517C188.996 72.9241 188.996 73.5012 188.362 73.8735C187.729 74.2459 186.703 74.2459 186.069 73.8735C185.435 73.5012 185.435 72.9241 186.069 72.5517C186.703 72.1794 187.729 72.1794 188.362 72.5517Z" fill="#0C1033"/>
<path d="M194.327 69.1079C194.961 69.4802 194.961 70.0574 194.327 70.4297C193.693 70.8021 192.668 70.8021 192.034 70.4297C191.4 70.0574 191.4 69.4802 192.034 69.1079C192.668 68.7355 193.693 68.7355 194.327 69.1079Z" fill="#0C1033"/>
<path d="M162.167 79.4404C162.801 79.068 163.826 79.068 164.46 79.4404C165.094 79.8127 165.094 80.3899 164.46 80.7622C163.826 81.1346 162.801 81.1346 162.167 80.7622C161.533 80.3899 161.533 79.8127 162.167 79.4404Z" fill="#0C1033"/>
<path d="M170.429 75.9961C171.063 76.3684 171.063 76.9455 170.429 77.3179C169.795 77.6902 168.769 77.6902 168.136 77.3179C167.502 76.9455 167.502 76.3684 168.136 75.9961C168.788 75.6237 169.795 75.6237 170.429 75.9961Z" fill="#0C1033"/>
<path d="M176.413 72.5517C177.047 72.9241 177.047 73.5012 176.413 73.8735C175.779 74.2459 174.754 74.2459 174.12 73.8735C173.486 73.5012 173.486 72.9241 174.12 72.5517C174.754 72.1794 175.779 72.1794 176.413 72.5517Z" fill="#0C1033"/>
<path d="M182.378 69.1079C183.012 69.4802 183.012 70.0574 182.378 70.4297C181.744 70.8021 180.719 70.8021 180.085 70.4297C179.451 70.0574 179.451 69.4802 180.085 69.1079C180.737 68.7355 181.744 68.7355 182.378 69.1079Z" fill="#0C1033"/>
<path d="M188.362 65.6635C188.996 66.0359 188.996 66.613 188.362 66.9854C187.729 67.3577 186.703 67.3577 186.069 66.9854C185.435 66.613 185.435 66.0359 186.069 65.6635C186.703 65.2912 187.729 65.2912 188.362 65.6635Z" fill="#0C1033"/>
<path d="M156.184 75.9961C156.818 75.6237 157.843 75.6237 158.477 75.9961C159.111 76.3498 159.111 76.9455 158.477 77.3179C157.843 77.6902 156.818 77.6902 156.184 77.3179C155.569 76.9455 155.569 76.3684 156.184 75.9961Z" fill="#0C1033"/>
<path d="M163.325 74.1342C164.221 74.1342 164.947 73.7174 164.947 73.2033C164.947 72.6892 164.221 72.2725 163.325 72.2725C162.429 72.2725 161.703 72.6892 161.703 73.2033C161.703 73.7174 162.429 74.1342 163.325 74.1342Z" fill="#0C1033"/>
<path d="M170.429 69.1079C171.063 69.4802 171.063 70.0574 170.429 70.4297C169.795 70.8021 168.769 70.8021 168.136 70.4297C167.502 70.0574 167.502 69.4802 168.136 69.1079C168.788 68.7355 169.795 68.7355 170.429 69.1079Z" fill="#0C1033"/>
<path d="M176.413 65.6635C177.047 66.0359 177.047 66.613 176.413 66.9854C175.779 67.3577 174.754 67.3577 174.12 66.9854C173.486 66.613 173.486 66.0359 174.12 65.6635C174.754 65.2912 175.779 65.2912 176.413 65.6635Z" fill="#0C1033"/>
<path d="M150.16 72.5146C150.794 72.1423 151.819 72.1423 152.453 72.5146C153.087 72.887 153.087 73.4641 152.453 73.8364C151.819 74.2088 150.794 74.2088 150.16 73.8364C149.545 73.4641 149.526 72.887 150.16 72.5146Z" fill="#0C1033"/>
<path d="M215.899 38.463C215.899 38.463 211.35 37.9604 212.282 43.0988L154.262 9.47579C150.459 7.57682 145.947 7.70714 142.274 9.84814L16.4822 82.2139C11.3924 79.8867 6.71274 79.1234 4.60596 82.549C0.802573 88.7486 3.35681 92.1369 5.50088 94.2221C6.00427 94.7806 6.65681 95.3019 7.45851 95.7487C7.53308 95.7859 7.57037 95.8045 7.57037 95.8045L67.9026 130.693C71.65 132.555 76.0687 132.425 79.6856 130.321L214.874 52.4819C214.874 52.4819 223.823 47.0456 215.899 38.463Z" fill="#0C1033"/>
<path d="M73.4577 132.835C71.4442 132.835 69.412 132.369 67.5476 131.438L7.17806 96.5121C6.22721 95.9722 5.48145 95.4137 4.90348 94.7621C2.57298 92.5094 -0.11177 88.6928 3.91535 82.1209C5.94755 78.7884 10.1798 78.5091 16.4442 81.3017L141.863 9.12218C145.797 6.85086 150.57 6.70192 154.634 8.73122L211.349 41.5909C211.387 40.4738 211.722 39.5616 212.375 38.8727C213.736 37.4206 215.917 37.644 216.01 37.644L216.309 37.6812L216.514 37.9046C219.18 40.7903 220.317 43.676 219.926 46.4872C219.329 50.6948 215.47 53.0778 215.302 53.1709L80.1137 131.029C78.0442 132.22 75.7509 132.835 73.4577 132.835ZM9.22891 81.0411C7.42043 81.0411 6.11535 81.6927 5.31365 82.9773C1.95772 88.4508 3.82213 91.4296 6.07806 93.6264C6.58145 94.1663 7.15942 94.6318 7.86789 95.0227L68.312 129.986C71.7798 131.718 75.8815 131.587 79.2747 129.614L214.463 51.756C214.481 51.756 217.819 49.6708 218.285 46.2452C218.602 44.0297 217.67 41.684 215.526 39.2637C215.059 39.2637 214.127 39.3754 213.549 39.9898C212.99 40.5855 212.841 41.5723 213.083 42.9313L213.4 44.6814L153.851 10.1834C150.327 8.41472 146.132 8.54504 142.702 10.5557L16.5187 83.1262L16.1272 82.94C13.3492 81.6741 11.0374 81.0411 9.22891 81.0411Z" fill="#0C1033"/>
<path d="M6.52608 80.5944L142.218 2.53173C145.89 0.390735 150.402 0.260413 154.206 2.15938L214.538 37.1228C217.652 39.3941 218.267 43.9368 214.818 45.9288L79.6295 123.787C76.0125 125.89 71.5752 126.021 67.8464 124.159L7.51422 89.2514C3.18879 86.6822 3.43117 82.6423 6.52608 80.5944Z" fill="white"/>
<path d="M214.5 40.2131L154.168 5.24972C150.365 3.35075 145.853 3.48107 142.18 5.62206L6.48852 83.6847C5.5936 84.2804 4.97835 85.0624 4.60547 85.9002C5.07157 86.9986 5.98513 88.0598 7.4953 88.9534L67.8275 123.861C71.575 125.723 75.9936 125.592 79.6106 123.489L214.799 45.6494C215.824 45.0536 216.458 44.2159 216.812 43.3036C216.383 42.1121 215.6 41.0323 214.5 40.2131Z" fill="#1F5A7B"/>
<path d="M73.4023 126.3C71.3887 126.3 69.3565 125.835 67.4921 124.904L7.10398 89.959C4.77347 88.5813 3.46838 86.6823 3.41245 84.6158C3.35652 82.7727 4.32601 81.0599 6.05991 79.9056L6.0972 79.8683L141.807 1.82433C145.741 -0.446989 150.514 -0.595928 154.579 1.43337L214.967 36.4154C216.962 37.8676 218.08 40.083 217.987 42.2613C217.894 44.123 216.924 45.6868 215.246 46.655L80.0396 124.494C77.9887 125.686 75.6955 126.3 73.4023 126.3ZM6.95482 81.2833C5.70567 82.121 5.01584 83.3126 5.05313 84.5599C5.09042 86.0307 6.11584 87.4456 7.92431 88.5254L68.2379 123.414C71.7057 125.146 75.8074 125.015 79.2006 123.042L214.407 45.2214C215.582 44.5512 216.253 43.4528 216.328 42.1682C216.402 40.5485 215.545 38.8729 214.053 37.7931L153.777 2.8669C150.253 1.09825 146.058 1.22857 142.628 3.23925L6.95482 81.2833Z" fill="#0C1033"/>
<path d="M169.997 17.5372L169.922 17.5C169.53 17.2766 169.586 16.8856 170.034 16.625C170.481 16.3643 171.152 16.3271 171.544 16.5505L171.619 16.5877C172.01 16.8111 171.954 17.2021 171.507 17.4628C171.059 17.7234 170.369 17.7606 169.997 17.5372Z" fill="#0C1033"/>
<path d="M185.604 26.455L172.18 18.7847C171.788 18.5612 171.844 18.1703 172.292 17.9096C172.739 17.649 173.41 17.6118 173.802 17.8352L187.226 25.5055C187.617 25.7289 187.561 26.1199 187.114 26.3805C186.666 26.6412 185.995 26.6784 185.604 26.455Z" fill="#0C1033"/>
<path d="M181.148 70.3736C181.036 70.3736 180.905 70.355 180.794 70.3177C179.936 70.0757 179.507 69.0704 179.805 68.0092C179.973 67.4506 180.551 66.8921 180.663 66.799L187.431 62.8708C187.804 62.6846 188.158 62.6474 188.494 62.7405C188.848 62.8335 189.146 63.0942 189.333 63.4293C189.594 63.8761 189.631 64.4719 189.463 65.0304C189.295 65.6448 188.885 66.1474 188.382 66.3708L181.894 70.1502C181.614 70.3177 181.372 70.3736 181.148 70.3736ZM188.121 63.8016C188.065 63.8016 188.009 63.8203 187.953 63.8389L181.316 67.6927C181.222 67.8044 180.924 68.1395 180.868 68.3257C180.738 68.7911 180.887 69.2193 181.111 69.2752C181.166 69.2938 181.241 69.2752 181.334 69.2379L187.878 65.4214C188.102 65.3097 188.307 65.1049 188.419 64.7511C188.494 64.4719 188.494 64.174 188.382 63.9692C188.344 63.9134 188.289 63.8203 188.195 63.8016C188.177 63.8016 188.158 63.8016 188.121 63.8016Z" fill="white"/>
<path d="M191.438 64.5464C191.326 64.5464 191.214 64.5278 191.102 64.4906C190.245 64.2485 189.816 63.2246 190.114 62.182C190.282 61.6235 190.86 61.065 190.972 60.9719L197.739 57.0436C198.112 56.8575 198.448 56.8202 198.802 56.9133C199.156 57.0064 199.455 57.267 199.641 57.6022C199.902 58.049 199.939 58.6447 199.772 59.2032C199.604 59.8176 199.194 60.3203 198.69 60.5437L192.202 64.323C191.904 64.472 191.662 64.5464 191.438 64.5464ZM198.411 57.9559C198.355 57.9559 198.299 57.9745 198.243 57.9931L191.606 61.8469C191.494 61.9586 191.214 62.2937 191.158 62.4799C191.028 62.9453 191.177 63.3735 191.401 63.4294C191.456 63.448 191.55 63.448 191.624 63.3921L198.168 59.5756C198.429 59.4453 198.616 59.2032 198.709 58.9054C198.784 58.6261 198.784 58.3282 198.672 58.1234C198.634 58.049 198.578 57.9745 198.485 57.9559C198.448 57.9559 198.429 57.9559 198.411 57.9559Z" fill="white"/>
<path d="M175.815 73.3895C175.721 73.3895 175.628 73.3709 175.535 73.3523C175.106 73.2219 174.752 72.8868 174.584 72.4214C174.416 71.9932 174.416 71.5091 174.547 71.0437C174.715 70.4852 175.05 70.0197 175.498 69.7777L177.138 68.8655C177.418 68.7724 177.847 68.6607 178.182 68.7538C178.537 68.8655 178.835 69.1075 179.021 69.4426C179.282 69.8894 179.32 70.4852 179.152 71.0437C178.984 71.6581 178.313 72.2166 178.182 72.3097L176.56 73.2219C176.374 73.315 176.094 73.3895 175.815 73.3895ZM177.903 69.815C177.828 69.815 177.679 69.8336 177.586 69.8708L176.057 70.7272C175.871 70.8389 175.703 71.0809 175.609 71.3602C175.535 71.6022 175.535 71.8629 175.609 72.049C175.647 72.1235 175.703 72.2724 175.833 72.3097C175.871 72.3097 176.038 72.2725 176.132 72.2538L177.586 71.4347C177.716 71.323 178.052 70.9692 178.108 70.7644C178.182 70.4852 178.182 70.1873 178.071 69.9825C178.052 69.908 177.996 69.8336 177.903 69.815Z" fill="white"/>
<path d="M204.919 41.8698L146.489 8.28409C143.822 6.94364 140.672 7.05535 138.099 8.54474L16.5021 78.4157C14.3394 79.8493 14.1716 82.6791 17.1919 84.485L75.6225 118.033C78.2513 119.337 81.3462 119.244 83.8818 117.773L205.106 48.0694C207.529 46.6359 207.417 43.1172 204.919 41.8698Z" fill="white"/>
<path d="M79.518 119.486C78.101 119.486 76.6841 119.169 75.379 118.518L16.9298 84.9507C15.3078 83.9826 14.3942 82.6608 14.3569 81.2273C14.3197 79.9427 14.9908 78.7512 16.2027 77.9506L137.818 8.07963C140.559 6.47854 143.896 6.38545 146.73 7.80037L205.179 41.3861C206.521 42.0749 207.36 43.3782 207.398 44.8862C207.454 46.3942 206.689 47.7532 205.384 48.5166L84.1603 118.239C82.7247 119.076 81.1214 119.486 79.518 119.486ZM142.535 7.89346C141.099 7.89346 139.664 8.26581 138.359 9.02912L16.7807 78.8815C15.923 79.4586 15.4383 80.2964 15.4569 81.19C15.4942 82.2326 16.2027 83.2379 17.4891 84.0013L75.901 117.531C78.3247 118.741 81.2332 118.648 83.601 117.271L204.825 47.5671C205.776 47.0085 206.335 46.0218 206.298 44.9234C206.26 43.825 205.645 42.8569 204.657 42.3728L204.638 42.3542L146.226 8.76847C145.052 8.19134 143.803 7.89346 142.535 7.89346Z" fill="#0C1033"/>
<path d="M75.1904 132.22L74.1836 131.792C75.3768 128.981 74.1836 125.685 74.1836 125.648L75.209 125.276C75.2649 125.425 76.5514 129.018 75.1904 132.22Z" fill="white"/>
<path d="M40.3078 113.566C40.0654 113.566 39.8044 113.491 39.562 113.361L34.6027 110.512C33.7823 110.047 33.1484 108.837 33.1484 107.776C33.1484 107.124 33.3908 106.603 33.8383 106.342C34.2298 106.119 34.7145 106.137 35.162 106.398L40.1213 109.246C40.9417 109.712 41.5756 110.922 41.5756 111.983C41.5756 112.635 41.3332 113.156 40.8857 113.417C40.6993 113.51 40.5128 113.566 40.3078 113.566ZM40.1027 112.393C40.2332 112.467 40.3078 112.467 40.3264 112.449C40.3823 112.411 40.4569 112.262 40.4569 111.965C40.4569 111.294 40.0281 110.457 39.5433 110.177L34.584 107.329C34.4535 107.254 34.3789 107.254 34.3603 107.273C34.3044 107.31 34.2298 107.459 34.2298 107.757C34.2298 108.427 34.6586 109.265 35.1434 109.544L40.1027 112.393Z" fill="white"/>
<path d="M73.271 119.896C74.0354 120.324 74.0354 121.032 73.271 121.478C72.5066 121.907 71.2947 121.907 70.5303 121.478C69.7659 121.05 69.7659 120.343 70.5303 119.896C71.2947 119.468 72.5253 119.468 73.271 119.896Z" fill="#0C1033"/>
<path d="M66.1304 115.781C66.8948 116.21 66.8948 116.917 66.1304 117.364C65.366 117.792 64.1541 117.792 63.3897 117.364C62.6253 116.936 62.6253 116.228 63.3897 115.781C64.1355 115.335 65.366 115.335 66.1304 115.781Z" fill="#0C1033"/>
<path d="M58.9702 111.648C59.7346 112.077 59.7346 112.784 58.9702 113.231C58.2058 113.659 56.994 113.659 56.2296 113.231C55.4651 112.803 55.4651 112.095 56.2296 111.648C56.9753 111.22 58.2058 111.22 58.9702 111.648Z" fill="#0C1033"/>
<path d="M11.8765 84.6717C12.6409 85.0999 12.6409 85.8074 11.8765 86.2542C11.1121 86.6824 9.90021 86.6824 9.13581 86.2542C8.3714 85.826 8.3714 85.1186 9.13581 84.6717C9.90021 84.2435 11.1121 84.2435 11.8765 84.6717Z" fill="#0C1033"/>
<path d="M211.63 40.4554C212.395 40.8836 212.395 41.5911 211.63 42.0379C210.866 42.4661 209.654 42.4661 208.89 42.0379C208.125 41.6097 208.125 40.9022 208.89 40.4554C209.654 40.0272 210.866 40.0272 211.63 40.4554Z" fill="#0C1033"/>
</g>
<defs>
<clipPath id="clip0">
<rect width="220" height="143" fill="white"/>
</clipPath>
</defs>
</svg>
