<svg width="108" height="48" viewBox="0 0 108 48" fill="none" xmlns="http://www.w3.org/2000/svg">
<path fill-rule="evenodd" clip-rule="evenodd" d="M11.348 24.8273C11.348 24.6035 11.2286 24.4021 11.0421 24.2976L5.98361 21.3804C5.89408 21.3282 5.79708 21.3058 5.70009 21.2983C5.69263 21.2983 5.65533 21.2983 5.64787 21.2983C5.55088 21.3058 5.45389 21.3282 5.37182 21.3804L0.305895 24.2976C0.119374 24.4021 0 24.611 0 24.8273L0.00746085 32.6761C0.00746085 32.7881 0.0671477 32.885 0.156678 32.9373C0.253669 32.997 0.365582 32.997 0.462573 32.9373L3.4693 31.2138C3.66328 31.1019 3.77519 30.9005 3.77519 30.6841V27.0208C3.77519 26.8045 3.89457 26.603 4.08109 26.4911L5.36436 25.7525C5.46135 25.7002 5.5658 25.6704 5.67025 25.6704C5.7747 25.6704 5.87915 25.7002 5.97615 25.7525L7.25941 26.4911C7.44593 26.603 7.56531 26.8045 7.56531 27.0208V30.6841C7.56531 30.9005 7.68468 31.1019 7.8712 31.2138L10.8779 32.9373C10.9749 32.997 11.0868 32.997 11.1838 32.9373C11.2734 32.885 11.333 32.7806 11.333 32.6761L11.348 24.8273Z" fill="#0C1033"/>
<path fill-rule="evenodd" clip-rule="evenodd" d="M35.7154 14.0392C35.6184 13.9869 35.5065 13.9869 35.4095 14.0392C35.3125 14.0914 35.2603 14.1958 35.2603 14.3003V22.0745C35.2603 22.1491 35.223 22.2237 35.1558 22.261C35.0887 22.2983 35.0066 22.2983 34.9395 22.261L33.6711 21.5299C33.4846 21.418 33.2458 21.418 33.0593 21.5299L27.9934 24.4545C27.8069 24.5664 27.6875 24.7679 27.6875 24.9842V30.8336C27.6875 31.0499 27.8069 31.2514 27.9934 31.3633L33.0593 34.2879C33.2458 34.3998 33.4846 34.3998 33.6711 34.2879L38.737 31.3633C38.9235 31.2514 39.0429 31.0499 39.0429 30.8336V16.255C39.0429 16.0312 38.9235 15.8298 38.7296 15.7179L35.7154 14.0392ZM35.2453 28.9161C35.2453 28.9683 35.2155 29.0206 35.1707 29.0504L33.4324 30.0502C33.3876 30.08 33.3279 30.08 33.2831 30.0502L31.5448 29.0504C31.5 29.0206 31.4702 28.9758 31.4702 28.9161V26.9091C31.4702 26.8569 31.5 26.8047 31.5448 26.7748L33.2831 25.7676C33.3279 25.7378 33.3876 25.7378 33.4398 25.7676L35.1782 26.7748C35.223 26.8047 35.2528 26.8495 35.2528 26.9091V28.9161H35.2453Z" fill="#0C1033"/>
<path fill-rule="evenodd" clip-rule="evenodd" d="M52.5822 26.8494C52.7687 26.7375 52.8881 26.536 52.8881 26.3196V24.9021C52.8881 24.6857 52.7687 24.4843 52.5822 24.3724L47.5461 21.4477C47.3596 21.3358 47.1208 21.3358 46.9343 21.4477L41.8684 24.3724C41.6819 24.4843 41.5625 24.6857 41.5625 24.9021V30.7514C41.5625 30.9678 41.6819 31.1767 41.8684 31.2811L46.9045 34.1461C47.091 34.2505 47.3148 34.2505 47.5013 34.1461L50.5454 32.4525C50.6424 32.4002 50.702 32.2958 50.702 32.1839C50.702 32.072 50.6424 31.975 50.5454 31.9153L45.4496 28.9906C45.3526 28.9384 45.2929 28.834 45.2929 28.722V26.909C45.2929 26.7971 45.3526 26.7001 45.4496 26.6405L47.0388 25.7228C47.1358 25.6705 47.2477 25.6705 47.3447 25.7228L48.9338 26.6405C49.0308 26.6927 49.0905 26.7971 49.0905 26.909V28.349C49.0905 28.4609 49.1502 28.5579 49.2472 28.6176C49.3442 28.6698 49.4561 28.6698 49.5531 28.6176L52.5822 26.8494Z" fill="#0C1033"/>
<path fill-rule="evenodd" clip-rule="evenodd" d="M47.1663 26.5808C47.2036 26.5584 47.2484 26.5584 47.2857 26.5808L48.2556 27.1403C48.2929 27.1627 48.3153 27.2 48.3153 27.2448V28.3639C48.3153 28.4087 48.2929 28.446 48.2556 28.4683L47.2857 29.0279C47.2484 29.0503 47.2036 29.0503 47.1663 29.0279L46.1964 28.4683C46.1591 28.446 46.1367 28.4087 46.1367 28.3639V27.2448C46.1367 27.2 46.1591 27.1627 46.1964 27.1403L47.1663 26.5808Z" fill="#0C1033"/>
<path fill-rule="evenodd" clip-rule="evenodd" d="M19.1825 21.5151C19.369 21.4032 19.6003 21.4032 19.7868 21.5151L24.8155 24.4174C25.002 24.5293 25.1214 24.7233 25.1214 24.9396V30.7442C25.1214 30.9605 25.002 31.162 24.8155 31.2664L19.7868 34.1687C19.6003 34.2806 19.369 34.2806 19.1825 34.1687L14.1614 31.2664C13.9748 31.1545 13.8555 30.9605 13.8555 30.7442V24.9396C13.8555 24.7233 13.9748 24.5218 14.1614 24.4174L19.1825 21.5151Z" fill="#0C1033"/>
<path opacity="0.66" d="M24.7909 24.4175L19.7847 21.5153C19.7324 21.4854 19.6802 21.463 19.628 21.4556L13.9727 31.1323C14.0174 31.192 14.0771 31.2367 14.1443 31.2741L19.1803 34.1763C19.3295 34.2659 19.5012 34.2808 19.6653 34.2285L24.9476 24.5518C24.9028 24.4996 24.8506 24.4548 24.7909 24.4175Z" fill="#0C1033"/>
<path d="M19.7799 34.1765L24.7936 31.2743C24.9802 31.1623 25.0697 30.9684 25.0697 30.752V30.7296L19.6456 21.4558C19.489 21.411 19.3174 21.4334 19.1756 21.5155L14.1992 24.3804L19.6083 34.2362C19.6755 34.2288 19.7277 34.2064 19.7799 34.1765Z" fill="#0C1033"/>
<path d="M74.862 18.184V31H73.71L65.97 20.686V31H64.584V18.184H65.718L73.458 28.498V18.184H74.862ZM81.5777 31.126C80.7257 31.126 79.9757 30.934 79.3277 30.55C78.6797 30.166 78.1757 29.62 77.8157 28.912C77.4677 28.204 77.2937 27.376 77.2937 26.428C77.2937 25.48 77.4677 24.652 77.8157 23.944C78.1757 23.236 78.6797 22.69 79.3277 22.306C79.9757 21.922 80.7257 21.73 81.5777 21.73C82.4297 21.73 83.1797 21.922 83.8277 22.306C84.4757 22.69 84.9737 23.236 85.3217 23.944C85.6817 24.652 85.8617 25.48 85.8617 26.428C85.8617 27.376 85.6817 28.204 85.3217 28.912C84.9737 29.62 84.4757 30.166 83.8277 30.55C83.1797 30.934 82.4297 31.126 81.5777 31.126ZM81.5777 29.92C82.4777 29.92 83.1677 29.626 83.6477 29.038C84.1277 28.438 84.3677 27.568 84.3677 26.428C84.3677 25.324 84.1217 24.472 83.6297 23.872C83.1377 23.26 82.4537 22.954 81.5777 22.954C80.6897 22.954 79.9997 23.26 79.5077 23.872C79.0157 24.472 78.7697 25.324 78.7697 26.428C78.7697 27.568 79.0097 28.438 79.4897 29.038C79.9817 29.626 80.6777 29.92 81.5777 29.92ZM96.1085 17.752V31H94.6685V29.362C94.4045 29.926 94.0025 30.364 93.4625 30.676C92.9345 30.976 92.3165 31.126 91.6085 31.126C90.8165 31.126 90.1145 30.928 89.5025 30.532C88.9025 30.136 88.4345 29.584 88.0985 28.876C87.7625 28.156 87.5945 27.328 87.5945 26.392C87.5945 25.456 87.7565 24.64 88.0805 23.944C88.4165 23.236 88.8905 22.69 89.5025 22.306C90.1145 21.922 90.8165 21.73 91.6085 21.73C92.3165 21.73 92.9345 21.886 93.4625 22.198C93.9905 22.498 94.3865 22.924 94.6505 23.476V17.752H96.1085ZM91.8965 29.92C92.7845 29.92 93.4685 29.62 93.9485 29.02C94.4285 28.408 94.6685 27.544 94.6685 26.428C94.6685 25.324 94.4285 24.472 93.9485 23.872C93.4685 23.26 92.7845 22.954 91.8965 22.954C91.0085 22.954 90.3125 23.254 89.8085 23.854C89.3165 24.454 89.0705 25.3 89.0705 26.392C89.0705 27.508 89.3165 28.378 89.8085 29.002C90.3125 29.614 91.0085 29.92 91.8965 29.92ZM106.505 26.428H99.8634C99.8754 27.58 100.139 28.45 100.655 29.038C101.183 29.626 101.945 29.92 102.941 29.92C103.997 29.92 104.969 29.566 105.857 28.858L106.343 29.92C105.947 30.292 105.437 30.586 104.813 30.802C104.201 31.018 103.571 31.126 102.923 31.126C101.507 31.126 100.397 30.712 99.5934 29.884C98.7894 29.044 98.3874 27.898 98.3874 26.446C98.3874 25.522 98.5674 24.706 98.9274 23.998C99.2874 23.278 99.7914 22.72 100.439 22.324C101.087 21.928 101.825 21.73 102.653 21.73C103.853 21.73 104.795 22.126 105.479 22.918C106.163 23.698 106.505 24.778 106.505 26.158V26.428ZM102.671 22.864C101.915 22.864 101.297 23.092 100.817 23.548C100.349 24.004 100.049 24.646 99.9174 25.474H105.191C105.119 24.622 104.867 23.974 104.435 23.53C104.015 23.086 103.427 22.864 102.671 22.864Z" fill="#0C1033"/>
</svg>
