<svg width="147" height="57" viewBox="0 0 147 57" fill="none" xmlns="http://www.w3.org/2000/svg">
<path fill-rule="evenodd" clip-rule="evenodd" d="M31.6319 29.9613C31.6319 29.3419 31.3016 28.7845 30.7854 28.4954L16.788 20.4231C16.5402 20.2786 16.2718 20.2167 16.0034 20.196C15.9828 20.196 15.8796 20.196 15.8589 20.196C15.5905 20.2167 15.3221 20.2786 15.0951 20.4231L1.07692 28.4954C0.560793 28.7845 0.230469 29.3625 0.230469 29.9613L0.251114 51.6801C0.251114 51.9897 0.416276 52.2581 0.664019 52.4026C0.932407 52.5678 1.24209 52.5678 1.51047 52.4026L9.83051 47.6336C10.3673 47.3239 10.677 46.7665 10.677 46.1678V36.031C10.677 35.4322 11.0073 34.8748 11.5234 34.5651L15.0744 32.5213C15.3428 32.3767 15.6318 32.2942 15.9209 32.2942C16.2099 32.2942 16.4989 32.3767 16.7673 32.5213L20.3183 34.5651C20.8344 34.8748 21.1648 35.4322 21.1648 36.031V46.1678C21.1648 46.7665 21.4951 47.3239 22.0112 47.6336L30.3312 52.4026C30.5996 52.5678 30.9093 52.5678 31.1777 52.4026C31.4254 52.2581 31.5906 51.9691 31.5906 51.6801L31.6319 29.9613Z" fill="white"/>
<path fill-rule="evenodd" clip-rule="evenodd" d="M99.058 0.108388C98.7897 -0.0361292 98.48 -0.0361292 98.2116 0.108388C97.9432 0.252904 97.7987 0.541938 97.7987 0.830971V22.3433C97.7987 22.5498 97.6955 22.7562 97.5096 22.8595C97.3238 22.9627 97.0967 22.9627 96.9109 22.8595L93.4012 20.8362C92.8851 20.5265 92.2245 20.5265 91.7083 20.8362L77.6902 28.9292C77.1741 29.2388 76.8438 29.7963 76.8438 30.395V46.5809C76.8438 47.1796 77.1741 47.737 77.6902 48.0467L91.7083 56.1396C92.2245 56.4493 92.8851 56.4493 93.4012 56.1396L107.419 48.0467C107.935 47.737 108.266 47.1796 108.266 46.5809V6.24003C108.266 5.62067 107.936 5.06325 107.399 4.75357L99.058 0.108388ZM97.7574 41.275C97.7574 41.4195 97.6748 41.5641 97.5509 41.6466L92.7406 44.4131C92.6167 44.4957 92.4516 44.4957 92.3277 44.4131L87.5173 41.6466C87.3935 41.5641 87.3109 41.4402 87.3109 41.275V35.7215C87.3109 35.5769 87.3935 35.4324 87.5173 35.3498L92.3277 32.5627C92.4516 32.4801 92.6167 32.4801 92.7612 32.5627L97.5716 35.3498C97.6955 35.4324 97.778 35.5563 97.778 35.7215V41.275H97.7574Z" fill="white"/>
<path fill-rule="evenodd" clip-rule="evenodd" d="M145.739 35.5566C146.255 35.2469 146.586 34.6895 146.586 34.0908V30.1682C146.586 29.5695 146.255 29.0121 145.739 28.7024L131.804 20.6095C131.287 20.2998 130.627 20.2998 130.111 20.6095L116.093 28.7024C115.576 29.0121 115.246 29.5695 115.246 30.1682V46.3541C115.246 46.9528 115.576 47.5309 116.093 47.8199L130.028 55.7477C130.544 56.0367 131.164 56.0367 131.68 55.7477L140.103 51.0612C140.371 50.9167 140.537 50.6277 140.537 50.318C140.537 50.0083 140.371 49.7399 140.103 49.5747L126.002 41.4818C125.734 41.3373 125.569 41.0483 125.569 40.7386V35.7218C125.569 35.4121 125.734 35.1437 126.002 34.9786L130.4 32.4392C130.668 32.2947 130.978 32.2947 131.246 32.4392L135.644 34.9786C135.912 35.1231 136.077 35.4121 136.077 35.7218V39.7063C136.077 40.016 136.242 40.2844 136.511 40.4495C136.779 40.5941 137.089 40.5941 137.357 40.4495L145.739 35.5566Z" fill="white"/>
<path fill-rule="evenodd" clip-rule="evenodd" d="M130.747 34.8135C130.851 34.7516 130.975 34.7516 131.078 34.8135L133.762 36.3619C133.865 36.4239 133.927 36.5271 133.927 36.651V39.7478C133.927 39.8716 133.865 39.9749 133.762 40.0368L131.078 41.5852C130.975 41.6471 130.851 41.6471 130.747 41.5852L128.064 40.0368C127.96 39.9749 127.898 39.8716 127.898 39.7478V36.651C127.898 36.5271 127.96 36.4239 128.064 36.3619L130.747 34.8135Z" fill="white"/>
<path fill-rule="evenodd" clip-rule="evenodd" d="M53.3071 20.7948C53.8232 20.4851 54.4633 20.4851 54.9794 20.7948L68.8943 28.8258C69.4104 29.1354 69.7407 29.6722 69.7407 30.2709V46.3329C69.7407 46.9317 69.4104 47.4891 68.8943 47.7781L54.9794 55.8091C54.4633 56.1188 53.8232 56.1188 53.3071 55.8091L39.4129 47.7781C38.8967 47.4684 38.5664 46.9317 38.5664 46.3329V30.2709C38.5664 29.6722 38.8967 29.1148 39.4129 28.8258L53.3071 20.7948Z" fill="white"/>
<path opacity="0.66" d="M68.8301 28.8263L54.9772 20.7953C54.8327 20.7127 54.6881 20.6508 54.5436 20.6301L38.8945 47.407C39.0184 47.5722 39.1836 47.6961 39.3694 47.7993L53.3049 55.8303C53.7178 56.078 54.1927 56.1193 54.6469 55.9748L69.2637 29.1979C69.1398 29.0534 68.9953 28.9295 68.8301 28.8263Z" fill="white"/>
<path d="M54.9583 55.83L68.8319 47.799C69.348 47.4893 69.5958 46.9526 69.5958 46.3538V46.2919L54.5867 20.6299C54.1531 20.506 53.6783 20.5679 53.286 20.795L39.5156 28.7228L54.4834 55.9952C54.6692 55.9745 54.8138 55.9126 54.9583 55.83Z" fill="white"/>
</svg>
