<svg width="106" height="91" viewBox="0 0 106 91" fill="none" xmlns="http://www.w3.org/2000/svg">
<path d="M52.5728 36.6287C57.8638 36.6287 62.1417 40.7363 62.1417 45.8167C62.1417 50.8972 57.8638 55.0047 52.5728 55.0047C47.2818 55.0047 43.0039 50.8972 43.0039 45.8167C43.0039 40.7363 47.2818 36.6287 52.5728 36.6287Z" fill="white"/>
<path d="M88.9344 30.6613C87.0882 30.0127 85.1519 29.3642 83.1481 28.8021C83.6434 26.8564 84.0712 24.9323 84.4089 23.0731C86.1651 12.4366 84.2513 4.93479 78.8702 2.01624C77.2716 1.15148 75.5155 0.740723 73.4891 0.740723C67.6127 0.740723 60.1377 4.93479 52.5726 11.9393C45.0076 4.93479 37.5326 0.740723 31.6562 0.740723C29.6298 0.740723 27.8736 1.15148 26.2751 2.03786C20.894 5.02127 18.9577 12.523 20.7364 23.0947C21.0741 24.9539 21.5019 26.878 21.9972 28.8237C19.9708 29.3858 18.0571 29.9479 16.2108 30.6829C5.71882 34.5311 0 39.8494 0 45.8162C0 51.783 5.78637 57.1013 16.2108 60.971C18.0571 61.6196 19.9934 62.2682 21.9972 62.8303C21.5019 64.776 21.0741 66.7001 20.7364 68.5593C18.9802 79.1958 20.894 86.6976 26.2751 89.6161C27.8736 90.5025 29.6298 90.9132 31.6562 90.9132C37.6226 90.9132 45.0976 86.7192 52.5726 79.693C60.1377 86.7192 67.6127 90.9132 73.4891 90.9132C75.5155 90.9132 77.2716 90.5025 78.8702 89.6161C84.2513 86.6327 86.1876 79.1309 84.4089 68.5593C84.0712 66.7001 83.6434 64.776 83.1481 62.8303C85.1744 62.2682 87.0882 61.7061 88.9344 60.971C99.4264 57.1013 105.145 51.783 105.145 45.8162C105.145 39.8494 99.449 34.5311 88.9344 30.6613ZM76.5061 6.05898C79.9509 8.00468 81.1217 13.9715 79.7033 22.4245C79.4556 24.1108 79.0278 25.8835 78.5325 27.7428C74.1646 26.7699 69.549 26.1213 64.6857 25.7322C61.8263 21.8624 58.8994 18.4034 55.9499 15.247C62.164 9.36667 68.4682 5.32393 73.5792 5.32393C74.6599 5.34555 75.6731 5.58336 76.5061 6.05898ZM67.0948 53.88C65.5863 56.4527 63.8302 59.047 61.9614 61.6196C58.8543 61.8574 55.7472 61.9439 52.5501 61.9439C49.2854 61.9439 46.1558 61.8574 43.1388 61.6196C41.2926 59.047 39.604 56.4527 38.0955 53.88C36.4969 51.2209 34.9884 48.4753 33.6375 45.8162C34.9884 43.157 36.4969 40.4114 38.0955 37.7523C39.604 35.1797 41.3601 32.5854 43.2289 30.0127C46.336 29.7749 49.443 29.6885 52.6402 29.6885C55.9049 29.6885 59.0344 29.7749 62.0515 30.0127C63.8977 32.5854 65.5863 35.1797 67.0948 37.7523C68.6934 40.4114 70.2019 43.157 71.5528 45.8162C70.1344 48.4753 68.6934 51.1344 67.0948 53.88ZM74.0745 51.2209C75.3353 54.053 76.3485 56.777 77.2716 59.5226C74.4122 60.1711 71.3952 60.6468 68.1981 61.0575C69.2113 59.5226 70.292 57.9228 71.2151 56.2149C72.2283 54.5286 73.1514 52.8423 74.0745 51.2209ZM52.5726 73.0776C50.5463 70.9806 48.6325 68.7322 46.7863 66.3758C48.7226 66.4622 50.6589 66.5271 52.5726 66.5271C54.5089 66.5271 56.4452 66.4406 58.359 66.3758C56.5128 68.7322 54.599 70.9806 52.5726 73.0776ZM36.9472 60.9927C33.75 60.5819 30.733 60.1063 27.8736 59.4577C28.7967 56.7986 29.8099 53.9665 31.0708 51.156C31.9939 52.7775 32.917 54.4637 33.9302 56.0852C34.9433 57.8363 35.9565 59.3712 36.9472 60.9927ZM31.0708 40.4114C29.8099 37.5794 28.7967 34.8554 27.8736 32.1098C30.733 31.4612 33.75 30.9856 36.9472 30.5748C35.934 32.1098 34.8533 33.7096 33.9302 35.4175C32.917 37.1038 31.9939 38.8116 31.0708 40.4114ZM52.5726 18.5547C54.599 20.6517 56.5128 22.9001 58.359 25.2566C56.4227 25.1701 54.4864 25.1052 52.5726 25.1052C50.6363 25.1052 48.7 25.1917 46.7863 25.2566C48.6325 22.9217 50.5688 20.6517 52.5726 18.5547ZM71.2151 35.5039L68.1981 30.6613C71.3952 31.0721 74.4122 31.5477 77.2716 32.1963C76.3485 34.8554 75.3353 37.6875 74.0745 40.4979C73.1514 38.8116 72.2283 37.1037 71.2151 35.5039ZM25.442 22.4245C24.0236 13.9499 25.1943 7.98306 28.6391 6.05898C29.4722 5.58336 30.4854 5.32393 31.5886 5.32393C36.632 5.32393 42.9362 9.2802 49.2179 15.247C46.2684 18.3169 43.3415 21.8624 40.482 25.7322C35.6188 26.143 30.9807 26.8564 26.6128 27.7428C26.1175 25.9051 25.7797 24.1324 25.442 22.4245ZM4.70564 45.8162C4.70564 42.0329 9.50135 37.9901 17.8995 35.0067C19.5881 34.3581 21.4343 33.7961 23.2806 33.3204C24.6315 37.3632 26.2976 41.6221 28.3239 45.9026C26.2976 50.1832 24.5414 54.3773 23.2806 58.3984C11.6628 55.1772 4.70564 50.3345 4.70564 45.8162ZM28.6391 85.5734C25.1943 83.6277 24.0236 77.6608 25.442 69.2078C25.6897 67.5216 26.1175 65.7488 26.6128 63.8896C30.9807 64.8624 35.5963 65.511 40.482 65.9002C43.3415 69.7699 46.2684 73.229 49.2179 76.3853C43.0037 82.2657 36.6995 86.3084 31.5886 86.3084C30.4854 86.3084 29.4722 86.0706 28.6391 85.5734ZM79.7033 69.2078C81.1217 77.6825 79.9509 83.6493 76.5061 85.5734C75.6731 86.049 74.6599 86.3084 73.5566 86.3084C68.5133 86.3084 62.2091 82.3522 55.9274 76.3853C58.8768 73.3154 61.8038 69.7699 64.6632 65.9002C69.5265 65.4894 74.1646 64.776 78.51 63.8896C79.0278 65.7488 79.3655 67.5216 79.7033 69.2078ZM87.2683 56.6256C85.5797 57.2742 83.7334 57.8363 81.8872 58.3119C80.5363 54.2692 78.8702 50.0102 76.8438 45.7297C78.8702 41.4492 80.6264 37.2551 81.8872 33.234C93.4825 36.4552 100.44 41.2978 100.44 45.8162C100.44 49.6211 95.5764 53.6422 87.2683 56.6256Z" fill="white"/>
</svg>
