<svg width="20" height="30" viewBox="0 0 20 30" fill="none" xmlns="http://www.w3.org/2000/svg">
<path d="M19.457 13.8294L4.30738 0.479264C3.95699 0.170243 3.48925 0 2.99051 0C2.49177 0 2.02402 0.170243 1.67363 0.479264L0.55797 1.46218C-0.168 2.10267 -0.168 3.14363 0.55797 3.78314L13.2795 14.9938L0.543854 26.2169C0.193463 26.5259 0 26.9378 0 27.3771C0 27.8168 0.193463 28.2288 0.543854 28.5381L1.65952 29.5207C2.01018 29.8298 2.47765 30 2.97639 30C3.47513 30 3.94287 29.8298 4.29327 29.5207L19.457 16.1584C19.8082 15.8484 20.0011 15.4345 20 14.9945C20.0011 14.5528 19.8082 14.1392 19.457 13.8294Z" fill="#1F5A7B"/>
</svg>
