<svg width="150" height="48" viewBox="0 0 150 48" fill="none" xmlns="http://www.w3.org/2000/svg">
<path d="M16.8482 20.7847C18.544 20.7847 19.9151 22.1558 19.9151 23.8516C19.9151 25.5474 18.544 26.9185 16.8482 26.9185C15.1523 26.9185 13.7812 25.5474 13.7812 23.8516C13.7812 22.1558 15.1523 20.7847 16.8482 20.7847Z" fill="#0C1033"/>
<path d="M28.5043 18.793C27.9125 18.5765 27.2919 18.36 26.6497 18.1724C26.8085 17.5229 26.9456 16.8807 27.0538 16.2601C27.6167 12.7097 27.0033 10.2056 25.2786 9.23142C24.7663 8.94277 24.2034 8.80566 23.5539 8.80566C21.6705 8.80566 19.2747 10.2056 16.85 12.5437C14.4253 10.2056 12.0295 8.80566 10.1461 8.80566C9.49662 8.80566 8.93375 8.94277 8.42139 9.23864C6.6967 10.2345 6.0761 12.7385 6.64619 16.2673C6.75443 16.8879 6.89154 17.5301 7.0503 18.1796C6.40084 18.3672 5.78745 18.5549 5.19572 18.8002C1.83293 20.0847 0 21.8599 0 23.8516C0 25.8433 1.85458 27.6185 5.19572 28.9102C5.78745 29.1267 6.40805 29.3432 7.0503 29.5308C6.89154 30.1803 6.75443 30.8225 6.64619 31.4431C6.08332 34.9935 6.6967 37.4976 8.42139 38.4718C8.93375 38.7676 9.49662 38.9047 10.1461 38.9047C12.0584 38.9047 14.4542 37.5048 16.85 35.1595C19.2747 37.5048 21.6705 38.9047 23.5539 38.9047C24.2034 38.9047 24.7663 38.7676 25.2786 38.4718C27.0033 37.4759 27.6239 34.9719 27.0538 31.4431C26.9456 30.8225 26.8085 30.1803 26.6497 29.5308C27.2992 29.3432 27.9125 29.1556 28.5043 28.9102C31.8671 27.6185 33.7 25.8433 33.7 23.8516C33.7 21.8599 31.8743 20.0847 28.5043 18.793ZM24.5209 10.5809C25.625 11.2303 26.0002 13.222 25.5456 16.0436C25.4662 16.6065 25.3291 17.1982 25.1704 17.8188C23.7704 17.4941 22.2911 17.2776 20.7324 17.1477C19.8159 15.856 18.8778 14.7014 17.9324 13.6478C19.9241 11.685 21.9447 10.3355 23.5828 10.3355C23.9292 10.3427 24.2539 10.4221 24.5209 10.5809ZM21.5045 26.5433C21.021 27.402 20.4581 28.268 19.8592 29.1267C18.8633 29.2061 17.8675 29.2349 16.8428 29.2349C15.7964 29.2349 14.7934 29.2061 13.8264 29.1267C13.2346 28.268 12.6934 27.402 12.2099 26.5433C11.6976 25.6557 11.2141 24.7392 10.7811 23.8516C11.2141 22.964 11.6976 22.0475 12.2099 21.1599C12.6934 20.3012 13.2563 19.4352 13.8552 18.5765C14.8511 18.4971 15.8469 18.4683 16.8716 18.4683C17.918 18.4683 18.9211 18.4971 19.8881 18.5765C20.4798 19.4352 21.021 20.3012 21.5045 21.1599C22.0169 22.0475 22.5003 22.964 22.9333 23.8516C22.4787 24.7392 22.0169 25.6268 21.5045 26.5433ZM23.7415 25.6557C24.1457 26.601 24.4704 27.5102 24.7663 28.4267C23.8498 28.6432 22.8828 28.802 21.8581 28.9391C22.1828 28.4267 22.5292 27.8927 22.8251 27.3226C23.1498 26.7598 23.4457 26.1969 23.7415 25.6557ZM16.85 32.9513C16.2005 32.2513 15.5872 31.5008 14.9954 30.7143C15.616 30.7431 16.2366 30.7648 16.85 30.7648C17.4706 30.7648 18.0912 30.7359 18.7046 30.7143C18.1128 31.5008 17.4995 32.2513 16.85 32.9513ZM11.8419 28.9174C10.8172 28.7803 9.85021 28.6216 8.93375 28.4051C9.22961 27.5175 9.55435 26.5721 9.95846 25.634C10.2543 26.1752 10.5502 26.7381 10.8749 27.2793C11.1997 27.8638 11.5244 28.3762 11.8419 28.9174ZM9.95846 22.0475C9.55435 21.1022 9.22961 20.1929 8.93375 19.2765C9.85021 19.06 10.8172 18.9012 11.8419 18.7641C11.5172 19.2765 11.1708 19.8105 10.8749 20.3806C10.5502 20.9434 10.2543 21.5135 9.95846 22.0475ZM16.85 14.7519C17.4995 15.4519 18.1128 16.2023 18.7046 16.9889C18.084 16.9601 17.4634 16.9384 16.85 16.9384C16.2294 16.9384 15.6088 16.9673 14.9954 16.9889C15.5872 16.2096 16.2078 15.4519 16.85 14.7519ZM22.8251 20.4094L21.8581 18.793C22.8828 18.9301 23.8498 19.0889 24.7663 19.3053C24.4704 20.1929 24.1457 21.1383 23.7415 22.0764C23.4457 21.5135 23.1498 20.9434 22.8251 20.4094ZM8.15439 16.0436C7.69976 13.2148 8.07501 11.2231 9.1791 10.5809C9.4461 10.4221 9.77083 10.3355 10.1244 10.3355C11.7409 10.3355 13.7614 11.6561 15.7748 13.6478C14.8294 14.6725 13.8913 15.856 12.9749 17.1477C11.4161 17.2848 9.92959 17.5229 8.52964 17.8188C8.37088 17.2054 8.26263 16.6137 8.15439 16.0436ZM1.5082 23.8516C1.5082 22.5887 3.04527 21.2393 5.73694 20.2435C6.27816 20.027 6.86989 19.8393 7.46163 19.6806C7.8946 21.03 8.42861 22.4516 9.07807 23.8805C8.42861 25.3093 7.86574 26.7092 7.46163 28.0515C3.73803 26.9762 1.5082 25.3598 1.5082 23.8516ZM9.1791 37.1223C8.07501 36.4729 7.69976 34.4812 8.15439 31.6596C8.23377 31.0967 8.37088 30.505 8.52964 29.8844C9.92959 30.2091 11.4089 30.4256 12.9749 30.5555C13.8913 31.8472 14.8294 33.0018 15.7748 34.0554C13.7831 36.0182 11.7625 37.3677 10.1244 37.3677C9.77083 37.3677 9.4461 37.2883 9.1791 37.1223ZM25.5456 31.6596C26.0002 34.4884 25.625 36.4801 24.5209 37.1223C24.2539 37.2811 23.9292 37.3677 23.5756 37.3677C21.9591 37.3677 19.9386 36.0471 17.9252 34.0554C18.8706 33.0307 19.8087 31.8472 20.7251 30.5555C22.2839 30.4184 23.7704 30.1803 25.1631 29.8844C25.3291 30.505 25.4374 31.0967 25.5456 31.6596ZM27.9703 27.4597C27.4291 27.6762 26.8373 27.8638 26.2456 28.0226C25.8126 26.6732 25.2786 25.2516 24.6291 23.8227C25.2786 22.3939 25.8415 20.994 26.2456 19.6517C29.962 20.7269 32.1918 22.3434 32.1918 23.8516C32.1918 25.1217 30.6331 26.4639 27.9703 27.4597Z" fill="#0C1033"/>
<path d="M53.646 31H52.08L50.496 26.734C50.304 26.206 50.034 25.852 49.686 25.672C49.35 25.492 48.87 25.402 48.246 25.402H45.042V31H43.584V18.184H48.678C50.058 18.184 51.114 18.49 51.846 19.102C52.59 19.714 52.962 20.596 52.962 21.748C52.962 22.588 52.74 23.296 52.296 23.872C51.864 24.436 51.234 24.838 50.406 25.078C50.778 25.138 51.096 25.3 51.36 25.564C51.624 25.816 51.846 26.182 52.026 26.662L53.646 31ZM48.552 24.178C50.52 24.178 51.504 23.374 51.504 21.766C51.504 20.974 51.264 20.386 50.784 20.002C50.304 19.606 49.56 19.408 48.552 19.408H45.042V24.178H48.552ZM63.4625 26.428H56.8205C56.8325 27.58 57.0965 28.45 57.6125 29.038C58.1405 29.626 58.9025 29.92 59.8985 29.92C60.9545 29.92 61.9265 29.566 62.8145 28.858L63.3005 29.92C62.9045 30.292 62.3945 30.586 61.7705 30.802C61.1585 31.018 60.5285 31.126 59.8805 31.126C58.4645 31.126 57.3545 30.712 56.5505 29.884C55.7465 29.044 55.3445 27.898 55.3445 26.446C55.3445 25.522 55.5245 24.706 55.8845 23.998C56.2445 23.278 56.7485 22.72 57.3965 22.324C58.0445 21.928 58.7825 21.73 59.6105 21.73C60.8105 21.73 61.7525 22.126 62.4365 22.918C63.1205 23.698 63.4625 24.778 63.4625 26.158V26.428ZM59.6285 22.864C58.8725 22.864 58.2545 23.092 57.7745 23.548C57.3065 24.004 57.0065 24.646 56.8745 25.474H62.1485C62.0765 24.622 61.8245 23.974 61.3925 23.53C60.9725 23.086 60.3845 22.864 59.6285 22.864ZM73.6495 21.946V31H72.2095V29.362C71.9455 29.926 71.5435 30.364 71.0035 30.676C70.4755 30.976 69.8575 31.126 69.1495 31.126C68.3455 31.126 67.6375 30.934 67.0255 30.55C66.4255 30.166 65.9575 29.626 65.6215 28.93C65.2975 28.222 65.1355 27.4 65.1355 26.464C65.1355 25.528 65.3035 24.706 65.6395 23.998C65.9755 23.278 66.4435 22.72 67.0435 22.324C67.6555 21.928 68.3575 21.73 69.1495 21.73C69.8575 21.73 70.4755 21.886 71.0035 22.198C71.5315 22.51 71.9335 22.948 72.2095 23.512V21.946H73.6495ZM69.4375 29.92C70.3255 29.92 71.0095 29.62 71.4895 29.02C71.9695 28.408 72.2095 27.544 72.2095 26.428C72.2095 25.312 71.9695 24.454 71.4895 23.854C71.0095 23.254 70.3255 22.954 69.4375 22.954C68.5495 22.954 67.8535 23.266 67.3495 23.89C66.8575 24.502 66.6115 25.36 66.6115 26.464C66.6115 27.568 66.8575 28.42 67.3495 29.02C67.8415 29.62 68.5375 29.92 69.4375 29.92ZM80.2665 31.126C79.3905 31.126 78.6225 30.934 77.9625 30.55C77.3145 30.166 76.8105 29.626 76.4505 28.93C76.1025 28.222 75.9285 27.4 75.9285 26.464C75.9285 25.528 76.1085 24.706 76.4685 23.998C76.8285 23.278 77.3385 22.72 77.9985 22.324C78.6705 21.928 79.4505 21.73 80.3385 21.73C80.9505 21.73 81.5385 21.838 82.1025 22.054C82.6785 22.258 83.1525 22.546 83.5245 22.918L83.0385 23.998C82.5825 23.638 82.1385 23.374 81.7065 23.206C81.2865 23.038 80.8545 22.954 80.4105 22.954C79.4865 22.954 78.7605 23.266 78.2325 23.89C77.7045 24.502 77.4405 25.36 77.4405 26.464C77.4405 27.556 77.6985 28.408 78.2145 29.02C78.7425 29.62 79.4745 29.92 80.4105 29.92C80.8545 29.92 81.2865 29.836 81.7065 29.668C82.1385 29.5 82.5825 29.236 83.0385 28.876L83.5245 29.956C83.1405 30.316 82.6545 30.604 82.0665 30.82C81.4905 31.024 80.8905 31.126 80.2665 31.126ZM87.3421 23.098V28.048C87.3421 28.72 87.4801 29.194 87.7561 29.47C88.0321 29.734 88.4221 29.866 88.9261 29.866C89.2621 29.866 89.5861 29.812 89.8981 29.704V30.946C89.5261 31.066 89.1061 31.126 88.6381 31.126C87.7741 31.126 87.0961 30.886 86.6041 30.406C86.1241 29.914 85.8841 29.194 85.8841 28.246V23.098H84.1201V21.946H85.8841V19.624L87.3421 19.102V21.946H89.9341V23.098H87.3421ZM106.842 18.184V31H105.69L97.9505 20.686V31H96.5645V18.184H97.6985L105.438 28.498V18.184H106.842ZM117.788 21.946V31H116.348V29.362C116.084 29.926 115.682 30.364 115.142 30.676C114.614 30.976 113.996 31.126 113.288 31.126C112.484 31.126 111.776 30.934 111.164 30.55C110.564 30.166 110.096 29.626 109.76 28.93C109.436 28.222 109.274 27.4 109.274 26.464C109.274 25.528 109.442 24.706 109.778 23.998C110.114 23.278 110.582 22.72 111.182 22.324C111.794 21.928 112.496 21.73 113.288 21.73C113.996 21.73 114.614 21.886 115.142 22.198C115.67 22.51 116.072 22.948 116.348 23.512V21.946H117.788ZM113.576 29.92C114.464 29.92 115.148 29.62 115.628 29.02C116.108 28.408 116.348 27.544 116.348 26.428C116.348 25.312 116.108 24.454 115.628 23.854C115.148 23.254 114.464 22.954 113.576 22.954C112.688 22.954 111.992 23.266 111.488 23.89C110.996 24.502 110.75 25.36 110.75 26.464C110.75 27.568 110.996 28.42 111.488 29.02C111.98 29.62 112.676 29.92 113.576 29.92ZM122.551 23.098V28.048C122.551 28.72 122.689 29.194 122.965 29.47C123.241 29.734 123.631 29.866 124.135 29.866C124.471 29.866 124.795 29.812 125.107 29.704V30.946C124.735 31.066 124.315 31.126 123.847 31.126C122.983 31.126 122.305 30.886 121.813 30.406C121.333 29.914 121.093 29.194 121.093 28.246V23.098H119.329V21.946H121.093V19.624L122.551 19.102V21.946H125.143V23.098H122.551ZM126.9 21.946H128.358V31H126.9V21.946ZM128.538 18.112V19.768H126.756V18.112H128.538ZM139.145 21.964L135.239 31H133.853L130.001 21.964H131.531L134.591 29.416L137.687 21.964H139.145ZM148.224 26.428H141.582C141.594 27.58 141.858 28.45 142.374 29.038C142.902 29.626 143.664 29.92 144.66 29.92C145.716 29.92 146.688 29.566 147.576 28.858L148.062 29.92C147.666 30.292 147.156 30.586 146.532 30.802C145.92 31.018 145.29 31.126 144.642 31.126C143.226 31.126 142.116 30.712 141.312 29.884C140.508 29.044 140.106 27.898 140.106 26.446C140.106 25.522 140.286 24.706 140.646 23.998C141.006 23.278 141.51 22.72 142.158 22.324C142.806 21.928 143.544 21.73 144.372 21.73C145.572 21.73 146.514 22.126 147.198 22.918C147.882 23.698 148.224 24.778 148.224 26.158V26.428ZM144.39 22.864C143.634 22.864 143.016 23.092 142.536 23.548C142.068 24.004 141.768 24.646 141.636 25.474H146.91C146.838 24.622 146.586 23.974 146.154 23.53C145.734 23.086 145.146 22.864 144.39 22.864Z" fill="#0C1033"/>
</svg>
