<svg width="17" height="16" viewBox="0 0 17 16" fill="none" xmlns="http://www.w3.org/2000/svg">
<path d="M9.10016 0.368147L11.2081 4.57682C11.3057 4.77138 11.494 4.90667 11.7129 4.93798L16.4257 5.61334C16.9748 5.69161 17.1949 6.35802 16.7967 6.7393L13.3864 10.0154C13.2287 10.1675 13.156 10.3856 13.1935 10.6002L13.999 15.226C14.0932 15.7649 13.518 16.1764 13.0267 15.9226L8.81199 13.7388C8.61686 13.6382 8.38315 13.6382 8.18801 13.7388L3.97329 15.9226C3.48205 16.1775 2.90685 15.766 3.00101 15.226L3.80652 10.6002C3.84396 10.3856 3.77135 10.1675 3.61365 10.0154L0.2033 6.7393C-0.194914 6.3569 0.0251838 5.69161 0.574289 5.61334L5.28706 4.93798C5.50488 4.90667 5.69435 4.77138 5.79192 4.57682L7.89985 0.368147C8.14377 -0.122716 8.85397 -0.122716 9.10016 0.368147Z" fill="#0C1033"/>
</svg>
