<svg width="282" height="156" viewBox="0 0 282 156" fill="none" xmlns="http://www.w3.org/2000/svg">
<g clip-path="url(#clip0)">
<path d="M24.7427 107.999C25.5013 108.445 25.5013 109.135 24.7427 109.58C23.9842 110.025 22.7571 110.025 21.9986 109.58C21.2401 109.135 21.2401 108.445 21.9986 107.999C22.7795 107.554 23.9842 107.554 24.7427 107.999Z" fill="#0C1033"/>
<path d="M31.9029 103.881C32.6614 104.326 32.6614 105.016 31.9029 105.462C31.1444 105.907 29.9173 105.907 29.1588 105.462C28.4002 105.016 28.4002 104.326 29.1588 103.881C29.9173 103.436 31.1444 103.436 31.9029 103.881Z" fill="#0C1033"/>
<path d="M39.0435 99.7622C39.8021 100.207 39.8021 100.898 39.0435 101.343C38.285 101.788 37.0579 101.788 36.2994 101.343C35.5408 100.898 35.5408 100.207 36.2994 99.7622C37.0579 99.3169 38.285 99.3169 39.0435 99.7622Z" fill="#0C1033"/>
<path d="M46.2037 95.6435C46.9622 96.0888 46.9622 96.779 46.2037 97.2242C45.4451 97.6695 44.2181 97.6695 43.4595 97.2242C42.701 96.779 42.701 96.0888 43.4595 95.6435C44.2181 95.1983 45.4451 95.1983 46.2037 95.6435Z" fill="#0C1033"/>
<path d="M53.3443 91.5244C54.1029 91.9696 54.1029 92.6598 53.3443 93.1051C52.5858 93.5503 51.3587 93.5503 50.6002 93.1051C49.8416 92.6598 49.8416 91.9696 50.6002 91.5244C51.3587 91.0791 52.5858 91.0791 53.3443 91.5244Z" fill="#0C1033"/>
<path d="M60.5045 87.3837C61.263 87.8289 61.263 88.5191 60.5045 88.9644C59.7459 89.4096 58.5189 89.4096 57.7603 88.9644C57.0018 88.5191 57.0018 87.8289 57.7603 87.3837C58.5189 86.9607 59.7459 86.9607 60.5045 87.3837Z" fill="#0C1033"/>
<path d="M67.6451 83.265C68.4036 83.7103 68.4036 84.4004 67.6451 84.8457C66.8865 85.291 65.6595 85.291 64.9009 84.8457C64.1424 84.4004 64.1424 83.7103 64.9009 83.265C65.6595 82.842 66.8865 82.842 67.6451 83.265Z" fill="#0C1033"/>
<path d="M74.7818 79.1459C75.5403 79.5911 75.5403 80.2813 74.7818 80.7266C74.0233 81.1718 72.7962 81.1718 72.0377 80.7266C71.2791 80.2813 71.2791 79.5911 72.0377 79.1459C72.8185 78.7229 74.0456 78.7229 74.7818 79.1459Z" fill="#0C1033"/>
<path d="M81.9459 75.0277C82.7044 75.473 82.7044 76.1631 81.9459 76.6084C81.1873 77.0537 79.9603 77.0537 79.2017 76.6084C78.4432 76.1631 78.4432 75.473 79.2017 75.0277C79.9603 74.6047 81.1873 74.6047 81.9459 75.0277Z" fill="#0C1033"/>
<path d="M89.0826 70.9086C89.8411 71.3538 89.8411 72.044 89.0826 72.4893C88.324 72.9345 87.097 72.9345 86.3384 72.4893C85.5799 72.044 85.5799 71.3538 86.3384 70.9086C87.1193 70.4856 88.3464 70.4856 89.0826 70.9086Z" fill="#0C1033"/>
<path d="M96.2466 66.7899C97.0052 67.2352 97.0052 67.9253 96.2466 68.3706C95.4881 68.8159 94.261 68.8159 93.5025 68.3706C92.744 67.9253 92.744 67.2352 93.5025 66.7899C94.261 66.3669 95.4881 66.3669 96.2466 66.7899Z" fill="#0C1033"/>
<path d="M103.383 62.6713C104.142 63.1165 104.142 63.8067 103.383 64.252C102.625 64.6972 101.398 64.6972 100.639 64.252C99.8807 63.8067 99.8807 63.1165 100.639 62.6713C101.42 62.2483 102.625 62.2483 103.383 62.6713Z" fill="#0C1033"/>
<path d="M110.547 58.5526C111.306 58.9979 111.306 59.688 110.547 60.1333C109.789 60.5786 108.562 60.5786 107.803 60.1333C107.045 59.688 107.045 58.9979 107.803 58.5526C108.562 58.1296 109.789 58.1296 110.547 58.5526Z" fill="#0C1033"/>
<path d="M10.442 107.999C11.2005 108.445 11.2005 109.135 10.442 109.58C9.68341 110.025 8.45636 110.025 7.69781 109.58C6.93927 109.135 6.93927 108.445 7.69781 107.999C8.47867 107.554 9.70572 107.554 10.442 107.999Z" fill="#0C1033"/>
<path d="M17.6021 103.881C18.3607 104.326 18.3607 105.016 17.6021 105.462C16.8436 105.907 15.6165 105.907 14.858 105.462C14.0994 105.016 14.0994 104.326 14.858 103.881C15.6165 103.436 16.8436 103.436 17.6021 103.881Z" fill="#0C1033"/>
<path d="M24.7427 99.7622C25.5013 100.207 25.5013 100.898 24.7427 101.343C23.9842 101.788 22.7571 101.788 21.9986 101.343C21.2401 100.898 21.2401 100.207 21.9986 99.7622C22.7795 99.3169 23.9842 99.3169 24.7427 99.7622Z" fill="#0C1033"/>
<path d="M31.9029 95.6435C32.6614 96.0888 32.6614 96.779 31.9029 97.2242C31.1444 97.6695 29.9173 97.6695 29.1588 97.2242C28.4002 96.779 28.4002 96.0888 29.1588 95.6435C29.9173 95.1983 31.1444 95.1983 31.9029 95.6435Z" fill="#0C1033"/>
<path d="M39.0435 91.5244C39.8021 91.9696 39.8021 92.6598 39.0435 93.1051C38.285 93.5503 37.0579 93.5503 36.2994 93.1051C35.5408 92.6598 35.5408 91.9696 36.2994 91.5244C37.0579 91.0791 38.285 91.0791 39.0435 91.5244Z" fill="#0C1033"/>
<path d="M46.2037 87.3837C46.9622 87.8289 46.9622 88.5191 46.2037 88.9644C45.4451 89.4096 44.2181 89.4096 43.4595 88.9644C42.701 88.5191 42.701 87.8289 43.4595 87.3837C44.2181 86.9607 45.4451 86.9607 46.2037 87.3837Z" fill="#0C1033"/>
<path d="M53.3443 83.265C54.1029 83.7103 54.1029 84.4004 53.3443 84.8457C52.5858 85.291 51.3587 85.291 50.6002 84.8457C49.8416 84.4004 49.8416 83.7103 50.6002 83.265C51.3587 82.842 52.5858 82.842 53.3443 83.265Z" fill="#0C1033"/>
<path d="M60.5045 79.1459C61.263 79.5911 61.263 80.2813 60.5045 80.7266C59.7459 81.1718 58.5189 81.1718 57.7603 80.7266C57.0018 80.2813 57.0018 79.5911 57.7603 79.1459C58.5189 78.7229 59.7459 78.7229 60.5045 79.1459Z" fill="#0C1033"/>
<path d="M67.6451 75.0277C68.4036 75.473 68.4036 76.1631 67.6451 76.6084C66.8865 77.0537 65.6595 77.0537 64.9009 76.6084C64.1424 76.1631 64.1424 75.473 64.9009 75.0277C65.6595 74.6047 66.8865 74.6047 67.6451 75.0277Z" fill="#0C1033"/>
<path d="M74.7818 70.9086C75.5403 71.3538 75.5403 72.044 74.7818 72.4893C74.0233 72.9345 72.7962 72.9345 72.0377 72.4893C71.2791 72.044 71.2791 71.3538 72.0377 70.9086C72.8185 70.4856 74.0456 70.4856 74.7818 70.9086Z" fill="#0C1033"/>
<path d="M81.9459 66.7899C82.7044 67.2352 82.7044 67.9253 81.9459 68.3706C81.1873 68.8159 79.9603 68.8159 79.2017 68.3706C78.4432 67.9253 78.4432 67.2352 79.2017 66.7899C79.9603 66.3669 81.1873 66.3669 81.9459 66.7899Z" fill="#0C1033"/>
<path d="M89.0826 62.6713C89.8411 63.1165 89.8411 63.8067 89.0826 64.252C88.324 64.6972 87.097 64.6972 86.3384 64.252C85.5799 63.8067 85.5799 63.1165 86.3384 62.6713C87.1193 62.2483 88.3464 62.2483 89.0826 62.6713Z" fill="#0C1033"/>
<path d="M96.2466 58.5526C97.0052 58.9979 97.0052 59.688 96.2466 60.1333C95.4881 60.5786 94.261 60.5786 93.5025 60.1333C92.744 59.688 92.744 58.9979 93.5025 58.5526C94.261 58.1296 95.4881 58.1296 96.2466 58.5526Z" fill="#0C1033"/>
<path d="M103.383 54.434C104.142 54.8792 104.142 55.5694 103.383 56.0147C102.625 56.4599 101.398 56.4599 100.639 56.0147C99.8807 55.5694 99.8807 54.8792 100.639 54.434C101.42 54.0109 102.625 54.0109 103.383 54.434Z" fill="#0C1033"/>
<path d="M3.30133 103.881C4.05988 104.326 4.05988 105.016 3.30133 105.462C2.54279 105.907 1.31573 105.907 0.557189 105.462C-0.201355 105.016 -0.201355 104.326 0.557189 103.881C1.31573 103.436 2.54279 103.436 3.30133 103.881Z" fill="#0C1033"/>
<path d="M10.442 99.7622C11.2005 100.207 11.2005 100.898 10.442 101.343C9.68341 101.788 8.45636 101.788 7.69781 101.343C6.93927 100.898 6.93927 100.207 7.69781 99.7622C8.47867 99.3169 9.70572 99.3169 10.442 99.7622Z" fill="#0C1033"/>
<path d="M16.2418 97.5359C17.3137 97.5359 18.1827 97.0375 18.1827 96.4227C18.1827 95.808 17.3137 95.3096 16.2418 95.3096C15.1698 95.3096 14.3008 95.808 14.3008 96.4227C14.3008 97.0375 15.1698 97.5359 16.2418 97.5359Z" fill="#0C1033"/>
<path d="M24.7427 91.5244C25.5013 91.9696 25.5013 92.6598 24.7427 93.1051C23.9842 93.5503 22.7571 93.5503 21.9986 93.1051C21.2401 92.6598 21.2401 91.9696 21.9986 91.5244C22.7795 91.0791 23.9842 91.0791 24.7427 91.5244Z" fill="#0C1033"/>
<path d="M31.9029 87.3837C32.6614 87.8289 32.6614 88.5191 31.9029 88.9644C31.1444 89.4096 29.9173 89.4096 29.1588 88.9644C28.4002 88.5191 28.4002 87.8289 29.1588 87.3837C29.9173 86.9607 31.1444 86.9607 31.9029 87.3837Z" fill="#0C1033"/>
<path d="M39.0435 83.265C39.8021 83.7103 39.8021 84.4004 39.0435 84.8457C38.285 85.291 37.0579 85.291 36.2994 84.8457C35.5408 84.4004 35.5408 83.7103 36.2994 83.265C37.0802 82.842 38.285 82.842 39.0435 83.265Z" fill="#0C1033"/>
<path d="M46.2037 79.1459C46.9622 79.5911 46.9622 80.2813 46.2037 80.7266C45.4451 81.1718 44.2181 81.1718 43.4595 80.7266C42.701 80.2813 42.701 79.5911 43.4595 79.1459C44.2181 78.7229 45.4451 78.7229 46.2037 79.1459Z" fill="#0C1033"/>
<path d="M53.3443 75.0277C54.1029 75.473 54.1029 76.1631 53.3443 76.6084C52.5858 77.0537 51.3587 77.0537 50.6002 76.6084C49.8416 76.1631 49.8416 75.473 50.6002 75.0277C51.3587 74.6047 52.5858 74.6047 53.3443 75.0277Z" fill="#0C1033"/>
<path d="M60.5045 70.9086C61.263 71.3538 61.263 72.044 60.5045 72.4893C59.7459 72.9345 58.5189 72.9345 57.7603 72.4893C57.0018 72.044 57.0018 71.3538 57.7603 70.9086C58.5189 70.4856 59.7459 70.4856 60.5045 70.9086Z" fill="#0C1033"/>
<path d="M66.2847 68.7049C67.3567 68.7049 68.2257 68.2065 68.2257 67.5917C68.2257 66.9769 67.3567 66.4785 66.2847 66.4785C65.2128 66.4785 64.3438 66.9769 64.3438 67.5917C64.3438 68.2065 65.2128 68.7049 66.2847 68.7049Z" fill="#0C1033"/>
<path d="M74.8052 62.6713C75.5638 63.1165 75.5638 63.8067 74.8052 64.252C74.0467 64.6972 72.8196 64.6972 72.0611 64.252C71.3026 63.8067 71.3026 63.1165 72.0611 62.6713C72.8196 62.2483 74.0467 62.2483 74.8052 62.6713Z" fill="#0C1033"/>
<path d="M81.9459 58.5526C82.7044 58.9979 82.7044 59.688 81.9459 60.1333C81.1873 60.5786 79.9603 60.5786 79.2017 60.1333C78.4432 59.688 78.4432 58.9979 79.2017 58.5526C79.9603 58.1296 81.1873 58.1296 81.9459 58.5526Z" fill="#0C1033"/>
<path d="M89.0826 54.434C89.8411 54.8792 89.8411 55.5694 89.0826 56.0147C88.324 56.4599 87.097 56.4599 86.3384 56.0147C85.5799 55.5694 85.5799 54.8792 86.3384 54.434C87.1193 54.0109 88.3464 54.0109 89.0826 54.434Z" fill="#0C1033"/>
<path d="M96.2466 50.3148C97.0052 50.7601 97.0052 51.4502 96.2466 51.8955C95.4881 52.3408 94.261 52.3408 93.5025 51.8955C92.744 51.4502 92.744 50.7601 93.5025 50.3148C94.261 49.8918 95.4881 49.8918 96.2466 50.3148Z" fill="#0C1033"/>
<path d="M3.30133 95.6435C4.05988 96.0888 4.05988 96.779 3.30133 97.2242C2.54279 97.6695 1.31573 97.6695 0.557189 97.2242C-0.201355 96.779 -0.201355 96.0888 0.557189 95.6435C1.31573 95.1983 2.54279 95.1983 3.30133 95.6435Z" fill="#0C1033"/>
<path d="M7.71735 91.5244C8.47589 91.0791 9.70295 91.0791 10.4615 91.5244C11.22 91.9696 11.22 92.6598 10.4615 93.1051C9.70295 93.5503 8.47589 93.5503 7.71735 93.1051C6.9588 92.6598 6.9588 91.9474 7.71735 91.5244C8.47589 91.0791 6.9588 91.9474 7.71735 91.5244Z" fill="#0C1033"/>
<path d="M17.602 87.3838C18.3605 87.829 18.3605 88.5192 17.602 88.9645C16.8434 89.4097 15.6164 89.4097 14.8578 88.9645C14.0993 88.5415 16.8434 86.9607 17.602 87.3838Z" fill="#0C1033"/>
<path d="M22.0181 83.2646C22.7767 82.8193 24.0037 82.8193 24.7623 83.2646C25.5208 83.7099 25.5208 84.4001 24.7623 84.8453C24.0037 85.2906 22.7767 85.2906 22.0181 84.8453C21.2596 84.4001 21.2596 83.7099 22.0181 83.2646C22.7767 82.8416 21.2596 83.7099 22.0181 83.2646Z" fill="#0C1033"/>
<path d="M29.1588 79.1465C29.9173 78.7012 31.1444 78.7012 31.9029 79.1465C32.6614 79.5917 32.6614 80.2819 31.9029 80.7272C31.1444 81.1724 29.9173 81.1724 29.1588 80.7272C28.4002 80.3041 28.4002 79.5917 29.1588 79.1465C29.9173 78.7234 28.4002 79.5917 29.1588 79.1465Z" fill="#0C1033"/>
<path d="M36.3189 75.0273C37.0775 74.582 38.3045 74.582 39.0631 75.0273C39.8216 75.4726 39.8216 76.1627 39.0631 76.608C38.3045 77.0533 37.0775 77.0533 36.3189 76.608C35.5604 76.185 35.5604 75.4726 36.3189 75.0273C37.0775 74.6043 35.5604 75.4726 36.3189 75.0273Z" fill="#0C1033"/>
<path d="M43.4595 70.9087C44.2181 70.4634 45.4451 70.4634 46.2037 70.9087C46.9622 71.3539 46.9622 72.0441 46.2037 72.4894C45.4451 72.9346 44.2181 72.9346 43.4595 72.4894C42.701 72.0441 42.701 71.3539 43.4595 70.9087C44.2181 70.4857 42.701 71.3539 43.4595 70.9087Z" fill="#0C1033"/>
<path d="M53.3443 66.7899C54.1029 67.2352 54.1029 67.9253 53.3443 68.3706C52.5858 68.8159 51.3587 68.8159 50.6002 68.3706C49.8416 67.9253 49.8416 67.2352 50.6002 66.7899C51.3587 66.3669 52.5858 66.3669 53.3443 66.7899Z" fill="#0C1033"/>
<path d="M57.7603 62.6714C58.5189 62.2261 59.7459 62.2261 60.5045 62.6714C61.263 63.1166 61.263 63.8068 60.5045 64.2521C59.7459 64.6973 58.5189 64.6973 57.7603 64.2521C57.0018 63.8291 57.0018 63.1166 57.7603 62.6714C58.5189 62.2483 57.0018 63.1166 57.7603 62.6714Z" fill="#0C1033"/>
<path d="M64.8998 58.5527C65.6584 58.1074 66.8854 58.1074 67.644 58.5527C68.4025 58.998 68.4025 59.6881 67.644 60.1334C66.8854 60.5787 65.6584 60.5787 64.8998 60.1334C64.1636 59.7104 64.1636 58.998 64.8998 58.5527C65.6584 58.1297 64.1636 58.998 64.8998 58.5527Z" fill="#0C1033"/>
<path d="M72.0611 54.4336C72.8196 53.9883 74.0467 53.9883 74.8052 54.4336C75.5638 54.8788 75.5638 55.569 74.8052 56.0143C74.0467 56.4595 72.8196 56.4595 72.0611 56.0143C71.3026 55.5913 71.3026 54.8788 72.0611 54.4336C72.8196 54.0106 71.3026 54.8788 72.0611 54.4336Z" fill="#0C1033"/>
<path d="M79.2006 50.3149C79.9591 49.8696 81.1862 49.8696 81.9447 50.3149C82.7033 50.7602 82.7033 51.4503 81.9447 51.8956C81.1862 52.3409 79.9591 52.3409 79.2006 51.8956C78.4644 51.4726 78.4644 50.7602 79.2006 50.3149C79.9591 49.8919 78.4644 50.7602 79.2006 50.3149Z" fill="#0C1033"/>
<path d="M86.3619 46.1963C87.1204 45.751 88.3475 45.751 89.106 46.1963C89.8646 46.6415 89.8646 47.3317 89.106 47.777C88.3475 48.2222 87.1204 48.2222 86.3619 47.777C85.6033 47.3539 85.6033 46.6415 86.3619 46.1963C87.1204 45.7733 85.6033 46.6415 86.3619 46.1963Z" fill="#0C1033"/>
<path d="M117.684 54.4115C118.443 54.8568 118.443 55.5469 117.684 55.9922C116.926 56.4375 115.699 56.4375 114.94 55.9922C114.181 55.5469 114.181 54.8568 114.94 54.4115C115.699 53.9885 116.926 53.9885 117.684 54.4115Z" fill="#0C1033"/>
<path d="M124.825 50.2928C125.583 50.7381 125.583 51.4283 124.825 51.8735C124.066 52.3188 122.839 52.3188 122.081 51.8735C121.322 51.4283 121.322 50.7381 122.081 50.2928C122.861 49.8698 124.089 49.8698 124.825 50.2928Z" fill="#0C1033"/>
<path d="M131.985 46.1738C132.743 46.6191 132.743 47.3092 131.985 47.7545C131.226 48.1998 129.999 48.1998 129.241 47.7545C128.482 47.3092 128.482 46.6191 129.241 46.1738C129.999 45.7285 131.226 45.7508 131.985 46.1738Z" fill="#0C1033"/>
<path d="M139.126 42.055C139.884 42.5003 139.884 43.1905 139.126 43.6358C138.367 44.081 137.14 44.081 136.381 43.6358C135.623 43.1905 135.623 42.5003 136.381 42.055C137.162 41.632 138.389 41.632 139.126 42.055Z" fill="#0C1033"/>
<path d="M146.286 39.5172C145.527 39.9625 144.3 39.9625 143.542 39.5172C142.783 39.0719 142.783 38.3818 143.542 37.9365C144.3 37.4912 145.527 37.4912 146.286 37.9365C147.044 38.3818 147.044 39.0719 146.286 39.5172C145.527 39.9625 147.044 39.0719 146.286 39.5172Z" fill="#0C1033"/>
<path d="M153.426 33.8177C154.185 34.263 154.185 34.9532 153.426 35.3984C152.668 35.8437 151.441 35.8437 150.682 35.3984C149.924 34.9532 149.924 34.263 150.682 33.8177C151.463 33.3947 152.668 33.3947 153.426 33.8177Z" fill="#0C1033"/>
<path d="M160.587 29.6991C161.345 30.1444 161.345 30.8345 160.587 31.2798C159.828 31.7251 158.601 31.7251 157.842 31.2798C157.084 30.8345 157.084 30.1444 157.842 29.6991C158.601 29.2761 159.828 29.2761 160.587 29.6991Z" fill="#0C1033"/>
<path d="M167.727 25.5804C168.486 26.0257 168.486 26.7159 167.727 27.1611C166.969 27.6064 165.742 27.6064 164.983 27.1611C164.224 26.7159 164.224 26.0257 164.983 25.5804C165.742 25.1574 166.969 25.1574 167.727 25.5804Z" fill="#0C1033"/>
<path d="M110.547 50.2928C111.306 50.7381 111.306 51.4283 110.547 51.8735C109.789 52.3188 108.562 52.3188 107.803 51.8735C107.045 51.4283 107.045 50.7381 107.803 50.2928C108.562 49.8698 109.789 49.8698 110.547 50.2928Z" fill="#0C1033"/>
<path d="M117.684 46.1742C118.443 46.6195 118.443 47.3096 117.684 47.7549C116.926 48.2002 115.699 48.2002 114.94 47.7549C114.181 47.3096 114.181 46.6195 114.94 46.1742C115.699 45.7512 116.926 45.7512 117.684 46.1742Z" fill="#0C1033"/>
<path d="M124.825 42.055C125.583 42.5003 125.583 43.1905 124.825 43.6358C124.066 44.081 122.839 44.081 122.081 43.6358C121.322 43.1905 121.322 42.5003 122.081 42.055C122.861 41.632 124.089 41.632 124.825 42.055Z" fill="#0C1033"/>
<path d="M131.985 37.9365C132.743 38.3818 132.743 39.0719 131.985 39.5172C131.226 39.9625 129.999 39.9625 129.241 39.5172C128.482 39.0719 128.482 38.3818 129.241 37.9365C129.999 37.4912 131.226 37.5135 131.985 37.9365Z" fill="#0C1033"/>
<path d="M139.126 33.8177C139.884 34.263 139.884 34.9532 139.126 35.3984C138.367 35.8437 137.14 35.8437 136.381 35.3984C135.623 34.9532 135.623 34.263 136.381 33.8177C137.162 33.3947 138.389 33.3947 139.126 33.8177Z" fill="#0C1033"/>
<path d="M146.286 29.6991C147.044 30.1444 147.044 30.8345 146.286 31.2798C145.527 31.7251 144.3 31.7251 143.542 31.2798C142.783 30.8345 142.783 30.1444 143.542 29.6991C144.3 29.2761 145.527 29.2761 146.286 29.6991Z" fill="#0C1033"/>
<path d="M153.426 25.5804C154.185 26.0257 154.185 26.7159 153.426 27.1611C152.668 27.6064 151.441 27.6064 150.682 27.1611C149.924 26.7159 149.924 26.0257 150.682 25.5804C151.463 25.1574 152.668 25.1574 153.426 25.5804Z" fill="#0C1033"/>
<path d="M160.587 21.4618C161.345 21.9071 161.345 22.5972 160.587 23.0425C159.828 23.4878 158.601 23.4878 157.842 23.0425C157.084 22.5972 157.084 21.9071 157.842 21.4618C158.601 21.0388 159.828 21.0388 160.587 21.4618Z" fill="#0C1033"/>
<path d="M167.727 17.3426C168.486 17.7879 168.486 18.4781 167.727 18.9233C166.969 19.3686 165.742 19.3686 164.983 18.9233C164.224 18.4781 164.224 17.7879 164.983 17.3426C165.742 16.9196 166.969 16.9196 167.727 17.3426Z" fill="#0C1033"/>
<path d="M103.383 46.1742C104.142 46.6195 104.142 47.3096 103.383 47.7549C102.625 48.2002 101.398 48.2002 100.639 47.7549C99.8807 47.3096 99.8807 46.6195 100.639 46.1742C101.398 45.7512 102.625 45.7512 103.383 46.1742Z" fill="#0C1033"/>
<path d="M110.547 42.055C111.306 42.5003 111.306 43.1905 110.547 43.6358C109.789 44.081 108.562 44.081 107.803 43.6358C107.045 43.1905 107.045 42.5003 107.803 42.055C108.562 41.632 109.789 41.632 110.547 42.055Z" fill="#0C1033"/>
<path d="M117.684 37.9364C118.443 38.3817 118.443 39.0718 117.684 39.5171C116.926 39.9624 115.699 39.9624 114.94 39.5171C114.181 39.0718 114.181 38.3817 114.94 37.9364C115.699 37.5134 116.926 37.5134 117.684 37.9364Z" fill="#0C1033"/>
<path d="M123.464 35.7322C124.536 35.7322 125.405 35.2338 125.405 34.619C125.405 34.0042 124.536 33.5059 123.464 33.5059C122.392 33.5059 121.523 34.0042 121.523 34.619C121.523 35.2338 122.392 35.7322 123.464 35.7322Z" fill="#0C1033"/>
<path d="M131.985 29.6991C132.743 30.1444 132.743 30.8345 131.985 31.2798C131.226 31.7251 129.999 31.7251 129.241 31.2798C128.482 30.8345 128.482 30.1444 129.241 29.6991C129.999 29.2761 131.226 29.2761 131.985 29.6991Z" fill="#0C1033"/>
<path d="M139.126 25.5804C139.884 26.0257 139.884 26.7159 139.126 27.1611C138.367 27.6064 137.14 27.6064 136.381 27.1611C135.623 26.7159 135.623 26.0257 136.381 25.5804C137.162 25.1574 138.389 25.1574 139.126 25.5804Z" fill="#0C1033"/>
<path d="M146.286 21.4618C147.044 21.9071 147.044 22.5972 146.286 23.0425C145.527 23.4878 144.3 23.4878 143.542 23.0425C142.783 22.5972 142.783 21.9071 143.542 21.4618C144.3 21.0388 145.527 21.0388 146.286 21.4618Z" fill="#0C1033"/>
<path d="M152.066 19.2576C153.138 19.2576 154.007 18.7592 154.007 18.1444C154.007 17.5296 153.138 17.0312 152.066 17.0312C150.994 17.0312 150.125 17.5296 150.125 18.1444C150.125 18.7592 150.994 19.2576 152.066 19.2576Z" fill="#0C1033"/>
<path d="M157.842 13.2241C158.601 12.7788 159.828 12.7788 160.587 13.2241C161.345 13.6694 161.345 14.3595 160.587 14.8048C159.828 15.2501 158.601 15.2501 157.842 14.8048C157.084 14.3595 157.084 13.6694 157.842 13.2241C158.601 12.8011 157.084 13.6694 157.842 13.2241Z" fill="#0C1033"/>
<path d="M96.2465 42.0556C97.005 42.5009 97.005 43.1911 96.2465 43.6363C95.4879 44.0816 94.2609 44.0816 93.5023 43.6363C92.7438 43.2133 95.4879 41.6326 96.2465 42.0556Z" fill="#0C1033"/>
<path d="M20.3683 78.9237L155.902 1.93671C159.249 0.0443192 163.488 1.20202 165.384 4.54154C167.281 7.88105 166.12 12.1111 162.774 14.0035L27.2622 90.9905C23.9156 92.8829 19.6767 91.7252 17.7804 88.3857C15.8617 85.0685 17.0441 80.8161 20.3683 78.9237Z" fill="white"/>
<path d="M20.3682 81.3949L155.88 4.4079C159.226 2.51551 163.465 3.67321 165.362 7.01273C167.258 10.3522 164.068 12.4895 160.721 14.3819L27.2398 89.4766C23.8932 91.3689 19.6543 94.2187 17.758 90.8792C15.8616 87.5396 17.0217 83.3096 20.3682 81.3949Z" fill="#1F5A7B"/>
<path d="M165.094 4.5195C164.045 2.67163 162.26 1.51393 160.297 1.15771C161.613 4.34139 160.408 8.05938 157.33 9.8182L21.8403 86.8052C20.3455 87.6512 18.6945 87.8516 17.1328 87.5622C17.2444 87.8293 17.3336 88.1187 17.4898 88.3636C19.3861 91.7032 23.6474 92.8609 26.9716 90.9685L162.506 13.9815C165.83 12.0891 167.012 7.85901 165.094 4.5195Z" fill="#0C1033"/>
<path d="M23.8251 92.9274C23.1112 92.9274 22.3973 92.8383 21.7057 92.638C19.6531 92.0814 17.9353 90.7456 16.8867 88.8977C15.8381 87.0498 15.5704 84.8903 16.1281 82.842C16.6859 80.7938 18.0245 79.0795 19.8762 78.0331L155.388 1.04612C157.24 -0.000259057 159.404 -0.26742 161.456 0.289166C163.509 0.845752 165.227 2.18156 166.275 4.02943C168.462 7.85874 167.101 12.7344 163.286 14.894L27.774 91.881C26.547 92.5712 25.1861 92.9274 23.8251 92.9274ZM159.315 2.04798C158.288 2.04798 157.307 2.31514 156.392 2.8272L20.8802 79.8142C19.497 80.5934 18.5153 81.8624 18.0914 83.3986C17.6675 84.9348 17.8683 86.5155 18.6492 87.8958C19.43 89.2762 20.7017 90.2558 22.2411 90.6788C23.7805 91.1018 25.3645 90.9014 26.7478 90.1222L162.259 13.1129C163.643 12.3337 164.624 11.0647 165.048 9.5285C165.472 7.99232 165.271 6.41161 164.49 5.03128C163.71 3.65095 162.438 2.67136 160.899 2.24835C160.385 2.11477 159.85 2.04798 159.315 2.04798Z" fill="#0C1033"/>
<path d="M97.2036 31.5915L146.643 3.49507C147.981 2.73811 149.699 3.20564 150.48 4.54145L150.748 5.00898C151.506 6.34479 151.038 8.05907 149.699 8.83829L100.238 36.9348C98.8992 37.6917 97.1813 37.2242 96.4005 35.8884L96.1551 35.3986C95.3742 34.0628 95.8427 32.3485 97.2036 31.5915Z" fill="#0C1033"/>
<path d="M97.2027 34.1298L146.642 6.05561C147.981 5.29865 149.698 5.76619 150.479 7.10199L150.747 7.56953C151.506 8.90533 151.037 10.6196 149.698 11.3988L100.237 39.473C98.8982 40.23 97.1804 39.7625 96.3995 38.4267L96.1318 37.9591C95.3732 36.6011 95.8418 34.909 97.2027 34.1298Z" fill="white"/>
<path d="M98.8542 38.3374C98.5195 38.3374 98.1625 38.2929 97.8279 38.2039C96.8462 37.9367 96.0208 37.2911 95.5076 36.4005L95.2399 35.933C94.7268 35.0424 94.6152 34.0183 94.883 33.0165C95.1507 32.0369 95.7977 31.2131 96.6901 30.7011L146.129 2.6046C147.022 2.09254 148.048 1.98122 149.052 2.24838C150.034 2.51555 150.859 3.16119 151.372 4.05172L151.64 4.51926C152.688 6.34486 152.041 8.70479 150.212 9.75117L100.751 37.8254C100.17 38.1593 99.5235 38.3374 98.8542 38.3374ZM148.026 4.16304C147.713 4.16304 147.423 4.2521 147.156 4.40794L97.7163 32.4822C97.3148 32.7271 97.0024 33.1055 96.8909 33.5508C96.757 34.0183 96.8239 34.4859 97.0693 34.9089L97.3371 35.3764C97.5825 35.7994 97.9618 36.0888 98.408 36.2224C98.8765 36.356 99.345 36.2892 99.7466 36.0443L149.163 7.94783C150.011 7.45803 150.324 6.38939 149.833 5.52111L149.565 5.05358C149.32 4.65284 148.94 4.34115 148.494 4.22983C148.338 4.18531 148.182 4.16304 148.026 4.16304Z" fill="#0C1033"/>
<path d="M22.0852 92.1486L23.223 91.2136C25.2309 89.5661 25.6325 86.6273 24.1154 84.5123C22.866 82.7534 20.6127 81.9965 18.5602 82.6644L16.9539 83.1764L6.6912 93.0392C6.0219 93.6848 5.88804 94.6866 6.33424 95.4881C6.80275 96.3119 7.7844 96.6904 8.69911 96.4009L22.0852 92.1486Z" fill="#1F5A7B"/>
<path d="M22.3519 95.6218L23.4898 94.6867C25.4977 93.0392 25.8993 90.1004 24.3822 87.9854C23.1328 86.2266 20.8795 85.4696 18.8269 86.1375L17.2429 86.6496L6.98026 96.5123C6.31096 97.1579 6.1771 98.1598 6.6233 98.9613C7.09182 99.785 8.07346 100.164 8.98818 99.8741L22.3519 95.6218Z" fill="white"/>
<path d="M8.09762 97.5139C7.02673 97.5139 6.00047 96.9351 5.44271 95.9777C4.7511 94.7755 4.9742 93.2393 5.97816 92.282L16.4193 82.2635L18.2264 81.6846C20.7252 80.9054 23.4247 81.7959 24.9418 83.9332C26.7489 86.4712 26.2804 90.0334 23.8709 92.0149L22.3984 93.128L9.01233 97.3803C8.7223 97.4694 8.40996 97.5139 8.09762 97.5139ZM17.5125 84.0891L7.40601 93.7737C7.07135 94.0853 7.00442 94.5751 7.22752 94.9759C7.45063 95.3766 7.94145 95.577 8.38765 95.4212L21.5729 91.2356L22.5546 90.4341C24.1386 89.1429 24.4509 86.8052 23.2685 85.1354C22.2645 83.7328 20.502 83.1317 18.8734 83.6661L17.5125 84.0891Z" fill="#0C1033"/>
<path d="M98.2076 154.086C98.9661 154.531 98.9661 155.221 98.2076 155.667C97.449 156.112 96.222 156.112 95.4634 155.667C94.7049 155.221 94.7049 154.531 95.4634 154.086C96.222 153.663 97.449 153.663 98.2076 154.086Z" fill="#0C1033"/>
<path d="M105.348 149.967C106.107 150.412 106.107 151.102 105.348 151.547C104.59 151.993 103.363 151.993 102.604 151.547C101.846 151.102 101.846 150.412 102.604 149.967C103.385 149.544 104.612 149.544 105.348 149.967Z" fill="#0C1033"/>
<path d="M112.508 145.848C113.267 146.293 113.267 146.983 112.508 147.429C111.75 147.874 110.523 147.874 109.764 147.429C109.006 146.983 109.006 146.293 109.764 145.848C110.523 145.425 111.75 145.425 112.508 145.848Z" fill="#0C1033"/>
<path d="M83.9068 154.086C84.6654 154.531 84.6654 155.221 83.9068 155.667C83.1483 156.112 81.9212 156.112 81.1627 155.667C80.4041 155.221 80.4041 154.531 81.1627 154.086C81.9212 153.663 83.1483 153.663 83.9068 154.086Z" fill="#0C1033"/>
<path d="M91.0474 149.967C91.806 150.412 91.806 151.102 91.0474 151.547C90.2889 151.993 89.0618 151.993 88.3033 151.547C87.5447 151.102 87.5447 150.412 88.3033 149.967C89.0841 149.544 90.3112 149.544 91.0474 149.967Z" fill="#0C1033"/>
<path d="M98.2076 145.848C98.9661 146.293 98.9661 146.983 98.2076 147.429C97.449 147.874 96.222 147.874 95.4634 147.429C94.7049 146.983 94.7049 146.293 95.4634 145.848C96.222 145.425 97.449 145.425 98.2076 145.848Z" fill="#0C1033"/>
<path d="M105.348 141.729C106.107 142.175 106.107 142.865 105.348 143.31C104.59 143.755 103.363 143.755 102.604 143.31C101.846 142.865 101.846 142.175 102.604 141.729C103.385 141.306 104.612 141.306 105.348 141.729Z" fill="#0C1033"/>
<path d="M112.508 137.611C113.267 138.056 113.267 138.746 112.508 139.191C111.75 139.637 110.523 139.637 109.764 139.191C109.006 138.746 109.006 138.056 109.764 137.611C110.523 137.188 111.75 137.188 112.508 137.611Z" fill="#0C1033"/>
<path d="M76.7662 149.967C77.5247 150.412 77.5247 151.102 76.7662 151.547C76.0076 151.993 74.7806 151.993 74.022 151.547C73.2635 151.102 73.2635 150.412 74.022 149.967C74.7806 149.544 76.0076 149.544 76.7662 149.967Z" fill="#0C1033"/>
<path d="M83.9068 145.848C84.6654 146.293 84.6654 146.983 83.9068 147.429C83.1483 147.874 81.9212 147.874 81.1627 147.429C80.4041 146.983 80.4041 146.293 81.1627 145.848C81.9212 145.425 83.1483 145.425 83.9068 145.848Z" fill="#0C1033"/>
<path d="M69.606 145.848C70.3646 146.293 70.3646 146.983 69.606 147.429C68.8475 147.874 67.6204 147.874 66.8619 147.429C66.1033 146.983 66.1033 146.293 66.8619 145.848C67.6204 145.425 68.8475 145.425 69.606 145.848Z" fill="#0C1033"/>
<path d="M76.7662 141.729C77.5247 142.175 77.5247 142.865 76.7662 143.31C76.0076 143.755 74.7806 143.755 74.022 143.31C73.2635 142.865 73.2635 142.175 74.022 141.729C74.7806 141.306 76.0076 141.306 76.7662 141.729Z" fill="#0C1033"/>
<path d="M62.399 141.685C63.1575 142.13 63.1575 142.82 62.399 143.266C61.6404 143.711 60.4134 143.711 59.6548 143.266C58.8963 142.82 58.8963 142.13 59.6548 141.685C60.4134 141.262 61.6404 141.262 62.399 141.685Z" fill="#0C1033"/>
<path d="M69.5396 137.566C70.2982 138.011 70.2982 138.701 69.5396 139.146C68.7811 139.592 67.554 139.592 66.7955 139.146C66.0369 138.701 66.0369 138.011 66.7955 137.566C67.5763 137.143 68.7811 137.143 69.5396 137.566Z" fill="#0C1033"/>
<path d="M55.2388 137.566C55.9974 138.011 55.9974 138.701 55.2388 139.146C54.4803 139.592 53.2532 139.592 52.4947 139.146C51.7361 138.701 51.7361 138.011 52.4947 137.566C53.2755 137.143 54.5026 137.143 55.2388 137.566Z" fill="#0C1033"/>
<path d="M62.399 133.447C63.1575 133.892 63.1575 134.583 62.399 135.028C61.6404 135.473 60.4134 135.473 59.6548 135.028C58.8963 134.583 58.8963 133.892 59.6548 133.447C60.4134 133.024 61.6404 133.024 62.399 133.447Z" fill="#0C1033"/>
<path d="M55.2388 129.328C55.9974 129.774 55.9974 130.464 55.2388 130.909C54.4803 131.354 53.2532 131.354 52.4947 130.909C51.7361 130.464 51.7361 129.774 52.4947 129.328C53.2755 128.905 54.5026 128.905 55.2388 129.328Z" fill="#0C1033"/>
<path d="M85.3825 142.374L55.9332 125.41C53.5237 124.029 52.6759 113.677 55.4423 112.074L69.2523 112.72C72.0188 111.117 76.2354 110.938 78.6226 112.341L109.143 121.425C111.552 122.805 110.169 133.113 107.38 134.716L94.7305 141.996C91.9863 143.599 87.792 143.777 85.3825 142.374Z" fill="#0C1033"/>
<path d="M89.4635 144.312C87.768 144.312 86.1393 143.955 84.89 143.243L55.4406 126.278C53.5665 125.209 52.7188 121.091 52.7188 117.707C52.7188 115.77 53.0088 112.341 54.9498 111.228L55.1952 111.072L69.0051 111.718C72.0616 110.093 76.3675 109.959 79.0001 111.406L109.632 120.534C111.06 121.358 111.372 123.696 111.372 125.499C111.372 128.838 110.301 134.159 107.892 135.54L95.2419 142.82C93.5686 143.822 91.4714 144.312 89.4635 144.312ZM55.7752 113.098C55.2398 113.655 54.7267 115.213 54.7267 117.729C54.7267 121.358 55.7306 124.163 56.4445 124.586L85.8939 141.551C87.9911 142.753 91.8284 142.575 94.2825 141.172L106.932 133.892C108.182 133.158 109.431 129.039 109.431 125.566C109.431 123.629 109.052 122.627 108.762 122.36L78.1746 113.232C76.0775 112.03 72.2401 112.208 69.786 113.61L69.5406 113.766L55.7752 113.098Z" fill="#0C1033"/>
<path d="M85.3817 133.602L55.9323 116.638C53.5229 115.257 53.8352 112.831 56.6017 111.228L69.2515 103.948C72.018 102.345 76.2346 102.166 78.6217 103.569L108.071 120.534C110.481 121.914 110.168 124.341 107.402 125.944L94.752 133.224C91.9855 134.805 87.7912 134.983 85.3817 133.602Z" fill="#1F5A7B"/>
<path d="M69.2954 110.582L56.6456 117.862C56.601 117.885 56.5563 117.929 56.5117 117.952L85.3587 134.582C87.7682 135.963 91.9625 135.785 94.729 134.204L107.379 126.901C107.423 126.879 107.468 126.835 107.513 126.812L78.6657 110.204C76.2562 108.801 72.0619 108.979 69.2954 110.582Z" fill="white"/>
<path d="M89.4627 135.517C87.7671 135.517 86.1385 135.161 84.8891 134.449L55.4398 117.484C54.0789 116.705 53.3203 115.547 53.3203 114.278C53.3203 112.809 54.3466 111.384 56.1091 110.36L68.7589 103.08C71.86 101.299 76.4113 101.12 79.1331 102.701L108.582 119.666C109.943 120.445 110.702 121.581 110.702 122.872C110.702 124.341 109.676 125.766 107.913 126.79L95.2633 134.07C93.5678 135.028 91.4706 135.517 89.4627 135.517ZM74.5819 103.614C72.9086 103.614 71.1238 104.015 69.7629 104.794L57.113 112.074C55.9752 112.72 55.3059 113.543 55.3059 114.278C55.3059 114.968 55.9083 115.48 56.4214 115.77L85.8708 132.735C87.9679 133.937 91.8053 133.759 94.2594 132.356L106.909 125.076C108.025 124.43 108.716 123.607 108.716 122.872C108.716 122.182 108.114 121.67 107.601 121.38L78.1515 104.415C77.2144 103.881 75.9205 103.614 74.5819 103.614Z" fill="#0C1033"/>
<path d="M90.2204 143.31L89.0156 142.798C90.4435 139.436 89.0156 135.495 89.0156 135.451L90.2427 135.005C90.2873 135.206 91.8267 139.503 90.2204 143.31Z" fill="white"/>
<path d="M71.3904 109.05L62.6016 114.118L63.595 115.834L72.3838 110.766L71.3904 109.05Z" fill="#0C1033"/>
<path d="M224.243 151.325C225.001 151.77 225.001 152.46 224.243 152.905C223.484 153.351 222.257 153.351 221.499 152.905C220.74 152.46 220.74 151.77 221.499 151.325C222.257 150.879 223.484 150.879 224.243 151.325Z" fill="#0C1033"/>
<path d="M231.383 147.206C232.142 147.651 232.142 148.341 231.383 148.787C230.625 149.232 229.398 149.232 228.639 148.787C227.881 148.341 227.881 147.651 228.639 147.206C229.398 146.761 230.625 146.761 231.383 147.206Z" fill="#0C1033"/>
<path d="M238.544 143.087C239.302 143.533 239.302 144.223 238.544 144.668C237.785 145.113 236.558 145.113 235.799 144.668C235.041 144.223 235.041 143.533 235.799 143.087C236.558 142.642 237.785 142.642 238.544 143.087Z" fill="#0C1033"/>
<path d="M245.684 138.968C246.443 139.414 246.443 140.104 245.684 140.549C244.926 140.994 243.699 140.994 242.94 140.549C242.181 140.104 242.181 139.414 242.94 138.968C243.699 138.523 244.926 138.523 245.684 138.968Z" fill="#0C1033"/>
<path d="M252.844 134.85C253.603 135.295 253.603 135.985 252.844 136.43C252.086 136.876 250.859 136.876 250.1 136.43C249.342 135.985 249.342 135.295 250.1 134.85C250.859 134.404 252.086 134.404 252.844 134.85Z" fill="#0C1033"/>
<path d="M259.985 130.731C260.743 131.176 260.743 131.866 259.985 132.312C259.226 132.757 257.999 132.757 257.241 132.312C256.482 131.866 256.482 131.176 257.241 130.731C257.999 130.286 259.226 130.286 259.985 130.731Z" fill="#0C1033"/>
<path d="M267.122 126.612C267.88 127.058 267.88 127.748 267.122 128.193C266.363 128.638 265.136 128.638 264.378 128.193C263.619 127.748 263.619 127.058 264.378 126.612C265.158 126.167 266.385 126.167 267.122 126.612Z" fill="#0C1033"/>
<path d="M274.286 122.494C275.044 122.939 275.044 123.629 274.286 124.074C273.527 124.52 272.3 124.52 271.542 124.074C270.783 123.629 270.783 122.939 271.542 122.494C272.3 122.048 273.527 122.048 274.286 122.494Z" fill="#0C1033"/>
<path d="M281.422 118.375C282.181 118.82 282.181 119.51 281.422 119.956C280.664 120.401 279.437 120.401 278.678 119.956C277.92 119.51 277.92 118.82 278.678 118.375C279.459 117.93 280.664 117.93 281.422 118.375Z" fill="#0C1033"/>
<path d="M209.942 151.325C210.701 151.77 210.701 152.46 209.942 152.905C209.183 153.351 207.956 153.351 207.198 152.905C206.439 152.46 206.439 151.77 207.198 151.325C207.956 150.879 209.183 150.879 209.942 151.325Z" fill="#0C1033"/>
<path d="M217.083 147.206C217.841 147.651 217.841 148.341 217.083 148.787C216.324 149.232 215.097 149.232 214.338 148.787C213.58 148.341 213.58 147.651 214.338 147.206C215.119 146.761 216.324 146.761 217.083 147.206Z" fill="#0C1033"/>
<path d="M224.243 143.087C225.001 143.533 225.001 144.223 224.243 144.668C223.484 145.113 222.257 145.113 221.499 144.668C220.74 144.223 220.74 143.533 221.499 143.087C222.257 142.642 223.484 142.642 224.243 143.087Z" fill="#0C1033"/>
<path d="M230.019 140.861C231.091 140.861 231.96 140.362 231.96 139.747C231.96 139.133 231.091 138.634 230.019 138.634C228.947 138.634 228.078 139.133 228.078 139.747C228.078 140.362 228.947 140.861 230.019 140.861Z" fill="#0C1033"/>
<path d="M238.544 134.85C239.302 135.295 239.302 135.985 238.544 136.43C237.785 136.876 236.558 136.876 235.799 136.43C235.041 135.985 235.041 135.295 235.799 134.85C236.558 134.404 237.785 134.404 238.544 134.85Z" fill="#0C1033"/>
<path d="M245.684 130.731C246.443 131.176 246.443 131.866 245.684 132.312C244.926 132.757 243.699 132.757 242.94 132.312C242.181 131.866 242.181 131.176 242.94 130.731C243.699 130.286 244.926 130.286 245.684 130.731Z" fill="#0C1033"/>
<path d="M252.844 126.612C253.603 127.058 253.603 127.748 252.844 128.193C252.086 128.638 250.859 128.638 250.1 128.193C249.342 127.748 249.342 127.058 250.1 126.612C250.859 126.167 252.086 126.167 252.844 126.612Z" fill="#0C1033"/>
<path d="M259.985 122.494C260.743 122.939 260.743 123.629 259.985 124.074C259.226 124.52 257.999 124.52 257.241 124.074C256.482 123.629 256.482 122.939 257.241 122.494C257.999 122.048 259.226 122.048 259.985 122.494Z" fill="#0C1033"/>
<path d="M267.122 118.375C267.88 118.82 267.88 119.51 267.122 119.956C266.363 120.401 265.136 120.401 264.378 119.956C263.619 119.51 263.619 118.82 264.378 118.375C265.158 117.93 266.385 117.93 267.122 118.375Z" fill="#0C1033"/>
<path d="M274.286 114.256C275.044 114.701 275.044 115.391 274.286 115.837C273.527 116.282 272.3 116.282 271.542 115.837C270.783 115.391 270.783 114.701 271.542 114.256C272.3 113.811 273.527 113.811 274.286 114.256Z" fill="#0C1033"/>
<path d="M281.422 110.137C282.181 110.582 282.181 111.273 281.422 111.718C280.664 112.163 279.437 112.163 278.678 111.718C277.92 111.273 277.92 110.582 278.678 110.137C279.459 109.692 280.664 109.692 281.422 110.137Z" fill="#0C1033"/>
<path d="M202.782 147.206C203.54 147.651 203.54 148.341 202.782 148.787C202.023 149.232 200.796 149.232 200.038 148.787C199.279 148.341 199.279 147.651 200.038 147.206C200.819 146.761 202.023 146.761 202.782 147.206Z" fill="#0C1033"/>
<path d="M209.942 143.087C210.701 143.533 210.701 144.223 209.942 144.668C209.183 145.113 207.956 145.113 207.198 144.668C206.439 144.223 206.439 143.533 207.198 143.087C207.956 142.642 209.183 142.642 209.942 143.087Z" fill="#0C1033"/>
<path d="M195.641 143.087C196.4 143.533 196.4 144.223 195.641 144.668C194.883 145.113 193.656 145.113 192.897 144.668C192.138 144.223 192.138 143.533 192.897 143.087C193.656 142.642 194.883 142.642 195.641 143.087Z" fill="#0C1033"/>
<path d="M202.782 138.968C203.54 139.414 203.54 140.104 202.782 140.549C202.023 140.994 200.796 140.994 200.038 140.549C199.279 140.104 199.279 139.414 200.038 138.968C200.819 138.523 202.023 138.523 202.782 138.968Z" fill="#0C1033"/>
<path d="M188.481 138.968C189.24 139.414 189.24 140.104 188.481 140.549C187.722 140.994 186.495 140.994 185.737 140.549C184.978 140.104 184.978 139.414 185.737 138.968C186.518 138.523 187.745 138.523 188.481 138.968Z" fill="#0C1033"/>
<path d="M195.641 134.85C196.4 135.295 196.4 135.985 195.641 136.43C194.883 136.876 193.656 136.876 192.897 136.43C192.138 135.985 192.138 135.295 192.897 134.85C193.656 134.404 194.883 134.404 195.641 134.85Z" fill="#0C1033"/>
<path d="M181.274 134.805C182.033 135.25 182.033 135.941 181.274 136.386C180.515 136.831 179.288 136.831 178.53 136.386C177.771 135.941 177.771 135.25 178.53 134.805C179.288 134.36 180.515 134.36 181.274 134.805Z" fill="#0C1033"/>
<path d="M187.05 132.579C188.122 132.579 188.991 132.08 188.991 131.466C188.991 130.851 188.122 130.353 187.05 130.353C185.978 130.353 185.109 130.851 185.109 131.466C185.109 132.08 185.978 132.579 187.05 132.579Z" fill="#0C1033"/>
<path d="M174.133 130.686C174.892 131.132 174.892 131.822 174.133 132.267C173.375 132.712 172.148 132.712 171.389 132.267C170.631 131.822 170.631 131.132 171.389 130.686C172.148 130.241 173.375 130.241 174.133 130.686Z" fill="#0C1033"/>
<path d="M181.274 126.568C182.033 127.013 182.033 127.703 181.274 128.149C180.515 128.594 179.288 128.594 178.53 128.149C177.771 127.703 177.771 127.013 178.53 126.568C179.288 126.123 180.515 126.123 181.274 126.568Z" fill="#0C1033"/>
<path d="M166.973 126.568C167.732 127.013 167.732 127.703 166.973 128.149C166.215 128.594 164.988 128.594 164.229 128.149C163.471 127.703 163.471 127.013 164.229 126.568C165.01 126.123 166.215 126.123 166.973 126.568Z" fill="#0C1033"/>
<path d="M174.133 122.449C174.892 122.894 174.892 123.585 174.133 124.03C173.375 124.475 172.148 124.475 171.389 124.03C170.631 123.585 170.631 122.894 171.389 122.449C172.148 122.004 173.375 122.004 174.133 122.449Z" fill="#0C1033"/>
<path d="M159.833 122.449C160.591 122.894 160.591 123.585 159.833 124.03C159.074 124.475 157.847 124.475 157.088 124.03C156.33 123.585 156.33 122.894 157.088 122.449C157.847 122.004 159.074 122.004 159.833 122.449Z" fill="#0C1033"/>
<path d="M166.973 118.33C167.732 118.775 167.732 119.465 166.973 119.911C166.215 120.356 164.988 120.356 164.229 119.911C163.471 119.465 163.471 118.775 164.229 118.33C165.01 117.885 166.215 117.885 166.973 118.33Z" fill="#0C1033"/>
<path d="M152.672 118.33C153.431 118.775 153.431 119.465 152.672 119.911C151.914 120.356 150.687 120.356 149.928 119.911C149.17 119.465 149.17 118.775 149.928 118.33C150.709 117.885 151.936 117.885 152.672 118.33Z" fill="#0C1033"/>
<path d="M159.833 114.212C160.591 114.657 160.591 115.347 159.833 115.793C159.074 116.238 157.847 116.238 157.088 115.793C156.33 115.347 156.33 114.657 157.088 114.212C157.847 113.767 159.074 113.767 159.833 114.212Z" fill="#0C1033"/>
<path d="M145.532 114.212C146.29 114.657 146.29 115.347 145.532 115.793C144.773 116.238 143.546 116.238 142.788 115.793C142.029 115.347 142.029 114.657 142.788 114.212C143.546 113.767 144.773 113.767 145.532 114.212Z" fill="#0C1033"/>
<path d="M152.672 110.093C153.431 110.538 153.431 111.228 152.672 111.673C151.914 112.119 150.687 112.119 149.928 111.673C149.17 111.228 149.17 110.538 149.928 110.093C150.709 109.647 151.936 109.647 152.672 110.093Z" fill="#0C1033"/>
<path d="M138.372 110.093C139.13 110.538 139.13 111.228 138.372 111.673C137.613 112.119 136.386 112.119 135.628 111.673C134.869 111.228 134.869 110.538 135.628 110.093C136.408 109.647 137.635 109.647 138.372 110.093Z" fill="#0C1033"/>
<path d="M145.532 105.974C146.29 106.419 146.29 107.11 145.532 107.555C144.773 108 143.546 108 142.788 107.555C142.029 107.11 142.029 106.419 142.788 105.974C143.546 105.529 144.773 105.529 145.532 105.974Z" fill="#0C1033"/>
<path d="M131.231 105.974C131.99 106.419 131.99 107.11 131.231 107.555C130.472 108 129.245 108 128.487 107.555C127.728 107.11 127.728 106.419 128.487 105.974C129.245 105.529 130.472 105.529 131.231 105.974Z" fill="#0C1033"/>
<path d="M138.372 101.855C139.13 102.301 139.13 102.991 138.372 103.436C137.613 103.881 136.386 103.881 135.628 103.436C134.869 102.991 134.869 102.301 135.628 101.855C136.408 101.41 137.635 101.41 138.372 101.855Z" fill="#0C1033"/>
<path d="M124.024 101.811C124.783 102.256 124.783 102.946 124.024 103.392C123.265 103.837 122.038 103.837 121.28 103.392C120.521 102.946 120.521 102.256 121.28 101.811C122.038 101.366 123.265 101.366 124.024 101.811Z" fill="#0C1033"/>
<path d="M131.165 97.6919C131.923 98.1371 131.923 98.8273 131.165 99.2726C130.406 99.7178 129.179 99.7178 128.42 99.2726C127.662 98.8273 127.662 98.1371 128.42 97.6919C129.201 97.2466 130.406 97.2466 131.165 97.6919Z" fill="#0C1033"/>
<path d="M116.864 97.6919C117.622 98.1371 117.622 98.8273 116.864 99.2726C116.105 99.7178 114.878 99.7178 114.12 99.2726C113.361 98.8273 113.361 98.1371 114.12 97.6919C114.901 97.2466 116.128 97.2466 116.864 97.6919Z" fill="#0C1033"/>
<path d="M124.024 93.5732C124.783 94.0185 124.783 94.7086 124.024 95.1539C123.265 95.5992 122.038 95.5992 121.28 95.1539C120.521 94.7086 120.521 94.0185 121.28 93.5732C122.038 93.1279 123.265 93.1279 124.024 93.5732Z" fill="#0C1033"/>
<path d="M116.864 89.4546C117.622 89.8998 117.622 90.59 116.864 91.0353C116.105 91.4805 114.878 91.4805 114.12 91.0353C113.361 90.59 113.361 89.8998 114.12 89.4546C114.901 89.0093 116.128 89.0093 116.864 89.4546Z" fill="#0C1033"/>
<path d="M215.382 137.032L114.562 78.9462L176.161 43.436L277.003 101.544L215.382 137.032Z" fill="#1F5A7B"/>
<path d="M215.382 142.441L114.562 84.3561L176.161 48.8682L277.003 106.953L215.382 142.441Z" fill="white"/>
<path d="M215.382 136.964L119.248 81.5952L114.562 84.2891L215.382 142.374L277.003 106.886L272.295 104.17L215.382 136.964Z" fill="white"/>
<path d="M215.384 138.3L112.355 78.9459L176.162 42.189L279.191 101.543L215.384 138.3ZM120.521 80.9274L206.638 130.53L266.05 96.2891L179.933 46.6862L120.521 80.9274Z" fill="#0C1033"/>
<path d="M230.13 97.4242L183.479 70.5522C181.07 69.1719 181.382 66.7452 184.149 65.1422L184.171 65.1199C186.96 63.517 191.154 63.3388 193.563 64.7414L240.214 91.6134C242.623 92.9938 242.311 95.4205 239.545 97.0234L239.522 97.0457C236.756 98.6487 232.539 98.8045 230.13 97.4242Z" fill="white"/>
<path d="M231.626 101.543L184.975 74.6713C182.566 73.291 182.878 70.8643 185.645 69.2613L185.667 69.2391C188.456 67.6361 192.65 67.458 195.059 68.8606L241.71 95.7326C244.119 97.1129 243.807 99.5396 241.041 101.143L241.018 101.165C238.23 102.768 234.035 102.946 231.626 101.543Z" fill="#1F5A7B"/>
<path d="M235.709 100.474C233.991 100.474 232.34 100.118 231.091 99.3835L184.418 72.5115C183.012 71.7101 182.254 70.5301 182.254 69.2166C182.254 67.7026 183.302 66.2555 185.11 65.2091C188.255 63.4058 192.874 63.2277 195.618 64.8084L242.268 91.6804C243.674 92.4819 244.432 93.6618 244.432 94.9754C244.432 96.4893 243.384 97.9364 241.577 98.9828C239.881 99.9846 237.739 100.474 235.709 100.474ZM232.162 97.4911C234.236 98.6711 238.007 98.493 240.439 97.1127C241.554 96.467 242.201 95.6878 242.201 94.9976C242.201 94.352 241.621 93.8845 241.13 93.595L194.502 66.7008C192.427 65.5208 188.657 65.6989 186.225 67.0793C185.11 67.7249 184.463 68.5041 184.463 69.1943C184.463 69.8399 185.043 70.3075 185.533 70.5969L232.162 97.4911Z" fill="#0C1033"/>
<path d="M170.896 66.5674L170.249 66.1889C167.839 64.8086 168.152 62.3819 170.918 60.7789L170.94 60.7566C173.729 59.1537 177.923 58.9756 180.333 60.3782L180.98 60.7566C183.389 62.137 183.077 64.5637 180.311 66.1667L180.288 66.1889C177.5 67.7696 173.283 67.9477 170.896 66.5674Z" fill="#1F5A7B"/>
<path d="M174.979 65.4985C173.261 65.4985 171.61 65.1423 170.338 64.4076L169.691 64.0291C168.286 63.2276 167.527 62.0477 167.527 60.7341C167.527 59.2202 168.576 57.7731 170.383 56.7267C173.529 54.9234 178.147 54.7453 180.891 56.326L181.538 56.7044C182.944 57.5059 183.702 58.6859 183.702 59.9994C183.702 61.5133 182.654 62.9605 180.846 64.0069C179.129 64.9864 177.009 65.4985 174.979 65.4985ZM176.251 57.4391C174.6 57.4391 172.815 57.8399 171.476 58.6191C170.361 59.2647 169.714 60.044 169.714 60.7341C169.714 61.3798 170.294 61.8473 170.785 62.1367L171.432 62.5152C173.506 63.6952 177.299 63.5171 179.709 62.1367C180.824 61.4911 181.471 60.7119 181.471 60.0217C181.471 59.3761 180.891 58.9085 180.4 58.6191L179.753 58.2406C178.839 57.684 177.589 57.4391 176.251 57.4391Z" fill="#0C1033"/>
<path d="M219.956 119.888L218.149 118.619C218.372 118.307 218.327 118.085 218.26 117.907C218.015 117.35 217.055 116.682 215.449 116.46L214.981 116.393C212.95 116.103 211.166 115.458 209.782 114.545L201.483 108.912C200.836 108.489 200.546 107.821 200.68 107.153C200.836 106.374 201.505 105.795 202.465 105.573L209.872 103.903L193.384 102.701L188.03 104.905C186.245 105.64 183.523 105.283 182.564 103.703C182.14 103.012 182.14 102.211 182.564 101.543C183.211 100.497 184.773 99.8733 186.468 99.9846L193.027 100.474L203.602 96.1331C196.53 96.0663 195.905 95.8659 195.593 95.7546L196.285 93.6841C196.441 93.7286 197.534 93.9067 204.651 93.9512C205.99 93.9512 206.994 94.6191 207.15 95.621C207.261 96.2666 206.971 97.1794 205.767 97.6247L197.913 100.853L211.366 101.833C212.683 101.855 213.731 102.589 213.843 103.636C213.91 104.371 213.486 105.35 212.036 105.684L203.424 107.621L210.987 112.764C212.08 113.499 213.575 114.033 215.248 114.256L215.717 114.322C217.926 114.634 219.621 115.658 220.246 117.061C220.692 117.996 220.558 118.998 219.956 119.888ZM186.022 102.166C185.085 102.166 184.505 102.523 184.416 102.679C184.661 102.946 186.067 103.324 187.182 102.857L188.476 102.322L186.29 102.166C186.201 102.166 186.111 102.166 186.022 102.166Z" fill="#1F5A7B"/>
<path d="M183.145 90.0109L153.585 72.9794C152.447 72.3337 152.603 71.176 153.897 70.4191C155.213 69.6621 157.199 69.5731 158.314 70.241L187.875 87.2725C189.013 87.9182 188.857 89.0759 187.563 89.8328C186.269 90.5898 184.283 90.6788 183.145 90.0109Z" fill="#1F5A7B"/>
<path d="M183.145 87.3615L153.585 70.33C152.447 69.6843 152.603 68.5266 153.897 67.7697C155.213 67.0127 157.199 66.9237 158.314 67.5916L187.875 84.6231C189.013 85.2687 188.857 86.4264 187.563 87.1834C186.269 87.9404 184.283 88.0294 183.145 87.3615Z" fill="#1F5A7B"/>
<path d="M185.087 88.9201C184.172 88.9201 183.302 88.7197 182.61 88.319L153.05 71.2874C152.202 70.7976 151.711 70.0629 151.711 69.2169C151.711 68.3041 152.313 67.4136 153.34 66.8125C155.013 65.8551 157.378 65.7661 158.872 66.6344L188.433 83.6659C189.259 84.1557 189.75 84.8904 189.75 85.7141C189.75 86.6269 189.147 87.5175 188.121 88.1186C187.229 88.6529 186.135 88.9201 185.087 88.9201ZM153.92 69.2169C153.92 69.2169 153.987 69.2837 154.143 69.3728L183.704 86.4043C184.507 86.8718 186.046 86.7828 187.028 86.2262C187.429 86.0036 187.541 85.7809 187.563 85.7364C187.563 85.7364 187.496 85.6696 187.34 85.5806L157.779 68.549C156.976 68.0815 155.414 68.1705 154.455 68.7271C154.054 68.972 153.942 69.1724 153.92 69.2169Z" fill="#0C1033"/>
<path d="M146.917 83.4443L145.809 85.3506L165.626 96.8263L166.734 94.92L146.917 83.4443Z" fill="#1F5A7B"/>
<path d="M138.945 78.8468L137.836 80.7529L143.528 84.0499L144.636 82.1438L138.945 78.8468Z" fill="#1F5A7B"/>
<path d="M146.085 81.1323L144.977 83.0386L164.794 94.5143L165.902 92.608L146.085 81.1323Z" fill="#0C1033"/>
<path d="M138.113 76.5358L137.004 78.4419L142.696 81.7389L143.804 79.8328L138.113 76.5358Z" fill="#0C1033"/>
<path d="M219.956 118.219L218.149 116.95C218.372 116.638 218.327 116.415 218.26 116.237C218.015 115.681 217.055 115.013 215.449 114.79L214.981 114.723C212.95 114.434 211.166 113.811 209.782 112.875L201.483 107.243C200.836 106.82 200.546 106.152 200.68 105.484C200.836 104.705 201.505 104.126 202.465 103.903L209.872 102.234L193.384 101.031L188.03 103.235C186.245 103.97 183.523 103.614 182.564 102.033C182.14 101.343 182.14 100.542 182.564 99.8736C183.211 98.8273 184.773 98.2039 186.468 98.3152L193.027 98.805L203.602 94.4636C196.53 94.3968 195.905 94.1965 195.593 94.0851L196.285 92.0146C196.441 92.0592 197.534 92.2373 204.651 92.2818C205.99 92.2818 206.994 92.9497 207.15 93.9516C207.261 94.5972 206.971 95.51 205.767 95.9553L197.913 99.1835L211.366 100.163C212.683 100.185 213.731 100.92 213.843 101.966C213.91 102.701 213.486 103.681 212.036 104.015L203.424 105.952L210.987 111.094C212.08 111.829 213.575 112.363 215.248 112.586L215.717 112.653C217.926 112.965 219.621 113.989 220.246 115.391C220.692 116.326 220.558 117.35 219.956 118.219ZM186.022 100.497C185.085 100.497 184.505 100.853 184.416 101.009C184.661 101.276 186.067 101.655 187.182 101.187L188.476 100.653L186.29 100.497C186.201 100.497 186.111 100.497 186.022 100.497Z" fill="#0C1033"/>
<rect x="-77" y="88" width="78" height="5" fill="#C4C4C4"/>
</g>
<defs>
<clipPath id="clip0">
<rect width="282" height="156" fill="white"/>
</clipPath>
</defs>
</svg>
