<svg width="58" height="18" viewBox="0 0 58 18" fill="none" xmlns="http://www.w3.org/2000/svg">
<path d="M15.8724 11.3682C14.9299 11.3682 14.0467 10.9537 13.2443 10.279L13.4397 9.32656L13.4482 9.29127C13.6222 8.27715 14.1741 6.57491 15.8724 6.57491C17.146 6.57491 18.182 7.65092 18.182 8.97374C18.1777 10.2922 17.1418 11.3682 15.8724 11.3682ZM15.8724 4.14527C13.7028 4.14527 12.0216 5.60927 11.3382 8.01691C10.2937 6.38974 9.50398 4.43633 9.04127 2.7915H6.7062V9.10162C6.7062 10.3451 5.72969 11.3593 4.53242 11.3593C3.33516 11.3593 2.35876 10.3451 2.35876 9.10162V2.7915H0.0234641V9.10162C0.0149688 11.6857 2.04013 13.8067 4.52801 13.8067C7.01599 13.8067 9.04116 11.6857 9.04116 9.10162V8.04339C9.49537 9.02668 10.0515 10.0188 10.7266 10.9008L9.29579 17.8855H11.6861L12.722 12.8189C13.6305 13.423 14.675 13.8023 15.8723 13.8023C18.4323 13.8023 20.5169 11.624 20.5169 8.96491C20.5169 6.31033 18.4323 4.14527 15.8723 4.14527H15.8724Z" fill="#0C1033"/>
<path d="M27.6451 4.4184L29.1522 10.7285L30.8123 4.4184H32.7907L30.2392 13.5375H28.2607L26.6942 7.18758L25.1317 13.533H23.1533L20.6016 4.41405H22.5801L24.24 10.7242L25.7472 4.41405H27.645V4.41852L27.6451 4.4184ZM37.5245 4.14499C34.956 4.14499 32.8757 6.31005 32.8757 8.97346C32.8757 11.6413 34.9602 13.802 37.5245 13.802C40.0932 13.802 42.1777 11.6413 42.1777 8.97346C42.1777 6.3057 40.0932 4.14499 37.5245 4.14499ZM37.5245 11.8177C36.0132 11.8177 34.7904 10.5477 34.7904 8.97793C34.7904 7.40805 36.0174 6.13817 37.5245 6.13817C39.036 6.13817 40.2587 7.40805 40.2587 8.97793C40.2587 10.5433 39.036 11.8177 37.5245 11.8177ZM47.8285 6.46005C46.4997 6.46005 45.4256 7.58005 45.4256 8.95581V13.533H43.4343V4.4184H45.4256V5.82064C45.4256 5.82064 46.2747 4.41393 48.0196 4.41393H48.6309V6.46005H47.8285ZM54.5112 8.62075C55.9248 7.7917 56.8844 6.21746 56.8844 4.41393H54.8931C54.8931 5.93522 53.7044 7.16993 52.2397 7.16993H51.9722V0.0175781H49.9811V13.5329H51.9722V9.23805H52.2101C52.4053 9.23805 52.6601 9.3704 52.7747 9.53346L55.6022 13.533H57.9882L54.5112 8.62075Z" fill="#0C1033"/>
</svg>
