<svg width="45" height="32" viewBox="0 0 45 32" fill="none" xmlns="http://www.w3.org/2000/svg">
<path d="M34.7966 2.71343C29.9728 2.73558 26.305 5.91417 24.9341 10.9792C22.6297 7.44993 20.8328 3.41117 19.8028 0L14.7271 0.0258422L14.7901 13.4342C14.8012 16.0886 12.6523 18.252 9.98847 18.263C7.32463 18.2741 5.15355 16.1329 5.14243 13.4785L5.07945 0.0701431L0 0.0922935L0.0629837 13.5007C0.0889182 19.0641 4.55335 23.4721 10.0107 23.4462C15.4718 23.4204 19.8917 18.9718 19.8658 13.4084L19.8547 11.1306C20.8772 13.15 22.1591 15.2912 23.5633 17.185L20.4586 32L25.6603 31.9742L27.8981 21.2127C29.9358 22.4679 32.2217 23.2174 34.8856 23.2026C40.4726 23.1767 45.0222 18.6027 44.9926 12.7845C44.9741 7.21735 40.38 2.68759 34.7966 2.71343ZM34.867 18.0194C32.8367 18.0305 30.8027 17.1518 29.1466 15.7674L29.6431 13.7443V13.6151C30.0136 11.4629 31.1399 7.78957 34.9448 7.77111C37.7458 7.76742 40.0243 10.0157 40.0465 12.8066C39.9354 15.7157 37.5346 18.0046 34.867 18.0194Z" fill="#0C1033"/>
</svg>
