<?xml version="1.0" encoding="utf-8"?>
<!-- Generator: Adobe Illustrator 19.2.0, SVG Export Plug-In . SVG Version: 6.00 Build 0)  -->
<svg version="1.1" id="Layer_1" xmlns="http://www.w3.org/2000/svg" xmlns:xlink="http://www.w3.org/1999/xlink" x="0px" y="0px"
	 width="380px" height="130px" viewBox="0 0 380 130" style="enable-background:new 0 0 380 130;" xml:space="preserve">
<style type="text/css">
	.st0{fill:#FFFFFF;}
</style>
<g>
	<path class="st0" d="M75.5,99.1c-4.8,1-10,1.1-15.7,0.7c-4,10.9-12,23.1-24.6,24.2c-17.1,1.5-21.6-19.5-22.7-32.3
		C10.9,74.1,16,8.2,38.2,6.2c10.3-0.9,16.9,10.2,17.6,18.5c2.1,23.6-17.2,50.2-32,66.8c0.5,6.2,4.1,21.7,12.4,20.9
		c6-0.5,11.9-9.9,13.6-15.2c-5.2-3-6.7-8.6-7.2-14.4C42.2,78.1,46,73,50,73c3.9,0,8,2.9,10.5,9.9c0.7,1.8,1.1,5.1,0.9,7.1
		c2,0.7,14-0.3,15-0.9c2-1.3,3.2,0.9,5.5,1.9C83.4,91.6,80.3,98.1,75.5,99.1z M37.8,20.1C28.1,30.2,24.2,64,23.3,77.2
		c10.9-13.5,22.9-32.8,21.3-51c-0.2-1.8-1.3-5-3.3-6.4C40.2,19,38.7,19.1,37.8,20.1z"/>
	<path class="st0" d="M130.9,90.4c-7.2,18.5-13.9,26.7-32.9,28.3c-14.8,1.3-24.5-10.8-25.7-24.5C71.1,80.1,79,59.3,95.1,57.9
		c7.5-0.7,12.3,4.5,12.9,11.8c1.1,12.9-11.1,24.3-22.6,28.6c2.1,6.3,6.3,9.5,12.9,8.9c12-1,18.8-11.8,24.5-20.9
		c1.1-1.8,1.5-2.5,3.6-2.7c2.6-0.2,4.7,1.7,4.9,4.3C131.4,88.8,131.3,89.7,130.9,90.4z M94.2,68.1c-7.5,0.7-11.4,10.2-10.6,20.2
		c9.1-2.7,14.5-9.3,14-15.1C97.6,71.7,96.2,68,94.2,68.1z"/>
	<path class="st0" d="M203.2,91.2c-4.1,11.4-17.2,32.9-31,32.9c-20.2,0-14.8-23.4-17.8-36c-0.2-1.1-0.6-2.6-2.1-2.6
		c-8.6,0-22.9,34.2-28.7,34.2c-2.8,0-6.5-1.5-6.5-4.9c0-1.7,0.3-5.7,1.4-7.2c2.6-3.4,3.9-18.5,3.9-22.8c0-4.7-1.9-9.7-1.9-14.2
		c0-3.9,3-6.9,6.9-6.9c8.4,0,7.1,14.1,7.1,19.9c5.2-5.8,12.9-8.5,21.3-8.5c19.3,0,4.5,37.2,18.3,37.2c12.5,0,21.5-36.6,29.2-36.6
		c2.8,0,0.4,9.9,0.4,12.7C203.6,89.3,203.4,90.4,203.2,91.2z"/>
	<path class="st0" d="M277.3,86.2c-3.5,11.1-10.8,33.5-24.5,33.5c-10.6,0-14.7-8.7-19.4-14.9c-4.7,7.8-13.4,17.6-23.2,18.4
		c-10.5,0.9-14.8-8.8-15.6-17.6c-1.3-15.2,7.3-47.3,25.9-49.1c1.1-0.1,1.9-0.2,3,0c0.2-10.6,2.6-44.7,16.5-45.9
		c9.2-0.8,11.7,13,12.3,19.6c1.7,19.1-5.3,43-12,60.6c1.9,5,6.6,17.1,13.1,16.5c6.2-0.5,8.2-9.6,10.5-15.6
		c2.3-5.8,6.3-11.3,8.5-11.8c2.7-0.6,4.7,2,4.9,4.5C277.5,85.1,277.5,85.8,277.3,86.2z M212,111.8c6.2-0.5,13.5-13.5,16.3-18.7
		c-2.6-7.8-3.5-15.2-4.2-23.4l-0.1-0.9c-1.4-0.7-2.3-1.5-3.8-1.4c-8.4,0.7-15.4,26.4-14.7,34.7C205.9,105.8,207.3,112.2,212,111.8z
		 M240.3,23c-5.7,11.3-6.3,33.8-5.2,46.2c0.1,1.7,0.5,3.2,0.6,4.7c4.1-12.4,7.4-28.5,6.3-41.6C241.7,29.1,241.2,25.9,240.3,23z"/>
	<path class="st0" d="M347.7,88c-1.5,13.8-13.8,30.5-29,30.5c-6.9,0-12.3-4.1-15.7-9.9c-4.9,8-13.3,15.7-23.2,15.7
		c-10.8,0-18.9-8.6-18.9-19.1c0-16.8,20-44.5,38.1-44.5c5.2,0,12.3,3,12.3,9c0,1.3-0.4,2.4-1.1,3.4c1.1,1.1,1.5,2.6,1.5,4.1
		c0,4.1-1.3,8-1.3,12c0,6,1.5,18.5,9.5,18.5c14.4,0,15.5-25.8,23.6-25.8c2.8,0,4.3,2.4,4.3,4.7L347.7,88L347.7,88z M296.7,72.3
		c-11,0-24.5,21.9-24.5,31.8c0,5.2,3.2,9,8.6,9c9.9,0,17.8-14,17.8-22.8c0-2.4-0.6-4.7-0.6-7.1c0-3.4,0.6-7.1,2.6-9.9
		C299.5,72.7,298.2,72.3,296.7,72.3z"/>
	<path class="st0" d="M355.4,125.8c-4.3,0-7.7-3.2-7.7-7.5s5.2-11.8,9.7-11.8c0.9,0,1.7,0.2,2.4,0.6c1.1-0.2,2.2-0.4,3.2-0.4
		c3.9,0,7.1,2.6,7.1,6.7C370,119.6,361.2,125.8,355.4,125.8z"/>
</g>
</svg>
