<?xml version="1.0" encoding="utf-8"?>
<!-- Generator: Adobe Illustrator 19.2.0, SVG Export Plug-In . SVG Version: 6.00 Build 0)  -->
<svg version="1.1" id="Layer_2" xmlns="http://www.w3.org/2000/svg" xmlns:xlink="http://www.w3.org/1999/xlink" x="0px" y="0px"
	 width="60px" height="45px" viewBox="0 0 60 45" style="enable-background:new 0 0 60 45;" xml:space="preserve">
<style type="text/css">
	.st0{fill:#2CC9DC;}
	.st1{fill:none;stroke:#68858C;stroke-width:2;stroke-miterlimit:10;}
	.st2{fill:none;stroke:#68858C;stroke-width:2;stroke-linecap:square;stroke-miterlimit:10;}
</style>
<title>miniicon-ux</title>
<path class="st0" d="M53,7v31H7V7H53 M55,5H5v35h50V5L55,5z"/>
<rect x="6" y="11" class="st0" width="48" height="2"/>
<circle class="st0" cx="11.5" cy="9.1" r="1"/>
<circle class="st0" cx="14.5" cy="9.1" r="1"/>
<circle class="st0" cx="17.5" cy="9.1" r="1"/>
<rect x="14" y="18" class="st1" width="7" height="7"/>
<line class="st2" x1="14" y1="29" x2="21" y2="29"/>
<line class="st2" x1="14" y1="33" x2="21" y2="33"/>
<line class="st2" x1="27" y1="29" x2="34" y2="29"/>
<line class="st2" x1="27" y1="33" x2="34" y2="33"/>
<line class="st2" x1="39" y1="29" x2="46" y2="29"/>
<line class="st2" x1="39" y1="33" x2="46" y2="33"/>
<rect x="39" y="18" class="st1" width="7" height="7"/>
<rect x="27" y="18" class="st1" width="7" height="7"/>
</svg>
